<svg xmlns="http://www.w3.org/2000/svg" xmlns:xlink="http://www.w3.org/1999/xlink" version="1.1" width="18" height="18" viewBox="0 0 256 256" xml:space="preserve">

<defs>
</defs>
<g style="stroke: none; stroke-width: 0; stroke-dasharray: none; stroke-linecap: butt; stroke-linejoin: miter; stroke-miterlimit: 10; fill: none; fill-rule: nonzero; opacity: 1;" transform="translate(1.4065934065934016 1.4065934065934016) scale(2.81 2.81)" >
	<path d="M 72.608 90 H 23.19 c -6.3 0 -11.426 -5.126 -11.426 -11.427 c 0 -6.3 5.126 -11.426 11.426 -11.426 h 40.849 c 1.104 0 2 0.896 2 2 s -0.896 2 -2 2 H 23.19 c -4.095 0 -7.426 3.331 -7.426 7.426 S 19.096 86 23.19 86 h 49.418 c 1.104 0 2 0.896 2 2 S 73.713 90 72.608 90 z" style="stroke: none; stroke-width: 1; stroke-dasharray: none; stroke-linecap: butt; stroke-linejoin: miter; stroke-miterlimit: 10; fill: rgb(131,131,131); fill-rule: nonzero; opacity: 1;" transform=" matrix(1 0 0 1 0 0) " stroke-linecap="round" />
	<path d="M 13.764 80.573 c -1.104 0 -2 -0.896 -2 -2 V 11.565 C 11.764 5.188 16.952 0 23.33 0 h 49.279 c 3.104 0 5.628 2.525 5.628 5.628 V 65.52 c 0 3.104 -2.524 5.628 -5.628 5.628 h -8.569 c -1.104 0 -2 -0.896 -2 -2 s 0.896 -2 2 -2 h 8.569 c 0.897 0 1.628 -0.73 1.628 -1.628 V 5.628 C 74.236 4.73 73.506 4 72.608 4 H 23.33 c -4.171 0 -7.565 3.394 -7.565 7.565 v 67.008 C 15.764 79.678 14.869 80.573 13.764 80.573 z" style="stroke: none; stroke-width: 1; stroke-dasharray: none; stroke-linecap: butt; stroke-linejoin: miter; stroke-miterlimit: 10; fill: rgb(131,131,131); fill-rule: nonzero; opacity: 1;" transform=" matrix(1 0 0 1 0 0) " stroke-linecap="round" />
	<path d="M 23.19 62.199 c -1.104 0 -2 -0.896 -2 -2 V 19.897 c 0 -1.104 0.896 -2 2 -2 s 2 0.896 2 2 v 40.302 C 25.19 61.304 24.295 62.199 23.19 62.199 z" style="stroke: none; stroke-width: 1; stroke-dasharray: none; stroke-linecap: butt; stroke-linejoin: miter; stroke-miterlimit: 10; fill: rgb(131,131,131); fill-rule: nonzero; opacity: 1;" transform=" matrix(1 0 0 1 0 0) " stroke-linecap="round" />
	<path d="M 72.608 80.573 H 23.19 c -1.104 0 -2 -0.896 -2 -2 s 0.896 -2 2 -2 h 49.418 c 0.897 0 1.628 -0.73 1.628 -1.628 c 0 -1.104 0.896 -2 2 -2 s 2 0.896 2 2 C 78.236 78.049 75.712 80.573 72.608 80.573 z" style="stroke: none; stroke-width: 1; stroke-dasharray: none; stroke-linecap: butt; stroke-linejoin: miter; stroke-miterlimit: 10; fill: rgb(131,131,131); fill-rule: nonzero; opacity: 1;" transform=" matrix(1 0 0 1 0 0) " stroke-linecap="round" />
	<path d="M 23.19 13.148 c -1.104 0 -2 -0.896 -2 -2 V 2 c 0 -1.104 0.896 -2 2 -2 s 2 0.896 2 2 v 9.148 C 25.19 12.253 24.295 13.148 23.19 13.148 z" style="stroke: none; stroke-width: 1; stroke-dasharray: none; stroke-linecap: butt; stroke-linejoin: miter; stroke-miterlimit: 10; fill: rgb(131,131,131); fill-rule: nonzero; opacity: 1;" transform=" matrix(1 0 0 1 0 0) " stroke-linecap="round" />
	<path d="M 72.608 90 c -1.104 0 -2 -0.896 -2 -2 s 0.896 -2 2 -2 c 0.897 0 1.628 -0.73 1.628 -1.628 c 0 -1.104 0.896 -2 2 -2 s 2 0.896 2 2 C 78.236 87.476 75.712 90 72.608 90 z" style="stroke: none; stroke-width: 1; stroke-dasharray: none; stroke-linecap: butt; stroke-linejoin: miter; stroke-miterlimit: 10; fill: rgb(131,131,131); fill-rule: nonzero; opacity: 1;" transform=" matrix(1 0 0 1 0 0) " stroke-linecap="round" />
</g>
</svg>