<svg width="18" height="18" viewBox="0 0 18 18" fill="none" xmlns="http://www.w3.org/2000/svg">
<path d="M9.75 6.75H5.25" stroke="#838383" stroke-width="1.40625" stroke-linecap="round" stroke-linejoin="round"/>
<path d="M16.5 8.22749V9.77254C16.5 10.185 16.17 10.5225 15.75 10.5375H14.28C13.47 10.5375 12.7275 9.94501 12.66 9.13501C12.615 8.66251 12.795 8.22001 13.11 7.91251C13.3875 7.62751 13.77 7.46252 14.19 7.46252H15.75C16.17 7.47752 16.5 7.81499 16.5 8.22749Z" stroke="#838383" stroke-width="1.40625" stroke-linecap="round" stroke-linejoin="round"/>
<path d="M13.11 7.91249C12.795 8.21999 12.615 8.66249 12.66 9.13499C12.7275 9.94499 13.47 10.5375 14.28 10.5375H15.75V11.625C15.75 13.875 14.25 15.375 12 15.375H5.24997C2.99997 15.375 1.49997 13.875 1.49997 11.625V6.375C1.49997 4.335 2.72997 2.91 4.64247 2.67C4.83747 2.64 5.03997 2.625 5.24997 2.625H12C12.195 2.625 12.3825 2.63249 12.5625 2.66249C14.4975 2.88749 15.75 4.32 15.75 6.375V7.46251H14.19C13.77 7.46251 13.3875 7.62749 13.11 7.91249Z" stroke="#838383" stroke-width="1.40625" stroke-linecap="round" stroke-linejoin="round"/>
</svg>
