<svg width="95" height="93" viewBox="0 0 95 93" fill="none" xmlns="http://www.w3.org/2000/svg">
<ellipse cx="47.5" cy="46.5" rx="47.5" ry="46.5" fill="#D60B85"/>
<path d="M40.4256 31.8182V58H34.1103V37.7244H33.9569L28.1017 41.304V35.8324L34.5577 31.8182H40.4256ZM56.4409 58.358C54.4039 58.358 52.5843 58.0341 50.9821 57.3864C49.3883 56.7301 48.1355 55.8437 47.2235 54.7273C46.3201 53.6023 45.8684 52.3324 45.8684 50.9176C45.8684 49.8352 46.1284 48.8423 46.6483 47.9389C47.1681 47.0355 47.8713 46.2855 48.7576 45.6889C49.6525 45.0838 50.6497 44.696 51.7491 44.5256V44.321C50.3088 44.0568 49.1284 43.3878 48.2079 42.3139C47.296 41.2401 46.84 39.983 46.84 38.5426C46.84 37.179 47.2534 35.9645 48.0801 34.8991C48.9153 33.8338 50.0531 32.9943 51.4934 32.3807C52.9423 31.767 54.5914 31.4602 56.4409 31.4602C58.2903 31.4602 59.9352 31.767 61.3755 32.3807C62.8244 32.9943 63.9622 33.8338 64.7889 34.8991C65.6241 35.9645 66.0417 37.179 66.0417 38.5426C66.0417 39.9915 65.5772 41.2528 64.6483 42.3267C63.7278 43.392 62.5559 44.0568 61.1326 44.321V44.5256C62.2235 44.696 63.2122 45.0838 64.0985 45.6889C64.9934 46.2855 65.7008 47.0355 66.2207 47.9389C66.7491 48.8423 67.0133 49.8352 67.0133 50.9176C67.0133 52.3324 66.5574 53.6023 65.6454 54.7273C64.7335 55.8437 63.4806 56.7301 61.8869 57.3864C60.3017 58.0341 58.4863 58.358 56.4409 58.358ZM56.4409 53.8707C57.2164 53.8707 57.8983 53.7259 58.4863 53.4361C59.0744 53.1378 59.5346 52.7244 59.867 52.196C60.2079 51.6676 60.3784 51.071 60.3784 50.4062C60.3784 49.7244 60.2079 49.1193 59.867 48.5909C59.5261 48.0625 59.0574 47.6491 58.4608 47.3509C57.8727 47.044 57.1994 46.8906 56.4409 46.8906C55.6909 46.8906 55.0176 47.044 54.421 47.3509C53.8244 47.6491 53.3556 48.0625 53.0147 48.5909C52.6738 49.1193 52.5034 49.7244 52.5034 50.4062C52.5034 51.071 52.6696 51.6676 53.002 52.196C53.3429 52.7159 53.8074 53.125 54.3954 53.4233C54.992 53.7216 55.6738 53.8707 56.4409 53.8707ZM56.4409 42.429C57.1056 42.429 57.6937 42.2926 58.2051 42.0199C58.725 41.7472 59.1298 41.3679 59.4196 40.8821C59.7179 40.3963 59.867 39.8466 59.867 39.233C59.867 38.6193 59.7179 38.0781 59.4196 37.6094C59.1298 37.1406 58.7292 36.7741 58.2179 36.5099C57.7065 36.2372 57.1142 36.1009 56.4409 36.1009C55.7761 36.1009 55.1838 36.2372 54.6639 36.5099C54.144 36.7741 53.7392 37.1406 53.4494 37.6094C53.1596 38.0781 53.0147 38.6193 53.0147 39.233C53.0147 39.8466 53.1596 40.3963 53.4494 40.8821C53.7477 41.3594 54.1568 41.7386 54.6767 42.0199C55.1966 42.2926 55.7846 42.429 56.4409 42.429Z" fill="black"/>
</svg>
