<svg xmlns="http://www.w3.org/2000/svg" width="38" height="61" viewBox="0 0 38 61" fill="none"><path d="M15 3H9C7.4087 3 5.88258 3.62085 4.75736 4.72598C3.63214 5.8311 3 7.32997 3 8.89286V52.1071C3 53.67 3.63214 55.1689 4.75736 56.274C5.88258 57.3792 7.4087 58 9 58H29C30.5913 58 32.1174 57.3792 33.2426 56.274C34.3679 55.1689 35 53.67 35 52.1071V8.89286C35 7.32997 34.3679 5.8311 33.2426 4.72598C32.1174 3.62085 30.5913 3 29 3H23M15 3V6.92857H23V3M15 3H23M15 52.1071H23" stroke="#FF4A52" stroke-width="4.5" stroke-linecap="round" stroke-linejoin="round"></path></svg>