<svg xmlns="http://www.w3.org/2000/svg" width="45" height="56" viewBox="0 0 45 56" fill="none"><path d="M36.9379 3.1168C37.1393 4.9936 37.3406 6.8704 37.542 8.74719C37.7434 10.624 37.9447 12.5008 38.1461 14.3776C38.3474 16.2544 38.5386 18.1553 38.7399 20.0321C38.9413 21.9089 39.1426 23.7857 39.344 25.6625C39.5453 27.5393 39.7467 29.4161 39.9481 31.2929C39.9629 31.5267 40.0019 31.7707 40.0167 32.0044C40.0455 32.2726 40.1327 32.537 40.2886 32.7735C40.4101 33.024 40.5762 33.2365 40.8211 33.397C41.0558 33.5816 41.3109 33.7179 41.5827 33.7476C41.8481 33.8599 42.1301 33.8654 42.4084 33.8125C42.9307 33.7207 43.4901 33.4739 43.7907 33.0323C44.1358 32.5526 44.3018 32.0257 44.2304 31.4551C44.029 29.5783 43.8277 27.7015 43.6263 25.8247C43.4046 23.9962 43.2134 22.0953 43.0121 20.2185C42.8107 18.3417 42.6196 16.4408 42.4182 14.564C42.2168 12.6872 42.0155 10.8104 41.8243 8.90945C41.623 7.03266 41.4216 5.15586 41.2203 3.27906C41.2054 3.04527 41.1665 2.80128 41.1516 2.56749C41.1228 2.29938 41.0356 2.03498 40.8798 1.79841C40.7582 1.54793 40.5922 1.33548 40.3472 1.17499C40.1125 0.990373 39.8574 0.854002 39.5856 0.824321C39.3203 0.712071 39.0382 0.70651 38.7599 0.759398C38.2376 0.851254 37.6782 1.09804 37.3776 1.53965C37.0427 1.99517 36.8767 2.52213 36.9379 3.1168Z" fill="#FF3C48"></path><path d="M17.4837 20.1965C17.9513 21.6456 18.4291 23.0706 18.9069 24.4956C19.4089 25.9308 19.9108 27.366 20.4814 28.7734C21.052 30.1807 21.6671 31.55 22.3508 32.8915C23.0902 34.3703 23.9326 35.8073 24.8641 37.1683C25.7056 38.4059 26.6259 39.5915 27.6557 40.6528C27.908 40.9302 28.1464 41.1733 28.409 41.4265C28.6437 41.6111 28.8988 41.7475 29.1706 41.7772C29.436 41.8894 29.718 41.895 29.9963 41.8421C30.2644 41.8133 30.5288 41.7261 30.7654 41.5703C31.0159 41.4487 31.2283 41.2827 31.3888 41.0377C31.4843 40.8791 31.5799 40.7204 31.6856 40.5377C31.8387 40.1759 31.8749 39.8215 31.8387 39.4365C31.7932 39.275 31.758 39.0895 31.6884 38.9179C31.5492 38.5746 31.3312 38.2833 31.0343 38.0439C31.0204 38.0096 30.9722 37.9892 30.9583 37.9549C31.0724 38.0885 31.2208 38.2082 31.3349 38.3417C29.9285 36.8936 28.7243 35.3035 27.6536 33.5993C27.3419 33.1261 27.0645 32.6391 26.7871 32.152C26.8669 32.2995 26.9708 32.4572 27.0404 32.6289C26.0626 30.907 25.2563 29.1156 24.4946 27.2861C23.7367 25.5151 23.0779 23.6439 22.4535 21.7587C22.1047 20.7011 21.7559 19.6435 21.407 18.5859C21.3198 18.3215 21.1537 18.1091 20.9533 17.9105C20.7632 17.6879 20.5424 17.5376 20.277 17.4253C20.0117 17.3131 19.726 17.2491 19.4579 17.2779C19.186 17.2482 18.9077 17.3011 18.6572 17.4226C18.1665 17.6416 17.6869 18.0359 17.4967 18.5526C17.4494 18.7317 17.4021 18.9107 17.3446 19.1139C17.2982 19.4924 17.3548 19.8292 17.4837 20.1965Z" fill="#FF3C48"></path><path d="M4.12231 43.5793C4.17704 43.5171 4.2457 43.4893 4.32455 43.4373C4.17705 43.5171 4.01933 43.621 3.84771 43.6906C3.92656 43.6387 4.01934 43.621 4.11211 43.6034C3.95069 43.6489 3.76515 43.6841 3.59352 43.7537C3.68629 43.7361 3.77906 43.7184 3.89595 43.711C3.72061 43.7222 3.53136 43.699 3.35602 43.7101C3.49704 43.7129 3.66217 43.7259 3.80689 43.7871C3.62784 43.7398 3.44879 43.6925 3.24562 43.635C3.52116 43.7231 3.78648 43.8353 4.01749 43.9615C3.85885 43.866 3.70021 43.7704 3.51744 43.6646C4.06573 43.9819 4.51475 44.3994 5.00831 44.7788C5.58814 45.2232 6.19209 45.6778 6.77192 46.1221C7.96591 46.997 9.1701 47.8477 10.3845 48.6742C13.0063 50.409 15.7134 52.0093 18.5058 53.4751C19.9985 54.2488 21.5014 54.9983 23.035 55.6756C23.3003 55.7878 23.586 55.8518 23.8541 55.823C24.126 55.8527 24.4043 55.7998 24.6548 55.6783C24.9192 55.5911 25.1316 55.425 25.3301 55.2246C25.5528 55.0344 25.7031 54.8136 25.8153 54.5483C26.0055 54.0316 26.0611 53.4295 25.8181 52.9285C25.5852 52.4034 25.2085 52.0165 24.6881 51.7679C22.4411 50.7604 20.235 49.6565 18.0938 48.4663C17.4973 48.1286 16.8766 47.7807 16.2903 47.4189C16.4489 47.5144 16.6076 47.61 16.7903 47.7158C14.9006 46.6034 13.0516 45.3947 11.2472 44.1478C10.3501 43.5123 9.47707 42.8871 8.60036 42.2034C8.16896 41.8787 7.72365 41.5196 7.29226 41.1949C6.94714 40.9352 6.61223 40.6513 6.25691 40.4157C5.91551 40.2144 5.58431 39.9889 5.2225 39.8359C4.88481 39.693 4.50259 39.5882 4.13428 39.5177C3.25666 39.3739 2.27422 39.6123 1.60627 40.1829C1.36971 40.3388 1.1953 40.5494 1.05894 40.8045C0.898447 41.0494 0.786198 41.3148 0.756517 41.5866C0.716631 41.8825 0.721278 42.1404 0.808489 42.4048C0.861374 42.6832 0.958789 42.9234 1.14898 43.1461C1.50523 43.5812 2.00899 43.9365 2.56283 43.9717C3.10648 44.0311 3.68722 43.9355 4.12231 43.5793Z" fill="#FF3C48"></path></svg>