<?xml version="1.0" encoding="utf-8"?>
<!-- Generator: Adobe Illustrator 26.0.1, SVG Export Plug-In . SVG Version: 6.00 Build 0)  -->
<svg version="1.1" id="Layer_1" xmlns="http://www.w3.org/2000/svg" xmlns:xlink="http://www.w3.org/1999/xlink" x="0px" y="0px"
	 viewBox="0 0 1080 1080" style="enable-background:new 0 0 1080 1080;" xml:space="preserve">
<style type="text/css">
	.st0{fill:#FFFFFF;}
</style>
<g>
	<path class="st0" d="M171.98,468.18c0,4.96-0.08,9.93,0.02,14.89c0.28,14.15,0.54,28.3,0.98,42.44c0.24,7.71,2.04,9.61,9.76,11.51
		c1.7,0.42,3.38,0.93,5.28,1.45c-2.62,2.9-31.65,3.39-36.94,0.4c2.44-0.81,4.12-1.44,5.85-1.93c6.06-1.68,8.65-4.29,8.78-10.47
		c0.43-19.99,0.78-39.98,0.73-59.97c-0.02-8.89-4.2-12.96-13.2-14.71c-1.14-0.22-2.2-0.87-3.29-1.31c0.07-0.63,0.14-1.26,0.21-1.89
		c3.14,0,6.34,0.38,9.42-0.07c8.91-1.3,15.04,2.13,20.96,8.94c17.49,20.11,35.74,39.56,53.64,59.32c0.98,1.08,1.45,2.63,2.16,3.96
		c0.57-0.38,1.14-0.77,1.7-1.15c0.25-1.02,0.73-2.04,0.71-3.05c-0.26-17.98-0.47-35.97-0.96-53.94c-0.19-7.08-2.92-9.64-9.91-10.74
		c-1.98-0.31-3.91-0.87-5.87-1.31c0.07-0.46,0.15-0.91,0.22-1.37c11.82,0,23.64,0,35.46,0c0.09,0.45,0.17,0.9,0.26,1.35
		c-1.4,0.46-2.77,1.04-4.21,1.35c-6.44,1.38-8.72,4.07-8.79,10.68c-0.26,24.32-0.46,48.65-0.82,72.97c-0.03,2.08-1.11,4.13-1.71,6.2
		c-2.05-1.09-4.63-1.72-6.08-3.34c-20.19-22.62-40.23-45.38-60.33-68.08c-0.84-0.94-1.86-1.73-2.79-2.58
		C172.82,467.87,172.4,468.02,171.98,468.18z"/>
	<path class="st0" d="M821.07,449.13c1.49-0.17,2.98-0.47,4.48-0.48c19.65-0.06,39.31-0.03,58.96-0.16c2.92-0.02,5,0.54,5.17,3.81
		c0.26,4.82,0.49,9.64,0.47,14.47c0,0.97-1.16,1.93-2.28,3.65c-1.71-3.66-3.07-6.27-4.17-8.99c-2.27-5.64-6.66-8.19-12.42-8.39
		c-6.82-0.23-13.65-0.12-20.48-0.1c-3.26,0.01-4.83,1.74-4.82,5.02c0.03,9.66-0.09,19.32,0.15,28.98c0.03,1.24,1.83,3.46,2.87,3.5
		c6.64,0.24,13.31,0.18,19.96-0.14c4.93-0.24,7.75-3.17,8.91-8c0.31-1.27,1.79-2.27,2.73-3.39c0.5,1.27,1.42,2.53,1.44,3.81
		c0.14,6.83,0.1,13.66,0.03,20.49c-0.01,1.19-0.49,2.37-0.75,3.55c-0.47,0.09-0.93,0.18-1.4,0.27c-0.75-1.61-1.62-3.17-2.22-4.84
		c-1.35-3.77-3.57-6.3-7.9-6.42c-6.48-0.17-12.96-0.44-19.44-0.64c-2.76-0.08-4.37,0.98-4.34,4.08c0.1,8.99-0.17,18,0.17,26.98
		c0.27,7.03,2.35,9.44,9.3,9.81c8.11,0.42,16.35,0.45,24.38-0.53c6.95-0.85,9.74-7.38,13.22-12.64c1.13-1.71,2.83-3.04,4.27-4.55
		c0.56,0.4,1.12,0.8,1.68,1.21c-1.92,6.44-3.69,12.94-5.89,19.28c-0.36,1.03-2.58,1.98-3.95,1.99c-22.32,0.12-44.64,0.1-66.96,0.05
		c-1.15,0-2.29-0.5-3.44-0.77c-0.02-0.49-0.04-0.98-0.07-1.47c2.23-0.51,4.47-1.01,6.7-1.53c6.23-1.44,8.24-3.53,8.28-9.92
		c0.12-21.49,0.14-42.97,0-64.46c-0.05-7.48-2.09-9.46-9.54-10.86c-1.13-0.21-2.19-0.82-3.29-1.25
		C820.97,450.07,821.02,449.6,821.07,449.13z"/>
	<path class="st0" d="M349.98,519.64c-1.73,6.03-3.27,12.13-5.34,18.04c-0.48,1.38-2.78,3-4.25,3.01
		c-22.49,0.19-44.97,0.14-67.46,0.09c-1.02,0-2.04-0.53-3.06-0.82c-0.04-0.43-0.08-0.85-0.11-1.28c1.54-0.39,3.06-0.88,4.61-1.14
		c8.4-1.42,10.41-3.66,10.43-12.28c0.05-19.82,0.04-39.64,0.01-59.47c-0.01-10.71-0.63-11.44-10.95-14.17
		c-0.69-0.18-1.26-0.86-3.1-2.17c2.55-0.42,3.84-0.8,5.13-0.81c19.99-0.07,39.98-0.16,59.96,0.02c1.57,0.01,4.31,1.79,4.49,3.02
		c0.71,5.08,0.72,10.27,0.76,15.42c0.01,0.82-1.17,1.64-2.29,3.12c-1.59-3.39-2.97-5.97-4.04-8.68c-2.42-6.09-7.23-8.44-13.35-8.59
		c-6.33-0.16-12.66-0.03-18.99-0.07c-3.68-0.03-5.52,1.58-5.48,5.42c0.08,9.33-0.1,18.66,0.15,27.98c0.04,1.45,1.74,4.05,2.75,4.09
		c6.81,0.27,13.64,0.19,20.45-0.18c4.71-0.26,7.38-3.19,8.52-7.78c0.33-1.32,1.72-2.37,2.63-3.54c0.55,1.4,1.54,2.78,1.58,4.19
		c0.16,6.83,0.14,13.66-0.02,20.48c-0.02,1.05-1.07,2.08-1.64,3.12c-0.84-0.87-2.26-1.65-2.42-2.64c-1.04-6.3-5.12-8.56-10.92-8.69
		c-5.66-0.13-11.32-0.15-16.98-0.24c-2.86-0.05-4.18,1.11-4.13,4.17c0.14,9.16-0.07,18.32,0.12,27.48c0.12,6,2.29,8.71,8.32,9
		c8.6,0.41,17.34,0.65,25.85-0.4c6.64-0.81,9.45-7.26,12.81-12.42c1.14-1.75,2.8-3.14,4.23-4.7
		C348.83,518.72,349.41,519.18,349.98,519.64z"/>
	<path class="st0" d="M361.84,538.74c3.09-0.8,5.07-1.53,7.1-1.79c4.77-0.61,7.08-3.39,7.34-7.97c0.26-4.48,0.37-8.98,0.39-13.47
		c0.04-15.82,0.04-31.65-0.01-47.47c-0.01-2.65-0.47-5.29-0.59-7.94c-0.24-5.63-3.72-7.7-8.75-8.3c-1.46-0.17-2.88-0.77-4.32-1.17
		c0.03-0.49,0.07-0.99,0.1-1.48c1.32-0.19,2.64-0.55,3.96-0.55c13.82-0.01,27.65-0.15,41.47,0.19c4.24,0.1,8.58,1.13,12.64,2.45
		c9.8,3.19,15.63,10.2,16.63,20.41c1.04,10.55-2.89,19.32-11.89,25.3c-8.89,5.9-18.69,7.49-29.12,5.27
		c-2.25-0.48-4.5-0.93-7.83-1.61c0,3.4,0,6.28,0,9.16c0,5.66-0.03,11.33,0.01,16.99c0.06,6.93,1.53,8.7,8.29,10.18
		c2.18,0.48,4.36,0.97,6.84,1.53C401.29,541.39,367.26,541.83,361.84,538.74z M388.96,475.63c0,5.81-0.16,11.63,0.11,17.43
		c0.07,1.44,1.29,3.74,2.43,4.07c8.65,2.46,17.14,2.06,24.68-3.41c8.43-6.11,11.02-19.57,6.02-29.8
		c-4.44-9.07-16.8-13.97-27.88-11.33c-3.73,0.89-5.36,2.92-5.36,6.59C388.98,464.66,388.97,470.14,388.96,475.63z"/>
	<path class="st0" d="M678.57,538.94c2.59-0.9,4.02-1.58,5.53-1.88c4.53-0.89,5.75-3.71,4.33-7.7c-2.35-6.57-4.82-13.11-7.62-19.49
		c-0.61-1.38-2.86-2.85-4.39-2.9c-9.15-0.27-18.31-0.29-27.46,0.01c-1.64,0.05-4.01,1.64-4.69,3.14
		c-2.47,5.43-4.53,11.07-6.44,16.73c-2.11,6.26-0.77,8.38,5.64,9.92c2.13,0.51,4.24,1.15,6.8,1.86c-3.47,2.72-30.98,3.03-35.74,0.56
		c1.23-0.65,2.06-1.4,2.98-1.54c6.81-1.03,10.78-5.23,13.37-11.32c7.86-18.51,15.86-36.96,23.78-55.44
		c2.75-6.41,5.3-12.92,8.25-19.24c0.88-1.88,2.81-3.27,4.26-4.89c1.3,1.73,3.07,3.27,3.84,5.21c8.47,21.13,16.6,42.4,25.21,63.47
		c4,9.79,5.3,22.19,20.46,22.76C713.29,541.31,684.52,541.79,678.57,538.94z M663.72,465c-0.5,0.02-0.99,0.03-1.49,0.05
		c-4.82,12-9.65,24-14.75,36.69c10.57,0,20.01,0,30.39,0C672.94,488.92,668.33,476.96,663.72,465z"/>
	<path class="st0" d="M739.97,538.5c3.4-0.6,5.61-0.94,7.8-1.4c7.1-1.5,8.95-3.58,9.01-10.85c0.11-12.83,0.04-25.66,0.05-38.49
		c0-10-0.12-20,0.06-29.99c0.06-3.58-0.97-5.24-4.79-4.97c-3.48,0.25-7,0.04-10.49,0.06c-10.29,0.07-12.72,1.83-16.77,11.58
		c-0.87,2.09-2.39,3.92-3.61,5.87c-0.59-0.27-1.18-0.54-1.77-0.81c0.53-7.04,0.95-14.1,1.65-21.13c0.24-2.39,1.46-3.3,4.21-2.07
		c2.78,1.24,5.96,2.15,8.98,2.18c19.16,0.19,38.33,0.2,57.49,0c3.2-0.03,6.52-1.03,9.54-2.22c2.73-1.08,3.76-0.45,3.97,2.22
		c0.47,6.14,0.96,12.28,1.26,18.42c0.04,0.89-0.88,1.83-1.35,2.75c-0.84-0.61-2.03-1.04-2.45-1.86c-1.44-2.8-2.56-5.77-3.9-8.62
		c-1.97-4.21-5.45-6.16-9.98-6.24c-5.33-0.1-10.67,0.02-16-0.09c-2.77-0.06-3.87,1.13-3.86,3.87c0.06,23.5-0.06,46.99,0.15,70.49
		c0.06,6.46,2.08,8.26,8.53,9.68c2.35,0.52,4.71,1.01,7.31,1.57C782.31,541.45,745.09,541.85,739.97,538.5z"/>
	<path class="st0" d="M591.65,540.15c-14.47,0-28.94,0-43.41,0c-0.09-0.45-0.19-0.91-0.28-1.36c1.48-0.4,2.93-0.97,4.44-1.19
		c9.32-1.36,11.35-3.55,11.37-13c0.06-22.14-0.06-44.29,0.1-66.43c0.03-4.15-1.35-5.73-5.46-5.37c-2.97,0.26-5.99,0.04-8.99,0.05
		c-11.4,0.04-13.5,1.54-17.9,12.1c-0.86,2.07-0.87,5.66-5.17,4.45c0.52-7.12,0.98-14.05,1.55-20.96c0.21-2.59,1.36-3.34,4.05-2.31
		c3.01,1.15,6.26,2.31,9.42,2.34c18.98,0.22,37.96,0.22,56.94,0c3.35-0.04,6.66-1.64,10.04-2.14c1.13-0.17,3.45,0.74,3.5,1.31
		c0.59,6.78,0.87,13.6,1.15,20.4c0.02,0.52-0.62,1.06-1.55,2.54c-1.18-2.22-2.18-3.73-2.83-5.38c-4.24-10.8-6.45-12.34-18.14-12.36
		c-3.5-0.01-7,0.12-10.49-0.03c-3.08-0.13-4.04,1.24-4.03,4.17c0.07,23.31-0.02,46.62,0.1,69.93c0.03,6.44,1.99,8.51,8.24,9.94
		c2.49,0.57,5.01,1.04,7.52,1.55C591.76,538.99,591.7,539.57,591.65,540.15z"/>
	<path class="st0" d="M487.69,446.1c5.1,0.68,10.19,1.37,15.29,2.04c2.6,0.34,4.14,1.46,4.36,4.4c0.29,3.8,1.26,7.54,1.49,11.34
		c0.09,1.52-0.99,3.11-1.54,4.67c-0.95-1.18-2.28-2.22-2.78-3.56c-4.07-11.02-11.77-15.81-23.7-14.54
		c-6.77,0.72-11.47,4.31-13.23,11.05c-1.84,7.01-0.55,13.55,5.31,18.02c4.98,3.8,10.75,6.57,16.15,9.84
		c5.39,3.27,11.3,5.94,16.02,10c11.96,10.29,10.66,27.96-2.43,36.75c-14.22,9.56-29.29,7.87-44.46,2.62
		c-0.84-0.29-1.92-1.13-2.09-1.89c-1.21-5.51-2.31-11.04-3.16-16.61c-0.14-0.92,1.11-2.05,1.72-3.09c0.78,0.71,1.8,1.29,2.31,2.16
		c1.85,3.14,3.25,6.59,5.35,9.53c5.77,8.1,16.74,11.56,26.17,9.16c14.58-3.72,15.55-21.86,8-28.77c-4.11-3.76-9.09-6.61-13.83-9.65
		c-6.01-3.84-12.61-6.89-18.17-11.28c-13.12-10.36-11.62-29.07,3.15-36.96c5.95-3.17,13.04-4.2,19.61-6.21
		C487.37,445.44,487.53,445.77,487.69,446.1z"/>
	<path class="st0" d="M484.85,615.17c0-9.1,0-18.21,0-27.31c0-1.33-0.3-2.77,0.1-3.97c0.39-1.17,1.51-2.09,2.31-3.12
		c0.9,1.1,2.51,2.17,2.57,3.31c0.27,5.48,0.13,10.98,0.13,16.48c0,5.66,0.18,11.33-0.11,16.98c-0.09,1.78-1.63,5.05-2.16,4.98
		c-2.34-0.3-5.58-0.93-6.63-2.6c-5.3-8.44-10.01-17.25-14.96-25.91c-1.14-1.99-2.4-3.91-4.46-7.25c-0.34,2.82-0.63,4.13-0.64,5.45
		c-0.04,8.49,0.11,16.98-0.13,25.47c-0.05,1.7-1.48,3.37-2.28,5.05c-0.76-1.61-2.16-3.2-2.19-4.82c-0.2-10.65-0.22-21.31,0.01-31.96
		c0.04-1.73,1.68-4.91,2.43-4.87c2.13,0.12,5.1,0.99,6.11,2.6c4.78,7.59,9,15.53,13.45,23.33c1.62,2.85,3.31,5.65,4.97,8.48
		C483.88,615.37,484.36,615.27,484.85,615.17z"/>
	<path class="st0" d="M767.02,601.93c4.18,0,8.36-0.06,12.53,0.08c0.56,0.02,1.54,1.07,1.55,1.65c0.08,4.97,0.12,9.95-0.21,14.9
		c-0.06,0.87-1.76,1.9-2.91,2.4c-7.96,3.49-16.1,4.02-24.17,0.54c-8.68-3.75-12.85-13.63-10.88-25.01
		c1.51-8.74,8.3-15.35,17.47-15.74c5.51-0.23,11.14,0.84,16.6,1.87c1.44,0.27,2.49,2.6,3.72,3.99c-0.33,0.39-0.66,0.77-0.98,1.16
		c-2.35-0.97-4.64-2.11-7.06-2.87c-16.06-5.08-27.86,5.63-24.4,22.08c2.35,11.15,16.11,17.34,26.06,11.56
		c4.31-2.51,2.17-6.92,2.02-10.44c-0.04-0.98-3.09-1.99-4.87-2.7c-1.49-0.6-3.15-0.79-4.73-1.17
		C766.85,603.45,766.93,602.69,767.02,601.93z"/>
	<path class="st0" d="M402.02,630.52c16.94,1.07,21.6-1.68,20.35-10.55c-5.02,0.72-10.05,2.17-14.97,1.85
		c-2.56-0.17-5.55-3-7.26-5.4c-4.38-6.15-2.98-17.98,2.16-22.74c4.8-4.45,11.68-4.09,18.88,0.87c1.53-0.97,2.98-1.89,4.43-2.82
		c0.47,1.64,1.31,3.27,1.34,4.92c0.15,7.32,0.09,14.65,0.05,21.98c-0.06,12.32-7.25,18.19-19.52,15.7
		C405.41,633.9,401.76,634.85,402.02,630.52z M422.75,606.59c-0.01-7.71-3.99-12.69-10.21-12.75c-6.45-0.06-10.57,5.04-10.48,12.97
		c0.09,7.58,4.37,12.76,10.45,12.67C418.59,619.39,422.75,614.16,422.75,606.59z"/>
	<path class="st0" d="M847.68,618.97c-1.66,1.15-2.98,2.06-4.3,2.97c-0.52-1.6-1.48-3.2-1.5-4.8c-0.13-11.33-0.14-22.66,0.02-33.98
		c0.02-1.46,1.31-2.9,2.01-4.34c0.72,1.43,1.94,2.83,2.05,4.31c0.3,3.73,0.1,7.51,0.1,12.96c5.39-5.08,10.55-6.78,16.03-4.81
		c2.46,0.88,4.88,2.99,6.38,5.18c4.53,6.63,3.42,18.15-1.8,23.22C861.9,624.31,854.81,624.04,847.68,618.97z M867.07,607.03
		c-0.53-2.35-0.76-4.9-1.7-7.15c-1.59-3.8-4.46-6.06-8.87-6.07c-4.42-0.02-7.89,2.14-8.74,6.05c-0.95,4.35-1.01,9.2-0.13,13.56
		c0.78,3.88,4.14,6.22,8.58,6.31c4.64,0.09,7.57-2.27,9.27-6.25C866.3,611.53,866.53,609.32,867.07,607.03z"/>
	<path class="st0" d="M540.69,594.45c7.78-5.09,14.86-5.18,19.48-0.07c5.23,5.78,5.49,17.84,0.53,24.17
		c-4.4,5.61-10.84,5.76-21.63-0.15c0,4.42,0.2,8.28-0.1,12.1c-0.11,1.45-1.38,2.81-2.12,4.22c-0.68-1.47-1.92-2.92-1.94-4.4
		c-0.16-11.47-0.15-22.94-0.01-34.41c0.02-1.39,1.06-2.77,1.63-4.16C537.75,592.55,538.97,593.34,540.69,594.45z M560.05,607.76
		c-0.34-2.24-0.45-3.57-0.75-4.86c-1.44-6.16-4.84-9.18-10.12-9.06c-5,0.11-8.44,3.1-9.33,9.19c-0.49,3.33-0.64,7.29,0.76,10.14
		c1.33,2.72,4.56,5.2,7.5,6.28c3.68,1.35,7.37-0.54,9.3-4.08C558.8,612.82,559.37,609.82,560.05,607.76z"/>
	<path class="st0" d="M259.76,607.83c0.51,11.32,5,13.17,24.97,10.63c-1.32,1.62-1.9,3.07-2.88,3.43
		c-6.63,2.44-13.36,2.98-19.8-0.53c-7.58-4.13-9.95-15.33-5.12-23.32c4.45-7.35,15.39-9.84,22.33-4.62
		c2.36,1.78,4.31,4.71,5.34,7.52c1.91,5.25,0.43,6.87-5.15,6.89C272.99,607.84,266.54,607.83,259.76,607.83z M280.33,604.42
		c-0.27-6.78-4.02-10.47-9.92-10.32c-6.37,0.16-10.37,4.14-10.06,10.32C266.88,604.42,273.42,604.42,280.33,604.42z"/>
	<path class="st0" d="M502.02,607.83c-0.5,11.27,6.68,14.31,24.14,11.4c-0.96,0.99-1.76,2.48-2.92,2.88
		c-5.62,1.93-11.37,2.55-17.07,0.24c-5.54-2.25-8.89-6.25-9.4-12.37c-0.6-7.11,0.82-13.48,7.61-17.12
		c5.83-3.12,11.99-3.24,17.39,0.93c2.1,1.62,3.78,4.28,4.72,6.81c2.04,5.5,0.61,7.22-5.2,7.23
		C514.86,607.84,508.41,607.83,502.02,607.83z M501.97,604.37c6.91,0,13.59,0,20.26,0c0.04-6.33-3.32-9.97-9.14-10.26
		C507.06,593.8,502.73,597.51,501.97,604.37z"/>
	<path class="st0" d="M627.02,607.83c-0.51,11.27,6.65,14.3,24.14,11.4c-0.96,0.99-1.76,2.47-2.92,2.87
		c-5.62,1.93-11.37,2.55-17.07,0.24c-5.54-2.25-8.88-6.25-9.4-12.37c-0.6-7.11,0.82-13.48,7.61-17.12
		c5.83-3.12,11.99-3.24,17.39,0.93c2.1,1.62,3.78,4.28,4.72,6.81c2.04,5.5,0.61,7.22-5.2,7.23
		C639.86,607.84,633.41,607.83,627.02,607.83z M647.26,604.36c-0.03-6.65-4.12-10.62-10.19-10.25c-6.56,0.4-10.41,4.58-9.45,10.25
		C634.17,604.36,640.72,604.36,647.26,604.36z"/>
	<path class="st0" d="M718.47,619.03c-1.22,1.22-2,2.65-3.14,3.05c-5.79,2-11.69,2.63-17.52,0.1c-5.5-2.38-8.67-6.46-9.07-12.61
		c-0.47-7.16,1.12-13.41,8.01-16.89c5.73-2.9,11.74-3,16.95,1.06c2.21,1.72,3.99,4.55,4.92,7.24c1.83,5.27,0.41,6.84-5.21,6.85
		c-6.45,0.01-12.9,0-19.28,0c-0.55,6.83,2.1,11.09,8.35,11.87C707.39,620.32,712.51,619.35,718.47,619.03z M714.26,604.36
		c-0.03-6.65-4.12-10.62-10.19-10.25c-6.56,0.4-10.41,4.58-9.45,10.25C701.17,604.36,707.72,604.36,714.26,604.36z"/>
	<path class="st0" d="M898.47,619.57c-3.95,3.21-8.58,5.32-14.32,3.61c-4.53-1.35-7.12-4.12-7.28-8.87c-0.17-5.04,2.5-8.42,7.2-9.41
		c4.97-1.04,10.12-1.19,15.2-1.72c0.8-5.18-0.87-7.88-6.64-8.59c-4.1-0.5-8.36,0.33-13.88,0.65c1.56-1.51,2.22-2.67,3.16-2.97
		c5.49-1.74,11-2.34,16.48,0.26c5.4,2.56,6.05,7.6,6.48,12.58c0.35,3.96,0.26,7.98,0.01,11.96c-0.12,1.91-1.09,3.76-1.67,5.64
		C901.7,621.71,900.19,620.71,898.47,619.57z M899.43,606.41c-4.87,0.51-9.56,0.5-13.93,1.69c-1.78,0.48-4.03,3.61-3.93,5.42
		c0.11,2.11,2.1,5.02,4.06,5.97C893.15,623.18,900.43,616.76,899.43,606.41z"/>
	<path class="st0" d="M572.81,595.73c0.14-1.3,0.01-2.05,0.26-2.2c4.92-3.03,10.15-3.41,15.68-1.95c4.68,1.23,7.83,4,8.27,8.81
		c0.6,6.59,0.7,13.23,0.82,19.85c0.01,0.82-1.62,2.45-1.75,2.38c-1.46-0.81-2.76-1.88-4.44-3.12c-4.09,3.08-8.79,5.52-14.68,3.63
		c-4.51-1.45-7.01-4.26-7.11-9.01c-0.1-4.82,2.46-8.15,6.91-9.14c4.97-1.11,10.15-1.26,16.72-1.99c-1.19-2.4-1.75-5.43-3.53-6.62
		c-2.3-1.52-5.56-2.01-8.44-2.12C578.82,594.15,576.09,595.13,572.81,595.73z M592.35,606.52c-4.56,0.43-9.26,0.32-13.59,1.53
		c-1.89,0.53-4.21,3.75-4.19,5.72c0.02,2,2.48,5.38,4.25,5.65c3.27,0.51,7.26-0.01,10.14-1.58
		C592.69,615.8,593.6,611.67,592.35,606.52z"/>
	<path class="st0" d="M140.67,617.57c-1.1,1.26-1.95,2.98-3.33,3.72c-8.56,4.61-21.22,2.7-27.38-3.92
		c-6.08-6.53-7.23-19.52-2.44-27.65c5.32-9.03,21.92-12.85,30.7-6.92c1.08,0.73,1.51,2.42,3.03,5.01
		c-11.26-4.5-21.19-7.64-28.62,3.06c-4.53,6.52-3.47,18.46,1.32,24.05c5.13,5.98,13.76,6.55,25.38,1.68
		C139.77,616.93,140.22,617.25,140.67,617.57z"/>
	<path class="st0" d="M144.71,607.28c0-10.27,5.75-16.61,15.01-16.56c9.34,0.05,15.24,6.45,15.24,16.53
		c0.01,10.09-5.95,16.58-15.22,16.56C150.4,623.8,144.71,617.54,144.71,607.28z M169.85,607.36c0.01-8.79-4.94-14.3-11.69-13.02
		c-5.23,0.99-8.3,4.98-8.95,11.62c-0.6,6.13,2.35,11.98,6.88,13.67C163.72,622.47,169.84,617.01,169.85,607.36z"/>
	<path class="st0" d="M833.97,607.44c-0.04,10.03-6.15,16.52-15.41,16.37c-9.36-0.15-14.88-6.37-14.84-16.73
		c0.03-10.19,5.93-16.54,15.2-16.37C828.26,590.9,834.01,597.28,833.97,607.44z M828.85,607.56c0.03-8.85-4.78-14.4-11.5-13.26
		c-5.39,0.91-8.65,5.16-9.16,11.97c-0.48,6.24,2.51,11.82,7.19,13.43C822.89,622.27,828.82,616.93,828.85,607.56z"/>
	<path class="st0" d="M959.88,615.99c5.96-7.8,6.37-18.47,13.28-25.03c0.76,0.43,1.53,0.87,2.29,1.3
		c-1.89,4.52-3.74,9.05-5.68,13.55c-3.36,7.77-6.58,15.62-10.26,23.24c-2.78,5.76-7.64,7.21-12.8,4.1c0.91-0.58,1.58-1.27,2.38-1.47
		c7.22-1.77,9.8-6.83,6.82-13.7c-2.98-6.86-6.05-13.68-9.04-20.53c-0.71-1.63-1.28-3.33-1.91-5c0.39-0.39,0.77-0.79,1.16-1.18
		c1.36,1.06,3.3,1.85,3.97,3.24c2.82,5.83,5.24,11.85,7.84,17.78C958.42,613.43,959.09,614.51,959.88,615.99z"/>
	<path class="st0" d="M368.66,595.4c4.12-3.31,8.52-6.04,14.38-3.89c4.03,1.47,6.59,4.18,6.85,8.31c0.41,6.63,0.35,13.29,0.26,19.94
		c-0.01,0.99-1.25,1.97-1.92,2.95c-0.79-1.01-2.21-2-2.26-3.04c-0.24-5.31-0.06-10.64-0.14-15.96c-0.09-5.81-2.23-8.56-6.99-9.22
		c-5.27-0.73-9.94,1.9-10.82,7.17c-0.9,5.35-0.53,10.9-1.03,16.33c-0.15,1.63-1.38,3.16-2.11,4.74c-0.68-1.62-1.91-3.23-1.96-4.87
		c-0.22-7.14-0.2-14.3-0.01-21.44c0.04-1.55,1.11-3.07,1.71-4.6C365.8,592.86,366.99,593.92,368.66,595.4z"/>
	<path class="st0" d="M225.63,595.43c4.09-3.27,8.33-5.95,14.04-4.03c4.48,1.5,7.07,4.44,7.29,9.03c0.31,6.3,0.32,12.63,0.19,18.94
		c-0.02,1.13-1.33,2.23-2.05,3.35c-0.75-1.22-2.1-2.42-2.16-3.67c-0.25-5.31-0.02-10.64-0.14-15.96c-0.13-5.35-2.44-8.04-7.09-8.63
		c-4.86-0.62-9.64,1.78-10.52,6.34c-0.97,4.99-0.82,10.2-1.12,15.32c-0.09,1.49,0.2,3.06-0.18,4.46c-0.23,0.84-1.31,1.68-2.2,2.01
		c-0.34,0.12-1.74-1.18-1.75-1.85c-0.12-8.98-0.12-17.95-0.01-26.93c0.01-0.68,1.15-1.35,1.76-2.02
		C222.89,592.88,224.07,593.98,225.63,595.43z"/>
	<path class="st0" d="M188.63,595.43c4.09-3.27,8.33-5.95,14.04-4.03c4.48,1.5,7.07,4.44,7.29,9.03c0.31,6.3,0.32,12.63,0.19,18.94
		c-0.02,1.13-1.33,2.23-2.05,3.35c-0.75-1.22-2.1-2.42-2.16-3.67c-0.25-5.31-0.02-10.64-0.14-15.96c-0.13-5.35-2.44-8.04-7.08-8.64
		c-4.86-0.62-9.64,1.78-10.53,6.34c-0.97,4.99-0.82,10.2-1.12,15.32c-0.09,1.49,0.2,3.06-0.18,4.46c-0.23,0.84-1.31,1.68-2.19,2.01
		c-0.34,0.12-1.74-1.18-1.75-1.85c-0.12-8.98-0.12-17.95-0.01-26.93c0.01-0.68,1.15-1.35,1.76-2.02
		C185.89,592.88,187.07,593.98,188.63,595.43z"/>
	<path class="st0" d="M658.33,618.48c2.56,0.57,5.09,1.45,7.67,1.61c2.75,0.17,5.69,0.1,8.25-0.76c1.48-0.5,3.22-2.72,3.29-4.23
		c0.07-1.51-1.45-3.85-2.89-4.52c-2.96-1.37-6.34-1.82-9.51-2.74c-4.06-1.18-7.45-3-7.33-8.05c0.12-5.08,3.14-7.73,7.72-8.19
		c4.2-0.43,8.52-0.08,12.75,0.27c1.02,0.08,1.94,1.51,2.9,2.32c-0.22,0.44-0.43,0.88-0.65,1.31c-2.01-0.37-4.02-0.97-6.04-1.05
		c-2.61-0.11-5.42-0.34-7.79,0.49c-1.82,0.64-4.28,2.83-4.29,4.35c-0.01,1.59,2.27,3.84,4.07,4.65c3.13,1.41,6.71,1.78,10.01,2.87
		c3.61,1.19,5.91,3.54,5.84,7.71c-0.07,4.04-2.09,7.2-5.81,7.67c-5.45,0.7-11.06,0.34-16.58,0.11c-0.91-0.04-1.74-1.77-2.6-2.72
		C657.67,619.21,658,618.85,658.33,618.48z"/>
	<path class="st0" d="M339.72,594.32c-2.17,0.17-4.35,0.61-6.49,0.45c-3.59-0.26-5.25,0.97-5.08,4.74
		c0.19,3.98-0.06,7.98,0.07,11.97c0.21,6.59,1.29,7.61,7.96,8.15c1.21,0.1,2.4,0.45,3.59,1.31c-3.19,2.84-6.71,1.84-10.24,1.09
		c-4-0.85-5.32-3.87-5.58-7.31c-0.31-4.3-0.05-8.64-0.13-12.96c-0.06-3.28,1.43-7.3-2.64-7.62c0.99-3.21,1.72-5.98,2.73-8.65
		c0.39-1.04,1.39-1.84,2.11-2.75c0.69,0.77,2.07,1.63,1.98,2.29c-0.9,6.85,3.23,7.19,8.24,6.75c1.15-0.1,2.35,0.42,3.53,0.66
		C339.75,593.05,339.74,593.68,339.72,594.32z"/>
	<path class="st0" d="M316.6,619.48c-2.87,4.92-7.3,4.46-11.18,4.23c-8.47-0.49-14.2-6.26-14.65-14.1
		c-0.61-10.74,3.14-16.24,12.52-18.34c6.28-1.41,11.2-0.04,12.9,4.23c-6.52-1.08-13.42-3.39-17.93,2.92
		c-1.87,2.62-2.99,6.45-2.89,9.68C295.68,617.83,300.16,620.14,316.6,619.48z"/>
	<path class="st0" d="M930.85,600.28c0-5.98-0.1-11.96,0.08-17.94c0.04-1.18,1.19-2.33,1.82-3.5c0.83,1.16,2.36,2.31,2.38,3.48
		c0.17,12.12,0.15,24.25-0.01,36.37c-0.01,1.11-1.38,2.2-2.12,3.3c-0.72-1.09-2.02-2.17-2.06-3.28
		C930.75,612.57,930.85,606.42,930.85,600.28z"/>
	<path class="st0" d="M914.85,600.25c0-5.98-0.1-11.96,0.09-17.94c0.04-1.18,1.2-2.32,1.85-3.48c0.82,1.17,2.33,2.33,2.35,3.51
		c0.18,11.96,0.17,23.92,0.01,35.87c-0.02,1.27-1.41,2.52-2.16,3.77c-0.71-1.27-1.99-2.52-2.04-3.81
		C914.72,612.21,914.85,606.23,914.85,600.25z"/>
	<path class="st0" d="M789.85,600.18c0-5.81-0.12-11.63,0.09-17.44c0.05-1.33,1.25-2.61,1.92-3.92c0.79,1.2,2.26,2.39,2.28,3.6
		c0.17,11.96,0.17,23.92,0,35.87c-0.02,1.24-1.45,2.46-2.23,3.69c-0.69-1.29-1.92-2.56-1.97-3.88
		C789.73,612.14,789.85,606.16,789.85,600.18z"/>
	<path class="st0" d="M612.23,600.04c0,6.15,0.13,12.3-0.11,18.43c-0.05,1.19-1.55,2.32-2.39,3.48c-0.63-1.17-1.79-2.34-1.8-3.53
		c-0.13-12.12-0.14-24.25,0.01-36.37c0.01-1.09,1.36-2.16,2.09-3.24c0.73,1.1,2.06,2.17,2.1,3.3
		C612.34,588.08,612.23,594.06,612.23,600.04z"/>
	<path class="st0" d="M351.21,606.97c0,4.32,0.13,8.64-0.1,12.94c-0.05,0.97-1.34,1.87-2.06,2.81c-0.73-0.91-2.08-1.81-2.1-2.73
		c-0.16-8.46-0.16-16.93,0-25.4c0.02-0.95,1.32-1.87,2.02-2.81c0.74,0.91,2.08,1.79,2.13,2.74
		C351.34,598.66,351.21,602.82,351.21,606.97z"/>
	<path class="st0" d="M352.39,581.43c-1.72,1.24-2.63,1.9-3.54,2.55c-0.66-0.96-1.74-1.87-1.83-2.88c-0.07-0.71,1.29-2.22,1.88-2.16
		C349.85,579.05,350.7,580.15,352.39,581.43z"/>
</g>
</svg>
