<svg width="1920" height="400" viewBox="0 0 1920 400" fill="none" xmlns="http://www.w3.org/2000/svg">
<g opacity="0.12">
<path d="M794.942 240.208C762.373 240.208 727.712 237.152 686.729 230.706C577.636 213.544 497.889 166.913 420.738 121.831C391.183 104.543 360.624 86.7113 329.311 71.1398C274.974 44.0152 220.135 25.8903 153.197 25.8903C100.744 25.8903 40.9236 37.0248 -31.9163 63.6889L-32.0001 63.5214C9.23402 48.4104 46.5749 38.1131 82.1158 32.0435C115.396 26.3507 146.165 24.4671 176.18 26.3926C203.474 28.1088 229.763 32.9644 256.513 41.1688C279.411 48.2011 303.273 57.9542 329.395 71.0142C360.707 86.5438 391.267 104.418 420.821 121.705C497.973 166.787 577.72 213.418 686.771 230.58C752.578 240.961 839.399 249.082 927.645 219.823C984.242 201.07 1039.58 171.224 1092.12 131.165C1153.95 84.0323 1217.83 46.15 1282.05 18.565C1341.7 -7.09454 1401.36 -23.7962 1459.42 -31.0797C1483.15 -34.0517 1506.39 -35.5586 1529.2 -35.5586C1584.79 -35.5586 1637.79 -26.6427 1689.83 -8.64332C1764.47 17.1836 1838.35 62.0982 1915.63 128.654L1915.5 128.821C1785.52 16.8487 1663.91 -35.3912 1529.37 -35.3912C1506.47 -35.3912 1483.2 -33.8842 1459.46 -30.8704C1338.52 -15.6338 1211.55 40.4572 1092.29 131.333C1065.16 152.011 1037.16 170.094 1008.98 185.08C982.526 199.144 955.19 210.907 927.77 220.032C888.964 232.924 848.274 239.538 803.398 240.25C800.552 240.208 797.747 240.208 794.942 240.208Z" fill="white"/>
<path d="M754.462 247.952C737.885 247.952 720.428 247.282 701.632 245.985C646.458 242.134 594.884 230.037 539.291 207.977C490.229 188.513 445.771 164.36 398.677 138.826C377.955 127.566 356.48 115.929 334.795 104.837C226.791 49.2479 132.183 28.6115 -31.7904 87.8L-31.8741 87.4232C10.1554 72.2703 47.9568 62.1823 83.6232 56.6151C116.987 51.4246 147.84 50.2944 177.98 53.1827C205.107 55.7779 231.647 61.6382 259.109 71.1401C282.049 79.0515 306.162 89.6836 334.963 104.502C356.647 115.594 378.122 127.231 398.844 138.491C492.322 189.224 580.567 237.111 701.674 245.566C766.56 250.087 851.791 250.254 935.766 211.033C989.098 186.085 1042.64 152.514 1094.88 111.157C1157.59 61.5126 1223.36 24.3838 1290.38 0.817192C1321.27 -10.0661 1352.38 -17.9775 1382.81 -22.7075C1411.99 -27.2283 1440.75 -28.9026 1468.29 -27.605C1549.84 -23.7958 1621.26 -8.97779 1693.05 18.984C1765.81 47.3224 1839.61 89.3906 1925.34 151.342L1925.13 151.635C1757.48 30.4951 1629.42 -19.6518 1468.29 -27.1864C1462.06 -27.4794 1455.78 -27.6469 1449.5 -27.6469C1334.08 -27.6469 1209.04 21.2862 1095.18 111.492C1042.93 152.849 989.35 186.503 935.976 211.409C899.598 228.404 860.75 239.204 817.213 244.394C797.245 246.78 776.649 247.952 754.462 247.952Z" fill="white"/>
<path d="M687.776 262.266C571.609 262.266 478.089 212.203 379.462 159.377C366.694 152.554 353.508 145.48 340.321 138.573C238.513 84.7004 146.5 48.5343 -31.5808 111.909L-31.7901 111.365C50.4687 82.0633 117.699 72.1427 179.739 80.0122C235.666 87.1282 284.477 108.351 340.572 138.029C353.759 144.935 366.946 152.009 379.713 158.832C478.257 211.575 571.734 261.638 687.776 261.638C697.237 261.638 706.823 261.303 716.577 260.633C795.612 255.066 872.471 246.401 943.93 202.366C993.703 171.683 1044.02 135.308 1097.69 91.2304C1159.27 40.6648 1226.92 5.71265 1298.75 -12.6634C1357.32 -27.6489 1417.39 -31.4999 1477.21 -24.0072C1551.89 -14.7145 1619.58 5.33592 1696.69 40.9578C1769.07 74.4031 1844.3 119.108 1935.14 174.111L1934.85 174.613C1753 64.5244 1633.61 -3.95676 1477.17 -23.463C1382.56 -35.2672 1239.98 -24.8444 1098.07 91.649C1044.36 135.768 994.038 172.144 944.223 202.826C911.361 223.086 874.355 237.485 831.07 246.862C791.468 255.443 751.239 258.75 716.619 261.219C706.865 261.931 697.237 262.266 687.776 262.266Z" fill="white"/>
<path d="M681.287 279.221C632.392 279.221 583.372 271.435 532.76 255.738C467.163 235.395 404.16 203.582 345.847 172.272C228.256 108.604 144.197 74.3636 -31.3719 136.064L-31.6231 135.352C51.7242 106.093 119.457 97.0512 181.58 106.93C240.647 116.306 291.091 141.798 346.223 171.644C465.321 235.604 584.418 291.737 731.521 275.747C821.901 265.952 894.03 239.12 952.092 193.703C999.355 156.742 1045.61 118.022 1100.53 71.3079C1162.78 18.3564 1232.36 -15.0888 1307.25 -28.107C1381.09 -40.9158 1445.35 -31.0371 1486.21 -20.4468C1595.09 7.6824 1680.07 54.2714 1787.66 113.251C1833.54 138.408 1885.53 166.914 1944.89 196.885L1944.56 197.554C1885.15 167.542 1833.16 139.036 1787.28 113.92C1679.74 54.983 1594.8 8.43586 1486 -19.6933C1406.55 -40.246 1250.9 -55.6082 1101 71.894C1046.03 118.65 999.773 157.328 952.511 194.331C894.365 239.832 822.069 266.705 731.563 276.542C714.777 278.3 698.032 279.221 681.287 279.221Z" fill="white"/>
<path d="M658.849 300.483C621.76 300.483 584.377 295.795 546.073 286.419C486.922 271.936 425.05 246.402 351.331 205.966C236.21 142.299 152.989 96.2956 -31.2041 160.172L-31.4971 159.293C54.0688 129.657 120.336 121.746 183.381 133.759C243.285 145.145 296.031 174.321 351.833 205.171C505.802 289.6 623.769 315.218 746.383 290.814C833.707 273.442 905.668 237.821 960.172 185.036C1002.29 144.224 1051.56 96.9235 1103.3 51.381C1166.43 -4.16574 1237.84 -36.0622 1315.66 -43.3875C1391.18 -50.5035 1454.98 -32.8809 1495.21 -16.849C1568.8 12.4941 1629.55 47.9905 1693.85 85.5798C1764.34 126.769 1844.21 173.483 1954.69 219.654L1954.31 220.533C1843.75 174.321 1763.84 127.606 1693.34 86.4169C1629.08 48.8695 1568.38 13.3731 1494.83 -15.9281C1429.95 -41.7969 1261.91 -86.9626 1103.93 52.1345C1052.23 97.677 1002.95 144.978 960.842 185.79C906.17 238.7 834.084 274.363 746.55 291.819C717.289 297.553 688.153 300.483 658.849 300.483Z" fill="white"/>
<path d="M640.262 324.552C551.096 324.552 458.706 296.59 356.856 239.704L347.898 234.639C228.256 167.163 149.179 122.583 -31.0374 184.283L-31.4141 183.195C149.304 121.327 228.549 165.991 348.484 233.635L357.442 238.7C505.717 321.58 634.024 342.928 761.285 305.883C846.935 280.935 916.593 237.36 968.334 176.372C1017.86 118.02 1061.64 71.9337 1106.14 31.4143C1170.19 -26.8951 1243.49 -57.201 1324.04 -58.6242C1326 -58.666 1327.97 -58.666 1329.9 -58.666C1409.06 -58.666 1472.86 -30.4113 1504.21 -13.291C1556.58 15.2987 1601.54 45.8138 1644.99 75.3243C1729.34 132.587 1816.54 191.776 1964.44 242.341L1964.06 243.43C1816.04 192.822 1728.76 133.55 1644.32 76.2871C1600.87 46.8184 1555.99 16.3033 1503.67 -12.2445C1452.64 -40.0807 1273.3 -119.194 1106.9 32.2934C1062.4 72.7709 1018.65 118.816 969.172 177.125C917.305 238.281 847.437 281.982 761.578 306.971C721.432 318.65 681.203 324.552 640.262 324.552Z" fill="white"/>
<path d="M624.984 350.673C607.611 350.673 590.196 349.584 572.656 347.449C504.756 339.078 434.009 314.172 362.383 273.401C354.681 269.006 347.187 264.653 339.819 260.425C223.15 193.074 146.082 148.62 -30.8686 208.436L-31.2872 207.18C52.1857 178.967 116.318 172.144 176.683 185.037C232.611 197.009 280.208 224.468 340.489 259.295C347.815 263.522 355.308 267.876 363.011 272.271C507.519 354.482 646.501 370.849 776.063 320.995C858.992 289.098 928.274 236.105 976.373 167.791C1020.71 104.835 1064.07 53.7255 1108.91 11.5318C1173.96 -49.666 1249.06 -78.3393 1332.24 -73.7348C1394.11 -70.2605 1460.09 -46.9033 1513.21 -9.64883C1553.11 18.3129 1587.47 46.1491 1620.71 73.0225C1712.1 146.987 1798.46 216.85 1974.2 265.113L1973.86 266.411C1797.87 218.064 1711.43 148.117 1619.92 74.069C1586.72 47.1956 1552.35 19.4012 1512.5 -8.56051C1411.99 -79.0509 1246.22 -115.845 1109.87 12.4945C1065.12 54.6046 1021.79 105.672 977.545 168.544C929.278 237.068 859.829 290.228 776.65 322.209C727.378 341.171 676.557 350.673 624.984 350.673Z" fill="white"/>
<path d="M613.471 378.718C604.303 378.718 595.093 378.425 585.884 377.797C514.007 372.941 440.664 349.166 367.908 307.139C355.685 300.023 344.005 293.117 332.744 286.419C214.777 216.515 143.57 174.321 -30.7018 232.547L-31.2042 231.082C51.0965 203.58 114.099 197.176 173.041 210.278C227.796 222.459 274.43 250.086 333.456 285.08C344.759 291.777 356.396 298.684 368.62 305.758C512.709 389.015 658.765 399.48 790.924 336.022C872.513 296.842 939.408 235.686 984.494 159.084C1025.1 90.059 1066.71 35.2657 1111.71 -8.47686C1176.85 -71.8094 1255.93 -99.6456 1340.36 -88.9297C1431.5 -77.4185 1497.93 -27.1459 1522.29 -6.0909C1554.74 21.9964 1582.83 49.0373 1609.95 75.1991C1708.54 170.261 1786.4 245.314 1983.95 287.8L1983.61 289.307C1892.86 269.801 1821.23 242.007 1758.27 201.822C1701.42 165.572 1656.46 122.207 1608.87 76.3293C1581.74 50.1674 1553.69 23.1685 1521.29 -4.91886C1440.54 -74.8232 1263.63 -153.978 1112.8 -7.38854C1067.88 36.2703 1026.36 90.9799 985.833 159.838C940.622 236.691 873.476 298.056 791.635 337.361C734.452 364.863 674.673 378.718 613.471 378.718Z" fill="white"/>
<path d="M604.722 408.146C602.796 408.146 600.871 408.146 598.987 408.104C523.552 407.015 447.656 384.37 373.393 340.837C356.773 331.083 341.326 321.665 326.423 312.54C211.135 242.301 141.561 199.898 -30.534 256.658L-31.0782 255.026C141.77 197.972 211.596 240.543 327.302 311.075C342.247 320.158 357.652 329.576 374.272 339.33C518.863 424.094 672.12 428.28 805.785 351.134C886.16 304.754 950.753 235.352 992.615 150.504C1029.75 75.1999 1069.6 16.6812 1114.52 -28.359C1168.48 -82.5244 1230.81 -109.649 1299.51 -109.063C1395.54 -108.226 1482.19 -53.4325 1531.3 -2.40649C1559.22 26.6017 1583.33 54.0612 1606.65 80.5997C1706.15 193.87 1778.03 275.746 1993.66 310.573L1993.41 312.247C1893.86 296.173 1818.13 268.63 1754.96 225.599C1697.19 186.252 1654.66 137.779 1605.39 81.688C1582.07 55.1495 1557.96 27.6901 1530.08 -1.27629C1481.23 -51.9674 1394.99 -106.51 1299.51 -107.347C1298.79 -107.347 1298.04 -107.347 1297.33 -107.347C1229.89 -107.347 1168.81 -80.3478 1115.77 -27.1451C1070.98 17.7695 1031.21 76.1627 994.164 151.299C952.177 236.482 887.332 306.094 806.664 352.683C742.867 389.477 674.966 408.146 604.722 408.146Z" fill="white"/>
<path d="M598.275 438.576C524.179 438.576 450.46 417.061 378.876 374.532C357.987 362.1 339.065 350.254 320.771 338.743C208.037 267.959 139.928 225.263 -30.3671 280.81L-30.9532 279.01C140.179 223.17 208.581 266.076 321.818 337.152C340.112 348.622 358.991 360.468 379.881 372.9C527.779 460.803 684.301 458.459 820.646 366.286C898.844 313.418 962.809 233.719 1000.74 141.922C1034.48 60.2555 1072.61 -1.94681 1117.32 -48.2846C1170.82 -103.706 1232.86 -130.37 1301.64 -127.565C1403.53 -123.379 1493.91 -55.5681 1540.34 1.23447C1565.37 31.8333 1586.93 60.5485 1607.78 88.301C1703.14 215.301 1772.09 307.056 2003.37 333.301L2003.16 335.185C1771.04 308.856 1701.92 216.808 1606.23 89.4312C1585.38 61.6787 1563.82 33.0054 1538.83 2.40651C1492.66 -54.0611 1402.78 -121.538 1301.51 -125.682C1233.24 -128.486 1171.74 -102.031 1118.66 -46.987C1074.12 -0.858475 1036.11 61.1765 1002.45 142.634C964.358 234.807 900.142 314.758 821.65 367.835C756.388 411.954 685.85 435.646 611.964 438.325C607.443 438.493 602.88 438.576 598.275 438.576Z" fill="white"/>
<path d="M594.382 470.013C523.635 470.013 452.637 449.292 384.444 408.271C359.369 393.201 337.266 378.886 315.874 365.072C205.358 293.619 138.672 250.505 -30.1573 304.963L-30.7852 302.954C139.007 248.202 206.028 291.526 317.046 363.314C338.396 377.128 360.499 391.402 385.532 406.471C494.416 471.98 610.415 485.417 721.015 445.274C849.95 398.476 957.577 281.857 1008.9 133.341C1039.75 44.0565 1078.43 -25.0526 1123.89 -72.102C1163.83 -113.459 1209.13 -137.946 1258.44 -144.937C1312.23 -152.555 1370.8 -138.993 1427.81 -105.673C1474.99 -78.1297 1519.32 -37.8196 1549.46 4.91837C1572.61 37.7357 1592.41 68.3346 1611.59 97.887C1705.65 243.012 1767.77 338.911 2013.21 356.073L2013.04 358.166C1766.56 340.92 1704.23 244.686 1609.83 99.0172C1590.7 69.4648 1570.9 38.9078 1547.75 6.09041C1489.14 -77.0414 1373.69 -159.127 1258.73 -142.885C1154.08 -128.067 1068.39 -32.336 1010.91 133.969C959.377 283.071 851.289 400.192 721.768 447.199C679.781 462.436 637.123 470.013 594.382 470.013Z" fill="white"/>
</g>
</svg>
