<svg width="26" height="26" viewBox="0 0 26 26" fill="none" xmlns="http://www.w3.org/2000/svg">
<path d="M11.1851 21.1544C5.45873 21.1544 0.799988 16.4992 0.799988 10.7771C0.799988 5.0551 5.45873 0.399902 11.1851 0.399902C16.9115 0.399902 21.5703 5.0551 21.5703 10.7771C21.5703 16.4992 16.9115 21.1544 11.1851 21.1544ZM11.1851 2.36715C6.5443 2.36715 2.76874 6.13984 2.76874 10.7771C2.76874 15.4144 6.5443 19.1871 11.1851 19.1871C15.826 19.1871 19.6015 15.4144 19.6015 10.7771C19.6015 6.13984 15.826 2.36715 11.1851 2.36715ZM25.7117 25.3118C26.0961 24.9277 26.0961 24.3049 25.7117 23.9208L21.3066 19.519C20.9222 19.1349 20.2989 19.1349 19.9145 19.519C19.5301 19.9032 19.5301 20.526 19.9145 20.9101L24.3195 25.3118C24.5117 25.5039 24.7637 25.5999 25.0156 25.5999C25.2676 25.5999 25.5194 25.5039 25.7117 25.3118Z" fill="white"/>
</svg>
