<?xml version="1.0" standalone="no"?>
<!DOCTYPE svg PUBLIC "-//W3C//DTD SVG 1.1//EN" "http://www.w3.org/Graphics/SVG/1.1/DTD/svg11.dtd">
<svg xmlns="http://www.w3.org/2000/svg">
<metadata>Copyright (C) 2022 by original authors @ fontello.com</metadata>
<defs>
<font id="listygo-fonts" horiz-adv-x="1000" >
<font-face font-family="listygo-fonts" font-weight="400" font-stretch="normal" units-per-em="1000" ascent="850" descent="-150" />
<missing-glyph horiz-adv-x="1000" />
<glyph glyph-name="check-icon" unicode="&#xe800;" d="M875 819l-581-639-169 128h-94l263-427 675 938h-94z" horiz-adv-x="1000" />

<glyph glyph-name="email-icon" unicode="&#xe801;" d="M1423 850h-1346c-42 0-77-35-77-77v-846c0-42 35-77 77-77h1346c42 0 77 35 77 77v846c0 42-35 77-77 77z m-29-58l-600-450c-10-8-27-13-44-13-17 0-33 5-44 13l-600 450h1288z m-320-479l327-404c0-1 0-1 1-1h-1304c1 0 1 0 1 1l327 404c10 12 8 30-4 40-12 10-31 8-41-4l-323-400v807l613-460c23-17 51-25 79-25 28 0 56 8 79 25l613 460v-807l-323 400c-10 12-29 14-41 4-12-10-14-28-4-40z" horiz-adv-x="1500" />

<glyph glyph-name="cog" unicode="&#xe802;" d="M571 350q0 59-41 101t-101 42-101-42-42-101 42-101 101-42 101 42 41 101z m286 61v-124q0-7-4-13t-11-7l-104-16q-10-30-21-51 19-27 59-77 6-6 6-13t-5-13q-15-21-55-61t-53-39q-7 0-14 5l-77 60q-25-13-51-21-9-76-16-104-4-16-20-16h-124q-8 0-14 5t-6 12l-16 103q-27 9-50 21l-79-60q-6-5-14-5-8 0-14 6-70 64-92 94-4 5-4 13 0 6 5 12 8 12 28 37t30 40q-15 28-23 55l-102 15q-7 1-11 7t-5 13v124q0 7 5 13t10 7l104 16q8 25 22 51-23 32-60 77-6 7-6 14 0 5 5 12 15 20 55 60t53 40q7 0 15-5l77-60q24 13 50 21 9 76 17 104 3 16 20 16h124q7 0 13-5t7-12l15-103q28-9 51-20l79 59q5 5 13 5 7 0 14-5 72-67 92-95 4-5 4-12 0-7-4-13-9-12-29-37t-30-40q15-28 23-54l102-16q7-1 12-7t4-13z" horiz-adv-x="857.1" />

<glyph glyph-name="button-arrow-icon-left" unicode="&#xe803;" d="M938 350c0 116-47 227-129 309-82 82-193 129-309 129-116 0-227-47-309-129-82-82-128-193-128-309 0-116 46-227 128-309 82-82 193-129 309-129 116 0 227 47 309 129 82 82 129 193 129 309v0z m-938 0c0 133 53 260 146 354 94 93 221 146 354 146 133 0 260-53 354-146 93-94 146-221 146-354 0-133-53-260-146-354-94-93-221-146-354-146-133 0-260 53-354 146-93 94-146 221-146 354v0z m719-31c8 0 16 3 22 9 6 6 9 14 9 22 0 8-3 16-9 22-6 6-14 9-22 9l-362 0 134 134c3 3 5 7 7 11 1 3 2 7 2 12 0 4-1 8-2 12-2 3-4 7-7 10-3 3-6 5-10 6-4 2-8 3-12 3-4 0-8-1-12-3-4-1-7-3-10-6l-188-188c-3-3-5-6-7-10-1-4-2-8-2-12 0-4 1-8 2-12 2-4 4-7 7-10l188-188c3-2 6-5 10-6 4-2 8-3 12-3 4 0 8 1 12 3 4 1 7 4 10 6 3 3 5 7 7 11 1 3 2 7 2 12 0 4-1 8-2 12-2 3-4 7-7 10l-134 134 362 0z" horiz-adv-x="1000" />

<glyph glyph-name="button-arrow-icon-right" unicode="&#xe804;" d="M63 350c0-116 46-227 128-309 82-82 193-129 309-129 116 0 227 47 309 129 82 82 129 193 129 309 0 116-47 227-129 309-82 82-193 129-309 129-116 0-227-47-309-129-82-82-128-193-128-309z m937 0c0-133-53-260-146-354-94-93-221-146-354-146-133 0-260 53-354 146-93 94-146 221-146 354 0 133 53 260 146 354 94 93 221 146 354 146 133 0 260-53 354-146 93-94 146-221 146-354z m-719 31c-8 0-16-3-22-9-6-6-9-14-9-22 0-8 3-16 9-22 6-6 14-9 22-9h362l-134-134c-3-3-5-7-7-10-1-4-2-8-2-12 0-5 1-9 2-12 2-4 4-8 7-11 3-2 7-5 10-6 4-2 8-3 12-3 4 0 8 1 12 3 4 1 8 4 10 6l188 188c3 3 5 6 7 10 1 4 2 8 2 12 0 4-1 8-2 12-2 4-4 7-7 10l-188 188c-2 3-6 5-10 6-4 2-8 3-12 3-4 0-8-1-12-3-3-1-7-3-10-6-3-3-5-7-7-10-1-4-2-8-2-12 0-5 1-9 2-12 2-4 4-8 7-11l134-134h-362z" horiz-adv-x="1000" />

<glyph glyph-name="home-icon" unicode="&#xe805;" d="M490 840c-4 3-8 6-12 7-4 2-9 3-14 3-4 0-9-1-13-3-5-1-9-4-12-7l-429-429c-3-3-5-7-7-12-2-4-3-9-3-13v-500c0-10 4-19 11-26 6-6 15-10 25-10h321c10 0 19 4 25 10 7 7 11 16 11 26v285h143v-285c0-10 4-19 10-26 7-6 16-10 25-10h322c9 0 18 4 25 10 7 7 11 16 11 26v500c0 4-1 9-3 13-2 5-5 9-8 12l-97 97v235c0 9-3 18-10 25-7 7-16 11-25 11h-72c-9 0-18-4-25-11-7-7-10-16-10-25v-93l-189 190z m-419-919v450l393 393 393-393v-450h-250v286c0 10-4 19-10 25-7 7-16 11-26 11h-214c-9 0-18-4-25-11-7-6-11-15-11-25v-286h-250z" horiz-adv-x="955" />

<glyph glyph-name="icon-cafe" unicode="&#xe806;" d="M946-105v44c0 23-18 41-41 41h-167c34 26 65 57 90 92h121c95 0 172 77 172 171 0 95-77 172-172 172h-46v45c0 23-18 42-41 42h-740c-23 0-41-19-41-42v-152c0-131 61-251 165-328h-168c-22 0-41-19-41-42v-43h83 744 82v0z m-126 413c0-181-147-328-328-328-181 0-328 148-328 328v111h656v-111z m129-154h-76c20 49 30 101 30 154v25h46c49 0 89-40 89-90 0-49-40-89-89-89z m-617 509c12-6 20-14 21-21 0-8-8-15-12-18-18-13-23-39-9-57 7-11 21-17 34-17 8 0 17 2 24 8 32 23 48 56 45 91-4 37-28 69-67 88-12 6-19 14-20 21 0 7 8 14 12 17 18 14 23 39 9 57-7 12-20 18-33 18-9 0-17-3-25-8-32-23-48-57-45-91 4-37 28-69 66-88z m207 0c12-6 20-14 20-21 1-8-7-14-11-18-19-13-22-39-9-57 7-11 20-17 34-17 8 0 16 2 24 8 32 23 48 56 45 91-4 37-28 69-67 88-12 6-19 14-20 21-1 7 8 14 12 17 18 14 22 39 9 57-8 12-20 18-34 18-9 0-17-3-24-8-32-23-48-57-45-91 3-37 27-69 66-88z" horiz-adv-x="1158" />

<glyph glyph-name="icon-restaurant" unicode="&#xe807;" d="M668 552c-5 0-9 1-11 4-3 3-5 7-5 11 0 4 2 8 5 11l164 164c3 3 7 5 11 5 4 0 8-2 11-5 3-2 4-7 4-11 0-4-1-8-4-11l-164-164c-4-3-7-4-11-4z m44-44c-4 0-8 1-11 4-2 3-4 7-4 11 0 4 2 8 4 11l164 164c3 3 8 5 11 5 4 0 9-2 12-5 2-2 4-7 4-11 0-4-2-8-4-11l-165-163c-2-4-7-5-11-5z m58-560c-25 0-48 10-66 27-2 2-225 253-225 253 0 0-223-251-225-253-17-17-40-27-66-27-24 0-48 10-66 27-17 18-27 42-27 66 0 25 10 49 27 67 2 1 192 170 192 170 5 5 12 7 18 7 8 0 15-3 21-9 9-11 8-28-3-38l-187-166c-11-10-14-19-14-31 0-11 3-20 11-28 8-7 18-11 28-11 11 0 21 4 28 11l372 419c5 5 12 8 20 8 4 0 8-1 12-2 10-5 20-8 31-8 19 0 38 8 52 22l204 204c5 5 11 8 19 8 7 0 13-3 18-8 11-11 11-28 0-38l-204-204c-23-24-55-37-89-37-13 0-24 2-36 5l-39-44c0 0 258-229 260-230 36-37 36-96 0-133-18-18-41-27-66-27z m-31 68c10-10 20-14 31-14 11 0 21 4 28 11 8 8 12 18 12 28 0 11-4 21-12 29l-257 227-26-29 224-252z m-319 293c-8 0-15 3-20 9-1 0-40 44-55 61-21-10-45-15-69-15-46 0-88 17-121 50-50 51-86 109-100 165-15 61-5 113 30 147 23 24 56 37 95 37 17 0 34-2 52-7 56-14 114-49 165-100 51-51 64-126 35-190l47-42 50 44c-12 44 0 93 32 125l204 204c5 5 12 8 19 8 7 0 14-3 19-8 5-5 7-12 7-19 0-7-2-14-7-19l-204-204c-22-22-27-55-14-83 5-11 3-24-7-32l-140-125c-5-4-12-6-18-6z m-68 130c8 0 15-4 20-9l50-57 16 15-57 51c-10 9-12 23-5 34 29 47 22 106-17 145-43 43-94 74-140 86-14 3-27 5-38 5-25 0-44-7-58-21-21-20-26-54-16-96 12-46 43-97 86-140 22-22 52-35 83-35 21 0 43 6 62 18 4 3 9 4 14 4z" horiz-adv-x="1000" />

<glyph glyph-name="r-cat7" unicode="&#xe808;" d="M417 850c-5 0-9 0-14 0-22-1-43-3-64-6-30-52-24-125-2-186 59-7 124-15 187-26-9 36-15 72-9 109 5 32 21 64 49 93-45 10-96 16-147 16z m-131-20c-66-22-115-64-134-141 6-3 18-6 33-9 27-5 63-10 105-16-17 53-22 113-4 166z m328-9c-37-28-51-56-56-87-6-33 2-70 13-110 22-5 44-9 64-15 40-10 76-22 109-36 3 28 7 58 24 86 15 25 40 47 79 64-62 40-134 72-233 98z m275-128c-49-15-71-35-84-56-14-22-16-50-20-81 14-6 26-13 38-18 49-26 82-48 96-60h0c54-47 90-40 116-21 24 18 35 53 33 70-65 66-119 121-179 166z m-690-59c0-10 0-19 1-28 3-17 7-30 14-41 7-10 17-18 34-24 12-3 25-7 37-11 34 5 69 7 103 7 76-1 148-13 203-29 86-22 153-54 210-93 42-1 83 2 120 9-10 6-20 13-30 22h0c-9 7-41 30-88 54-47 24-108 50-178 68-96 25-220 39-320 51-40 5-76 10-106 15z m189-140c-22 0-43-1-64-3-40-63-62-125-14-224 64-9 132-19 194-32-8 44-3 86 13 124 16 38 42 72 75 104-4 2-8 3-12 4h0l-1 0c-50 15-119 26-191 27z m-117-9c-4-1-9-2-13-2-55-11-106-31-145-61-36-28-63-64-75-113 0 0 0 0 1-1 7-3 20-6 37-9 33-7 80-13 134-20 16-2 33-4 50-6-32 85-19 154 11 212z m369-36c-39-35-68-70-83-107-16-36-19-74-6-117 2-1 5-2 7-2 70-18 125-39 167-58 3 28 12 60 36 86 23 26 59 44 110 52-6 6-12 11-18 17-59 53-124 98-213 129z m271-185c-65-2-99-20-118-41-20-22-26-52-27-80 28-15 47-29 57-38 59-50 127-57 178-46 26 6 46 16 58 27 9 8 12 13 12 18-61 56-110 110-160 160z m-815-12c1-8 3-16 5-24 9-33 25-57 64-69 172-52 337-109 483-132 83-13 159-15 226 0-27 9-54 24-79 46-21 17-96 70-248 109-102 26-235 42-343 55-40 5-77 10-108 15z m-15-162c-36-1-70-34-81-54 26-14 97-23 128 33-14 15-29 21-44 21h-3z m85-56c-48-2-64-104-37-123 27-3 80 98 46 122-2 1-5 1-7 1h-2z m205-27c-8 0-16-2-21-8-20-52 92-86 116-61 6 22-56 69-95 69z m177-89c-38 1-96-18-95-47 23-51 127 3 126 38-4 6-16 9-31 9z" horiz-adv-x="1071" />

<glyph glyph-name="login-icon" unicode="&#xe809;" d="M445 522c21 21 55 21 76 0l137-137c21-21 21-55 0-76l-137-137c-21-21-55-21-76 0-21 21-21 55 0 76l99 99-99 99c-21 21-21 55 0 76z m-427-175c0 29 24 53 53 53h545c30 0 54-24 54-53 0-30-24-54-54-54h-545c-29 0-53 24-53 54z m428 432c0 29 24 53 54 53 131 0 251-44 340-128 89-85 142-207 142-354 0-147-53-269-142-354-89-84-209-128-340-128-30 0-54 24-54 53 0 30 24 54 54 54 106 0 200 36 266 99 66 63 109 156 109 276 0 121-43 213-109 276-66 63-160 99-266 99-30 0-54 24-54 54z" horiz-adv-x="1000" />

<glyph glyph-name="cafe-small-icon" unicode="&#xe80a;" d="M895-90v43c0 22-18 40-40 40h-165c34 26 64 56 88 90h120c93 0 169 76 169 169 0 94-76 169-169 169h-45v45c0 23-18 41-41 41h-728c-23 0-41-18-41-41v-149c0-129 61-248 162-324h-164c-23 0-41-18-41-41v-43h82 732 81v1z m-124 407c0-179-145-324-323-324-179 0-323 146-323 324v109h646v-109z m127-153h-75c19 49 30 100 30 153v23h45c48 0 88-39 88-88 0-48-40-88-88-88z m-608 502c12-6 20-14 20-21 1-8-7-15-11-17-18-14-23-39-9-57 8-10 20-17 33-17 9 0 17 3 24 8 32 23 48 56 44 90-3 37-27 68-65 87-12 6-19 13-20 20 0 8 8 15 11 17 18 14 23 39 9 57-7 11-19 17-32 17-9 0-17-3-24-8-32-22-48-56-45-90 4-36 28-68 65-86z m204 0c12-6 19-14 20-21 1-8-8-14-11-17-18-14-22-39-9-57 7-10 19-17 33-17 8 0 17 3 24 8 31 23 47 56 45 90-4 37-28 68-66 87-12 6-20 13-20 20-1 8 7 15 11 17 18 14 23 39 9 57-8 11-20 17-33 17-9 0-17-3-23-8-32-22-48-56-45-90 3-36 27-68 65-86z" horiz-adv-x="1067" />

<glyph glyph-name="phone-icon" unicode="&#xe80b;" d="M971 96l-152 136c-32 28-79 29-112 3-17-13-37-30-62-50-19-15-44-16-65-3-56 36-101 72-139 109-37 38-73 83-109 139-13 21-12 46 3 65 20 25 37 45 50 62 26 33 25 80-3 112l-136 152c-17 19-39 29-63 29-25 1-47-9-64-26l-76-78v0c-57-60-58-156-1-278 48-105 135-222 244-332 110-109 227-196 332-244 61-28 115-42 161-42 47 0 87 14 117 43l78 76c17 17 27 39 26 64 0 24-10 46-29 63z m-19-105l-78-75c-62-60-166-31-243 4-101 47-216 131-323 238-107 107-191 222-238 323-35 77-64 181-4 243l75 78c11 11 25 17 41 17 16-1 30-7 40-19l137-152c18-20 19-50 2-72-13-16-30-37-50-62-24-29-26-69-5-101 37-58 74-105 113-144 39-39 86-76 144-113 32-21 72-19 101 5 25 20 46 37 62 50 22 17 52 16 72-2l152-137c12-10 18-24 19-40 0-16-6-30-17-41z m-807 498c4-8 1-17-7-21-2-1-5-2-7-2-6 0-11 3-14 9-26 51-66 147-36 204 4 7 8 12 13 18 6 6 16 6 22 0 6-6 7-16 1-22-4-3-6-7-8-10-25-48 21-147 36-176z" horiz-adv-x="1000" />

<glyph glyph-name="museum-small-icon" unicode="&#xe80c;" d="M498 725l-374-149c0 0 0 0 0 0-1-1-1-1-2-2 0-1-1-2-1-3 0 0 0 0 0 0v-138c0-1 0-2 1-3 1 0 2-1 3-1h750c1 0 2 1 3 1 1 1 1 2 1 3v138c0 0 0 0 0 0 0 1 0 2-1 3-1 1-1 1-2 2 0 0 0 0 0 0l-374 149c0 0-1 0-2 0-1 0-2 0-2 0z m2 75c9 0 19-1 29-5l375-150c16-6 28-17 36-29 8-12 14-28 14-44v-139c0-43-35-79-79-79h-750c-44 0-79 36-79 79v139c0 16 6 32 14 44 8 12 20 23 36 29l0 0 375 150c10 4 20 5 29 5z m-378-739c-1-1-1-2-1-3v-87h758v87c0 1 0 2-1 3-1 1-2 2-3 2h-750c-1 0-2-1-3-2z m-76-3c0 44 35 80 79 80h750c44 0 79-36 79-80v-125c0-20-17-37-37-37h-834c-20 0-37 17-37 37v125z m121 371c20 0 37-17 37-37v-292c0-21-17-37-37-37-21 0-38 16-38 37v292c0 20 17 37 38 37z m166 0c21 0 38-17 38-37v-292c0-21-17-37-38-37-20 0-37 16-37 37v292c0 20 17 37 37 37z m167 0c21 0 38-17 38-37v-292c0-21-17-37-38-37-21 0-37 16-37 37v292c0 20 16 37 37 37z m167 0c20 0 37-17 37-37v-292c0-21-17-37-37-37-21 0-38 16-38 37v292c0 20 17 37 38 37z m166 0c21 0 38-17 38-37v-292c0-21-17-37-38-37-20 0-37 16-37 37v292c0 20 17 37 37 37z m-829-496c0 21 17 38 38 38h916c21 0 38-17 38-38 0-20-17-37-38-37h-916c-21 0-38 17-38 37z m496 650c-14 0-25-11-25-25 0-13 11-25 25-25 14 0 25 12 25 25 0 14-11 25-25 25z m-100-25c0 56 45 100 100 100 55 0 100-44 100-100 0-55-45-100-100-100-55 0-100 45-100 100z" horiz-adv-x="1000" />

<glyph glyph-name="icon-home" unicode="&#xe80d;" d="M83-67h834m-794 0l2 502c0 25 12 49 32 65l292 227c30 23 72 23 102 0l292-227c20-15 32-40 32-65v-502m-333 209h-84c-34 0-62-28-62-63v-146h208v146c0 35-28 63-62 63z m-146 135h-83c-23 0-42 19-42 42v62c0 23 19 42 42 42h83c23 0 42-19 42-42v-62c0-23-19-42-42-42z m292 0h-84c-23 0-41 19-41 42v62c0 23 18 42 41 42h84c22 0 41-19 41-42v-62c0-23-19-42-41-42z m104 281l-2 125h-183" horiz-adv-x="1000" />

<glyph glyph-name="icon" unicode="&#xe80e;" d="M347 288c9 19 14 40 14 62 0 22-5 43-14 62m0-124c-23-46-70-77-125-77-76 0-139 62-139 139 0 77 63 139 139 139 55 0 102-31 125-77m0-124l307-154m-307 278l307 154m0 0c22-46 69-77 124-77 77 0 139 62 139 139 0 77-62 139-139 139-77 0-139-62-139-139 0-23 5-44 15-62z m0-432c-10-18-15-39-15-62 0-77 62-139 139-139 77 0 139 62 139 139 0 77-62 139-139 139-55 0-102-31-124-77z" horiz-adv-x="1000" />

<glyph glyph-name="star-icon" unicode="&#xe80f;" d="M504 850l66-139c59-129 163-233 291-295l139-69-139-65c-128-60-232-164-294-293l-68-139-66 139c-60 129-163 233-291 295l-142 69 139 65c128 60 232 164 294 293l71 139z" horiz-adv-x="1000" />

<glyph glyph-name="restaurant-small-icon" unicode="&#xe810;" d="M685 570c-4 0-9 2-12 5-3 3-5 8-5 12 0 5 2 10 5 13l182 181c3 3 8 5 12 5 4 0 9-2 12-5 3-3 5-8 5-12 0-4-2-9-5-12l-181-182c-4-3-8-5-13-5z m50-48c-5 0-9 1-12 4-3 3-5 8-5 13 0 4 2 9 5 12l181 181c3 3 8 5 12 5 5 0 10-2 13-5 3-3 4-7 4-12 0-5-1-9-4-13l-182-180c-3-4-8-5-12-5z m64-620c-28 0-54 11-73 31-2 2-249 280-249 280 0 0-247-278-249-280-19-20-45-31-73-31-27 0-53 11-73 31-19 19-30 45-30 73 0 27 11 54 30 73 2 2 213 189 213 189 5 5 12 7 19 7 9 0 17-3 23-9 11-13 10-31-3-42l-207-184c-11-11-16-22-16-34 0-12 5-23 13-31 9-9 20-13 31-13 12 0 23 4 31 13l411 462c6 7 14 10 23 10 4 0 8-1 12-3 11-5 23-8 35-8 21 0 42 9 57 24l226 225c5 6 13 9 21 9 8 0 15-3 20-9 12-11 12-30 0-42l-225-225c-26-26-62-41-99-41-14 0-27 2-39 6l-44-49c0 0 285-253 287-255 41-40 41-106 0-146-19-20-45-31-72-31z m-34 76c11-12 22-16 34-16 11 0 22 4 31 13 8 8 13 19 13 31 0 12-5 23-13 31l-285 252-28-32 248-279z m-354 324c-8 0-16 3-22 9 0 1-44 50-60 68-24-11-50-17-77-17-50 0-97 20-133 56-56 56-95 121-111 183-17 67-6 124 33 163 26 26 62 40 105 40 18 0 37-3 57-8 63-15 127-54 183-111 56-56 71-139 39-210l52-45 55 48c-14 48 0 102 36 138l225 226c6 5 13 8 21 8 8 0 15-3 21-8 5-6 8-13 8-21 0-8-3-15-8-21l-225-226c-25-24-31-61-16-92 5-12 3-26-7-35l-156-138c-5-5-13-7-20-7z m-75 143c9 0 17-3 22-9l56-63 18 16-63 57c-11 10-14 26-6 38 32 51 24 117-19 159-48 49-103 83-155 96-15 3-30 5-42 5-27 0-49-8-64-23-23-22-29-60-17-106 12-51 47-107 95-155 24-24 57-38 91-38 24 0 48 6 68 19 5 3 11 4 16 4z" horiz-adv-x="1000" />

<glyph glyph-name="d-book" unicode="&#xe811;" d="M891 850h-721c-45 0-88-16-120-45-32-29-50-68-50-109v-808c0-10 5-20 12-27 8-7 19-11 30-11h764c11 0 22 4 30 11 8 7 13 17 13 27 0 11-5 20-13 28-8 7-19 11-30 11h-721c0 20 9 40 25 54 16 15 37 23 60 23h721c11 0 22 4 30 11 8 7 12 17 12 27v770c0 10-4 20-12 27-8 7-19 11-30 11z m-42-769h-679c-30 0-59-7-85-21v636c0 21 9 40 25 55 16 14 37 22 60 22h679v-692z" horiz-adv-x="933" />

<glyph glyph-name="share-icon" unicode="&#xe812;" d="M769 156c-36 0-70-13-96-34l-266 191c4 25 4 49 0 74l266 191c26-21 60-34 96-34 85 0 154 69 154 153 0 84-69 153-154 153-85 0-154-69-154-153 0-15 2-29 6-42l-252-182c-37 49-97 81-164 81-113 0-205-91-205-204 0-113 92-204 205-204 67 0 127 32 164 81l252-181c-4-14-6-28-6-43 0-84 69-153 154-153 85 0 154 69 154 153 0 85-69 153-154 153z m0 607c37 0 67-29 67-66 0-37-30-66-67-66-37 0-66 29-66 66 0 37 29 66 66 66z m-564-525c-62 0-113 50-113 112 0 62 51 112 113 112 62 0 113-50 113-112 0-62-51-112-113-112z m564-301c-37 0-66 29-66 66 0 37 29 66 66 66 37 0 67-29 67-66 0-37-30-66-67-66z" horiz-adv-x="923" />

<glyph glyph-name="check" unicode="&#xe813;" d="M500-150c-191 0-366 109-450 281-85 173-60 390 64 538 123 149 324 214 511 165 20-5 33-26 27-47-5-20-26-32-47-27-158 41-327-14-432-140-104-126-126-309-54-456 72-146 230-241 392-237 163 4 310 103 376 251 38 87 46 186 23 278-6 20 7 41 27 47 21 5 42-7 47-28 28-108 19-225-27-328-78-175-252-292-444-297-4 0-9 0-13 0z m-1 380c-9 0-19 4-27 11-15 15-15 40 0 55l462 461c15 15 40 15 55 0 15-15 15-39 0-54l-462-462c-8-7-18-11-28-11z m0 0c-9 0-19 4-27 11l-163 164c-15 15-15 39 0 54 15 15 39 15 54 0l164-163c15-15 15-40 0-55-8-7-18-11-28-11z" horiz-adv-x="1000" />

<glyph glyph-name="d-brain" unicode="&#xe814;" d="M269 370c-7-32-34-56-67-56-9 0-16-7-16-16 0-9 7-16 16-16 50 0 92 38 99 87 31 4 59 18 81 41 6 6 6 16 0 22-6 7-16 7-22 0-20-20-46-31-74-31-56 0-102 47-102 105 0 9-7 16-16 16-9 0-16-7-16-16 0-70 51-128 117-136z m67-141c0 9-7 16-16 16-74 0-134-61-134-137 0-1 0-1 0-2-6 1-12 1-18 1-9 0-16-7-16-16 0-9 7-16 16-16 57 0 103-47 103-105 0-9 7-16 15-16 9 0 16 7 16 16 0 57-35 107-84 127 0 4 0 7 0 11 0 58 46 105 102 105 9 0 16 7 16 16z m541 138c0 37-14 72-40 98 4 13 6 27 6 41 0 66-47 122-108 134 4 12 7 25 7 38 0 43-25 79-61 95-60 48-125 77-175 77-28 0-52-14-67-35-16 21-40 35-68 35-50 0-115-29-175-77-36-16-61-52-61-95 0-13 3-26 7-38-61-12-108-68-108-134 0-14 2-28 6-41-26-26-40-61-40-98 0-29 9-55 24-77-16-23-24-50-24-78 0-50 27-96 69-120-1-6-1-12-1-18 0-68 43-127 105-148 27-47 76-76 130-76 59 0 111 35 136 86 24-51 76-86 135-86 54 0 103 29 130 76 62 21 105 80 105 148 0 6 0 12-1 18 42 24 69 70 69 120 0 28-8 55-24 78 15 22 24 48 24 77z m-574-485c-44 0-85 25-105 66-2 4-6 7-10 8-52 14-89 63-89 118 0 8 1 16 3 24 1 8-3 15-9 18-37 17-61 55-61 96 0 19 5 37 14 52 23-21 54-34 88-34 9 0 16 7 16 16 0 9-7 17-16 17-56 0-102 47-102 104 0 31 13 61 37 81 5 4 7 12 4 18-5 13-7 26-7 40 0 57 46 104 102 104 57 0 103-47 103-104 0-9 7-17 15-17 9 0 16 8 16 17 0 72-55 132-125 136-7 11-10 24-10 36 0 29 17 54 42 65 1 0 1 0 2 1 8 3 16 5 25 5 26 0 50-16 61-40 4-8 14-11 22-8 8 4 11 14 7 22-13 28-38 48-67 55 40 25 80 40 112 40 28 0 52-24 52-53v-210c-15 12-33 19-52 19-9 0-16-8-16-17 0-9 7-16 16-16 28 0 52-24 52-53v-389c-20 26-48 46-80 54-9 3-18-2-20-11-2-9 3-17 11-20 52-14 89-63 89-118 0-67-54-122-120-122z m481 234c-6-3-10-10-9-18 2-8 3-16 3-24 0-55-37-104-89-118-4-1-8-4-10-8-20-41-61-66-105-66-66 0-120 55-120 122 0 5 0 10 0 14 0 1 0 3 0 4v535c0 30 24 53 52 53 9 0 16 8 16 17 0 8-7 16-16 16-19 0-37-7-52-19v141c0 29 24 53 52 53 32 0 72-15 112-40-29-7-54-27-67-55-4-8-1-18 7-22 8-3 18 0 22 8 11 24 35 40 61 40 9 0 17-2 25-5 1-1 2-1 2-1 25-11 42-36 42-65 0-12-3-25-10-36-70-4-125-64-125-136 0-9 7-17 16-17 8 0 16 8 16 17 0 57 45 104 102 104 56 0 102-47 102-104 0-14-2-27-7-40-3-6-1-14 4-18 24-20 37-50 37-81 0-57-46-104-102-104-9 0-16-8-16-17 0-9 7-16 16-16 34 0 65 13 88 34 10-15 14-33 14-52 0-41-24-79-61-96z m-75 216c-33 0-60 23-67 55 66 9 117 66 117 136 0 9-7 16-16 16-9 0-16-7-16-16 0-58-46-105-103-105-27 0-53 11-73 32-6 6-16 6-22 0-6-6-7-17 0-23 22-23 50-37 81-40 7-50 49-88 99-88 9 0 16 8 16 16 0 9-7 17-16 17z m-51-190c-6 0-12-1-18-2 0 1 0 2 0 3 0 75-60 137-134 137-9 0-16-7-16-16 0-9 7-17 16-17 57 0 103-47 103-104 0-4-1-8-1-11-49-21-84-70-84-128 0-9 7-16 16-16 9 0 16 7 16 16 0 58 46 105 102 105 9 0 16 7 16 16 0 9-7 17-16 17z" horiz-adv-x="877" />

<glyph glyph-name="element4" unicode="&#xe815;" d="M0 841c0-5 4-10 9-10 4 0 8 5 8 10 0 5-4 9-8 9-5 0-9-4-9-9z m96 0c0-5 4-10 9-10 4 0 8 5 8 10 0 5-4 9-8 9-5 0-9-4-9-9z m95 0c0-5 4-10 9-10 5 0 9 5 9 10 0 5-4 9-9 9-5 0-9-4-9-9z m96 0c0-5 4-10 9-10 5 0 9 5 9 10 0 5-4 9-9 9-5 0-9-4-9-9z m96 0c0-5 4-10 8-10 5 0 9 5 9 10 0 5-4 9-9 9-4 0-8-4-8-9z m-383-88c0-5 4-10 9-10 4 0 8 5 8 10 0 5-4 9-8 9-5 0-9-4-9-9z m96 0c0-5 4-10 9-10 4 0 8 5 8 10 0 5-4 9-8 9-5 0-9-4-9-9z m95 0c0-5 4-10 9-10 5 0 9 5 9 10 0 5-4 9-9 9-5 0-9-4-9-9z m96 0c0-5 4-10 9-10 5 0 9 5 9 10 0 5-4 9-9 9-5 0-9-4-9-9z m96 0c0-5 4-10 8-10 5 0 9 5 9 10 0 5-4 9-9 9-4 0-8-4-8-9z m-383-88c0-5 4-10 9-10 4 0 8 5 8 10 0 5-4 9-8 9-5 0-9-4-9-9z m96 0c0-5 4-10 9-10 4 0 8 5 8 10 0 5-4 9-8 9-5 0-9-4-9-9z m95 0c0-5 4-10 9-10 5 0 9 5 9 10 0 5-4 9-9 9-5 0-9-4-9-9z m96 0c0-5 4-10 9-10 5 0 9 5 9 10 0 5-4 9-9 9-5 0-9-4-9-9z m96 0c0-5 4-10 8-10 5 0 9 5 9 10 0 5-4 9-9 9-4 0-8-4-8-9z m-383-88c0-6 4-10 9-10 4 0 8 4 8 10 0 5-4 9-8 9-5 0-9-4-9-9z m96 0c0-6 4-10 9-10 4 0 8 4 8 10 0 5-4 9-8 9-5 0-9-4-9-9z m95 0c0-6 4-10 9-10 5 0 9 4 9 10 0 5-4 9-9 9-5 0-9-4-9-9z m96 0c0-6 4-10 9-10 5 0 9 4 9 10 0 5-4 9-9 9-5 0-9-4-9-9z m96 0c0-6 4-10 8-10 5 0 9 4 9 10 0 5-4 9-9 9-4 0-8-4-8-9z m-383-88c0-6 4-10 9-10 4 0 8 4 8 10 0 5-4 9-8 9-5 0-9-4-9-9z m96 0c0-6 4-10 9-10 4 0 8 4 8 10 0 5-4 9-8 9-5 0-9-4-9-9z m95 0c0-6 4-10 9-10 5 0 9 4 9 10 0 5-4 9-9 9-5 0-9-4-9-9z m105-10c5 0 9 4 9 10 0 5-4 9-9 9-5 0-9-4-9-9 0-6 4-10 9-10z m95 0c5 0 9 4 9 10 0 5-4 9-9 9-4 0-8-4-8-9 0-6 4-10 8-10z m-391-78c0-6 4-10 9-10 4 0 8 4 8 10 0 5-4 9-8 9-5 0-9-4-9-9z m96 0c0-6 4-10 9-10 4 0 8 4 8 10 0 5-4 9-8 9-5 0-9-4-9-9z m95 0c0-6 4-10 9-10 5 0 9 4 9 10 0 5-4 9-9 9-5 0-9-4-9-9z m96 0c0-6 4-10 9-10 5 0 9 4 9 10 0 5-4 9-9 9-5 0-9-4-9-9z m96 0c0-6 4-10 8-10 5 0 9 4 9 10 0 5-4 9-9 9-4 0-8-4-8-9z m1 440c0-5 3-10 8-10 5 0 9 5 9 10 0 5-4 9-9 9-5 0-8-4-8-9z m96 0c0-5 3-10 8-10 5 0 9 5 9 10 0 5-4 9-9 9-5 0-8-4-8-9z m95 0c0-5 4-10 9-10 4 0 8 5 8 10 0 5-4 9-8 9-5 0-9-4-9-9z m96 0c0-5 4-10 9-10 4 0 8 5 8 10 0 5-4 9-8 9-5 0-9-4-9-9z m95 0c0-5 4-10 9-10 5 0 9 5 9 10 0 5-4 9-9 9-5 0-9-4-9-9z m-382-88c0-5 3-10 8-10 5 0 9 5 9 10 0 5-4 9-9 9-5 0-8-4-8-9z m96 0c0-5 3-10 8-10 5 0 9 5 9 10 0 5-4 9-9 9-5 0-8-4-8-9z m95 0c0-5 4-10 9-10 4 0 8 5 8 10 0 5-4 9-8 9-5 0-9-4-9-9z m96 0c0-5 4-10 9-10 4 0 8 5 8 10 0 5-4 9-8 9-5 0-9-4-9-9z m95 0c0-5 4-10 9-10 5 0 9 5 9 10 0 5-4 9-9 9-5 0-9-4-9-9z m-382-88c0-5 3-10 8-10 5 0 9 5 9 10 0 5-4 9-9 9-5 0-8-4-8-9z m96 0c0-5 3-10 8-10 5 0 9 5 9 10 0 5-4 9-9 9-5 0-8-4-8-9z m95 0c0-5 4-10 9-10 4 0 8 5 8 10 0 5-4 9-8 9-5 0-9-4-9-9z m96 0c0-5 4-10 9-10 4 0 8 5 8 10 0 5-4 9-8 9-5 0-9-4-9-9z m95 0c0-5 4-10 9-10 5 0 9 5 9 10 0 5-4 9-9 9-5 0-9-4-9-9z m-382-88c0-6 3-10 8-10 5 0 9 4 9 10 0 5-4 9-9 9-5 0-8-4-8-9z m96 0c0-6 3-10 8-10 5 0 9 4 9 10 0 5-4 9-9 9-5 0-8-4-8-9z m95 0c0-6 4-10 9-10 4 0 8 4 8 10 0 5-4 9-8 9-5 0-9-4-9-9z m96 0c0-6 4-10 9-10 4 0 8 4 8 10 0 5-4 9-8 9-5 0-9-4-9-9z m95 0c0-6 4-10 9-10 5 0 9 4 9 10 0 5-4 9-9 9-5 0-9-4-9-9z m-382-88c0-6 3-10 8-10 5 0 9 4 9 10 0 5-4 9-9 9-5 0-8-4-8-9z m96 0c0-6 3-10 8-10 5 0 9 4 9 10 0 5-4 9-9 9-5 0-8-4-8-9z m95 0c0-6 4-10 9-10 4 0 8 4 8 10 0 5-4 9-8 9-5 0-9-4-9-9z m105-10c4 0 8 4 8 10 0 5-4 9-8 9-5 0-9-4-9-9 0-6 4-10 9-10z m95 0c5 0 9 4 9 10 0 5-4 9-9 9-5 0-9-4-9-9 0-6 4-10 9-10z m-391-78c0-6 3-10 8-10 5 0 9 4 9 10 0 5-4 9-9 9-5 0-8-4-8-9z m96 0c0-6 3-10 8-10 5 0 9 4 9 10 0 5-4 9-9 9-5 0-8-4-8-9z m95 0c0-6 4-10 9-10 4 0 8 4 8 10 0 5-4 9-8 9-5 0-9-4-9-9z m96 0c0-6 4-10 9-10 4 0 8 4 8 10 0 5-4 9-8 9-5 0-9-4-9-9z m95 0c0-6 4-10 9-10 5 0 9 4 9 10 0 5-4 9-9 9-5 0-9-4-9-9z m-766-102c0-5 4-9 9-9 4 0 8 4 8 9 0 6-4 10-8 10-5 0-9-4-9-10z m96 0c0-5 4-9 9-9 4 0 8 4 8 9 0 6-4 10-8 10-5 0-9-4-9-10z m95 0c0-5 4-9 9-9 5 0 9 4 9 9 0 6-4 10-9 10-5 0-9-4-9-10z m96 0c0-5 4-9 9-9 5 0 9 4 9 9 0 6-4 10-9 10-5 0-9-4-9-10z m96 0c0-5 4-9 8-9 5 0 9 4 9 9 0 6-4 10-9 10-4 0-8-4-8-10z m-383-88c0-5 4-9 9-9 4 0 8 4 8 9 0 6-4 10-8 10-5 0-9-4-9-10z m96 0c0-5 4-9 9-9 4 0 8 4 8 9 0 6-4 10-8 10-5 0-9-4-9-10z m95 0c0-5 4-9 9-9 5 0 9 4 9 9 0 6-4 10-9 10-5 0-9-4-9-10z m96 0c0-5 4-9 9-9 5 0 9 4 9 9 0 6-4 10-9 10-5 0-9-4-9-10z m96 0c0-5 4-9 8-9 5 0 9 4 9 9 0 6-4 10-9 10-4 0-8-4-8-10z m-383-88c0-5 4-9 9-9 4 0 8 4 8 9 0 6-4 10-8 10-5 0-9-4-9-10z m96 0c0-5 4-9 9-9 4 0 8 4 8 9 0 6-4 10-8 10-5 0-9-4-9-10z m95 0c0-5 4-9 9-9 5 0 9 4 9 9 0 6-4 10-9 10-5 0-9-4-9-10z m96 0c0-5 4-9 9-9 5 0 9 4 9 9 0 6-4 10-9 10-5 0-9-4-9-10z m96 0c0-5 4-9 8-9 5 0 9 4 9 9 0 6-4 10-9 10-4 0-8-4-8-10z m-383-88c0-5 4-9 9-9 4 0 8 4 8 9 0 6-4 10-8 10-5 0-9-4-9-10z m96 0c0-5 4-9 9-9 4 0 8 4 8 9 0 6-4 10-8 10-5 0-9-4-9-10z m95 0c0-5 4-9 9-9 5 0 9 4 9 9 0 6-4 10-9 10-5 0-9-4-9-10z m96 0c0-5 4-9 9-9 5 0 9 4 9 9 0 6-4 10-9 10-5 0-9-4-9-10z m96 0c0-5 4-9 8-9 5 0 9 4 9 9 0 6-4 10-9 10-4 0-8-4-8-10z m-383-88c0-5 4-9 9-9 4 0 8 4 8 9 0 5-4 10-8 10-5 0-9-5-9-10z m96 0c0-5 4-9 9-9 4 0 8 4 8 9 0 5-4 10-8 10-5 0-9-5-9-10z m95 0c0-5 4-9 9-9 5 0 9 4 9 9 0 5-4 10-9 10-5 0-9-5-9-10z m105-9c5 0 9 4 9 9 0 5-4 10-9 10-5 0-9-5-9-10 0-5 4-9 9-9z m95 0c5 0 9 4 9 9 0 5-4 10-9 10-4 0-8-5-8-10 0-5 4-9 8-9z m-391-79c0-5 4-9 9-9 4 0 8 4 8 9 0 5-4 10-8 10-5 0-9-5-9-10z m96 0c0-5 4-9 9-9 4 0 8 4 8 9 0 5-4 10-8 10-5 0-9-5-9-10z m95 0c0-5 4-9 9-9 5 0 9 4 9 9 0 5-4 10-9 10-5 0-9-5-9-10z m96 0c0-5 4-9 9-9 5 0 9 4 9 9 0 5-4 10-9 10-5 0-9-5-9-10z m96 0c0-5 4-9 8-9 5 0 9 4 9 9 0 5-4 10-9 10-4 0-8-5-8-10z m1 440c0-5 3-9 8-9 5 0 9 4 9 9 0 6-4 10-9 10-5 0-8-4-8-10z m96 0c0-5 3-9 8-9 5 0 9 4 9 9 0 6-4 10-9 10-5 0-8-4-8-10z m95 0c0-5 4-9 9-9 4 0 8 4 8 9 0 6-4 10-8 10-5 0-9-4-9-10z m96 0c0-5 4-9 9-9 4 0 8 4 8 9 0 6-4 10-8 10-5 0-9-4-9-10z m95 0c0-5 4-9 9-9 5 0 9 4 9 9 0 6-4 10-9 10-5 0-9-4-9-10z m-382-88c0-5 3-9 8-9 5 0 9 4 9 9 0 6-4 10-9 10-5 0-8-4-8-10z m96 0c0-5 3-9 8-9 5 0 9 4 9 9 0 6-4 10-9 10-5 0-8-4-8-10z m95 0c0-5 4-9 9-9 4 0 8 4 8 9 0 6-4 10-8 10-5 0-9-4-9-10z m96 0c0-5 4-9 9-9 4 0 8 4 8 9 0 6-4 10-8 10-5 0-9-4-9-10z m95 0c0-5 4-9 9-9 5 0 9 4 9 9 0 6-4 10-9 10-5 0-9-4-9-10z m-382-88c0-5 3-9 8-9 5 0 9 4 9 9 0 6-4 10-9 10-5 0-8-4-8-10z m96 0c0-5 3-9 8-9 5 0 9 4 9 9 0 6-4 10-9 10-5 0-8-4-8-10z m95 0c0-5 4-9 9-9 4 0 8 4 8 9 0 6-4 10-8 10-5 0-9-4-9-10z m96 0c0-5 4-9 9-9 4 0 8 4 8 9 0 6-4 10-8 10-5 0-9-4-9-10z m95 0c0-5 4-9 9-9 5 0 9 4 9 9 0 6-4 10-9 10-5 0-9-4-9-10z m-382-88c0-5 3-9 8-9 5 0 9 4 9 9 0 6-4 10-9 10-5 0-8-4-8-10z m96 0c0-5 3-9 8-9 5 0 9 4 9 9 0 6-4 10-9 10-5 0-8-4-8-10z m95 0c0-5 4-9 9-9 4 0 8 4 8 9 0 6-4 10-8 10-5 0-9-4-9-10z m96 0c0-5 4-9 9-9 4 0 8 4 8 9 0 6-4 10-8 10-5 0-9-4-9-10z m95 0c0-5 4-9 9-9 5 0 9 4 9 9 0 6-4 10-9 10-5 0-9-4-9-10z m-382-88c0-5 3-9 8-9 5 0 9 4 9 9 0 5-4 10-9 10-5 0-8-5-8-10z m96 0c0-5 3-9 8-9 5 0 9 4 9 9 0 5-4 10-9 10-5 0-8-5-8-10z m95 0c0-5 4-9 9-9 4 0 8 4 8 9 0 5-4 10-8 10-5 0-9-5-9-10z m105-9c4 0 8 4 8 9 0 5-4 10-8 10-5 0-9-5-9-10 0-5 4-9 9-9z m95 0c5 0 9 4 9 9 0 5-4 10-9 10-5 0-9-5-9-10 0-5 4-9 9-9z m-391-79c0-5 3-9 8-9 5 0 9 4 9 9 0 5-4 10-9 10-5 0-8-5-8-10z m96 0c0-5 3-9 8-9 5 0 9 4 9 9 0 5-4 10-9 10-5 0-8-5-8-10z m95 0c0-5 4-9 9-9 4 0 8 4 8 9 0 5-4 10-8 10-5 0-9-5-9-10z m96 0c0-5 4-9 9-9 4 0 8 4 8 9 0 5-4 10-8 10-5 0-9-5-9-10z m95 0c0-5 4-9 9-9 5 0 9 4 9 9 0 5-4 10-9 10-5 0-9-5-9-10z" horiz-adv-x="784" />

<glyph glyph-name="element5" unicode="&#xe816;" d="M568 699c3-28 6-56 9-85 3-28 6-56 9-84 3-28 6-56 9-84 3-28 6-57 9-85 3-28 6-56 9-84 0-3 1-7 1-11 0-4 1-7 4-11 2-4 4-7 8-9 3-3 7-5 11-6 4-1 8-1 13-1 7 2 16 5 20 12 5 7 8 15 7 24-3 28-6 56-9 84-4 27-6 56-9 84-3 28-6 56-9 84-3 28-6 57-9 85-3 28-6 56-9 84 0 4-1 7-1 11-1 4-2 8-4 11-2 4-5 7-8 10-4 3-8 5-12 5-4 2-8 2-12 1-8-1-16-5-21-12-5-7-7-14-6-23z m-291-256c7-22 14-43 21-64 7-22 15-43 23-64 9-21 18-42 28-62 11-22 24-43 38-64 13-18 26-36 42-52 4-4 7-8 11-12 4-2 7-4 11-5 4-1 9-2 13-1 4 1 8 2 11 4 4 2 7 5 10 8 1 3 3 5 4 8 2 5 3 11 2 16 0 3-1 5-2 8-2 5-5 10-10 13 0 1-1 1-1 1 2-2 4-3 6-5-21 21-39 45-55 71-5 7-9 14-13 21 1-2 3-4 4-7-15 26-27 53-39 80-11 27-21 55-30 83-5 16-10 31-16 47-1 4-3 7-6 10-3 4-7 6-11 8-4 1-8 2-12 2-4 0-8-1-12-2-7-4-14-10-17-17-1-3-2-6-2-9-1-5 0-10 2-16z m-200-350c1 1 2 2 3 2-2-1-5-2-7-3 1 0 2 1 4 1-3-1-6-1-8-2 1 0 3 0 4 0-2 0-5 1-8 0 2 0 5 0 7-1-3 1-5 2-8 2 4-1 8-3 11-4-2 1-5 2-7 4 8-5 15-11 22-17 9-6 18-13 26-20 18-13 36-26 54-38 40-26 80-50 122-72 22-11 45-23 68-33 4-1 8-2 12-2 4 0 8 0 12 2 4 1 7 4 10 7 3 3 6 6 7 10 3 8 4 17 0 24-3 8-9 14-17 18-33 15-66 31-98 49-9 5-18 10-27 16 2-2 4-3 7-5-28 17-56 35-83 54-13 9-26 19-39 29-7 5-13 10-20 15-5 4-10 8-15 12-5 3-10 6-16 8-5 2-11 4-16 5-13 2-28-1-38-10-4-2-6-5-8-9-3-4-4-8-5-12 0-4 0-8 1-12 1-4 2-8 5-11 6-7 13-12 21-13 8 0 17 1 24 6z" horiz-adv-x="835" />

<glyph glyph-name="element6" unicode="&#xe817;" d="M25 448c3-5 2-12-3-15-5-4-12-2-16 3-3 5-2 12 3 15 5 4 12 2 16-3z m48 33c3-5 2-12-3-15-5-4-12-3-16 2-3 6-2 12 3 16 5 3 12 2 16-3z m47 33c4-6 3-12-2-16-6-3-12-2-16 3-3 5-2 12 3 16 5 3 12 2 15-3z m48 32c4-5 3-12-2-15-6-4-12-2-16 3-3 5-2 12 3 15 5 4 12 3 15-3z m48 33c4-5 3-12-2-15-6-4-12-3-16 3-3 5-2 12 3 15 5 4 12 2 15-3z m48 33c4-5 3-12-3-16-5-3-11-2-15 3-4 5-2 12 3 16 5 3 12 2 15-3z m48 32c4-5 2-11-3-15-5-4-12-2-15 3-4 5-2 12 3 15 5 4 12 3 15-3z m48 33c4-5 2-12-3-15-5-4-12-2-15 3-4 5-2 12 3 15 5 4 12 2 15-3z m48 33c4-5 2-12-3-15-5-4-12-3-15 2-4 6-2 12 3 16 5 3 12 2 15-3z m48 33c4-5 2-12-3-16-5-3-12-2-15 3-4 5-3 12 3 16 5 3 12 2 15-3z m48 32c3-5 2-12-3-15-5-4-12-2-16 3-3 5-2 12 3 15 6 4 12 3 16-3z m48 33c3-5 2-12-3-15-5-4-12-3-16 3-3 5-2 11 3 15 6 4 12 2 16-3z m48 33c3-5 2-12-3-16-5-3-12-2-16 3-3 5-2 12 3 16 6 3 12 2 16-3z m-545-456c5 3 6 10 2 15-3 5-10 7-15 3-5-3-6-10-3-15 4-5 10-7 16-3z m48 33c5 3 6 10 2 15-3 5-10 6-15 3-5-4-6-10-3-16 4-5 10-6 16-2z m47 32c5 4 7 11 3 16-3 5-10 6-15 3-5-4-7-11-3-16 3-5 10-6 15-3z m48 33c5 3 7 10 3 15-3 5-10 7-15 3-5-3-7-10-3-15 3-5 10-7 15-3z m48 33c5 3 7 10 3 15-3 5-10 7-15 3-5-3-7-10-3-15 3-5 10-7 15-3z m48 32c5 4 7 11 3 16-3 5-10 6-15 3-5-4-7-11-3-16 3-5 10-6 15-3z m48 33c5 3 6 10 3 15-4 6-10 7-16 3-5-3-6-10-2-15 3-5 10-6 15-3z m48 33c5 3 6 10 3 15-4 5-10 7-16 3-5-3-6-10-2-15 3-5 10-7 15-3z m48 33c5 3 6 10 3 15-4 5-11 6-16 3-5-4-6-10-3-16 4-5 11-6 16-2z m48 32c5 4 6 11 3 16-4 5-11 6-16 3-5-4-6-11-3-16 4-5 11-6 16-3z m51 48c3-5 2-12-3-15-5-4-12-2-16 3-3 5-2 12 3 15 5 4 12 3 16-3z m45 18c5 3 6 10 3 15-4 5-11 7-16 3-5-3-6-10-3-15 4-6 11-7 16-3z m48 32c5 4 6 11 3 16-4 5-11 6-16 3-5-4-6-11-3-16 4-5 11-6 16-3z m-543-440c5 4 7 10 3 16-3 5-10 6-15 2-5-3-7-10-3-15 3-5 10-6 15-3z m48 33c5 3 7 10 3 15-3 5-10 7-15 3-5-3-7-10-3-15 3-5 10-7 15-3z m48 32c5 4 6 11 3 16-4 5-11 6-16 3-5-4-6-11-3-16 4-5 11-6 16-3z m48 33c5 4 6 11 3 16-4 5-11 6-16 3-5-4-6-11-3-16 4-5 11-6 16-3z m48 33c5 3 6 10 3 15-4 5-11 7-16 3-5-3-6-10-3-15 4-5 11-7 16-3z m48 33c5 3 6 10 3 15-4 5-11 7-16 3-5-3-6-10-3-15 4-5 11-7 16-3z m48 32c5 4 6 11 3 16-4 5-11 6-16 3-5-4-6-11-3-16 4-5 11-6 16-3z m48 33c5 3 6 10 3 15-4 6-11 7-16 3-5-3-6-10-3-15 4-5 11-6 16-3z m48 33c5 3 6 10 2 15-3 5-10 7-15 3-5-3-6-10-3-15 4-5 10-7 16-3z m48 33c5 3 6 10 2 15-3 5-10 6-15 3-5-4-6-10-3-16 4-5 10-6 16-2z m50 48c4-6 2-12-3-16-5-3-12-2-15 3-4 5-2 12 3 16 5 3 12 2 15-3z m45 17c5 3 7 10 3 15-3 5-10 7-15 3-5-3-7-10-3-15 3-5 10-7 15-3z m48 33c5 3 7 10 3 15-3 5-10 6-15 3-5-3-7-10-3-15 3-6 10-7 15-3z m-542-441c5 4 6 10 3 16-4 5-11 6-16 2-5-3-6-10-3-15 4-5 11-6 16-3z m48 33c5 3 6 10 3 15-4 5-11 7-16 3-5-3-6-10-3-15 4-5 11-7 16-3z m48 32c5 4 6 11 3 16-4 5-11 6-16 3-5-4-6-11-3-16 4-5 11-6 16-3z m48 33c5 4 6 11 3 16-4 5-11 6-16 3-5-4-6-11-3-16 4-5 11-6 16-3z m48 33c5 3 6 10 3 15-4 5-11 7-16 3-5-3-6-10-3-15 4-5 11-7 16-3z m48 33c5 3 6 10 3 15-4 5-11 7-16 3-5-3-6-10-3-15 4-5 11-7 16-3z m47 32c5 4 7 11 3 16-3 5-10 6-15 3-5-4-7-11-3-16 3-5 10-6 15-3z m48 33c5 4 7 10 3 16-3 5-10 6-15 2-5-3-7-10-3-15 3-5 10-6 15-3z m48 33c5 3 7 10 3 15-3 5-10 7-15 3-5-3-7-10-3-15 3-5 10-7 15-3z m48 33c5 3 7 10 3 15-3 5-10 6-15 3-5-4-7-10-3-16 3-5 10-6 15-2z m51 48c4-6 2-12-3-16-5-3-12-2-15 3-4 5-3 12 3 16 5 3 12 2 15-3z m45 17c5 3 6 10 3 15-3 5-10 7-16 3-5-3-6-10-2-15 3-5 10-7 15-3z m48 33c5 3 6 10 3 15-4 5-10 7-16 3-5-3-6-10-2-15 3-5 10-7 15-3z m-542-441c5 4 6 10 3 16-4 5-11 6-16 2-5-3-6-10-3-15 4-5 11-6 16-3z m48 33c5 3 6 10 3 15-4 5-11 7-16 3-5-3-6-10-3-15 4-5 11-7 16-3z m47 32c5 4 7 11 3 16-3 5-10 6-15 3-5-4-7-11-3-16 3-5 10-6 15-3z m48 33c5 4 7 11 3 16-3 5-10 6-15 3-5-4-7-11-3-16 3-5 10-6 15-3z m48 33c5 3 7 10 3 15-3 5-10 7-15 3-5-3-7-10-3-15 3-5 10-7 15-3z m48 33c5 3 7 10 3 15-3 5-10 7-15 3-5-3-7-10-3-15 3-5 10-7 15-3z m48 32c5 4 6 11 3 16-3 5-10 6-15 3-6-4-7-11-3-16 3-5 10-6 15-3z m48 33c5 4 6 10 3 16-3 5-10 6-15 2-6-3-7-10-3-15 3-5 10-6 15-3z m48 33c5 3 6 10 3 15-3 5-10 7-15 3-6-3-7-10-3-15 3-5 10-7 15-3z m48 33c5 3 6 10 3 15-3 5-10 6-15 3-6-4-7-10-3-16 3-5 10-6 15-2z m51 48c3-6 2-12-3-16-5-3-12-2-16 3-3 5-2 12 3 16 5 3 12 2 16-3z m45 17c5 3 6 10 3 15-4 5-11 7-16 3-5-3-6-10-3-15 4-5 11-7 16-3z m48 33c5 3 6 10 3 15-4 5-11 7-16 3-5-3-6-10-3-15 4-5 11-7 16-3z m-543-441c5 4 7 10 3 16-3 5-10 6-15 2-5-3-7-10-3-15 3-5 10-6 15-3z m48 33c5 3 7 10 3 15-3 5-10 7-15 3-5-3-7-10-3-15 3-5 10-7 15-3z m48 32c5 4 7 11 3 16-3 5-10 6-15 3-5-4-7-11-3-16 3-5 10-6 15-3z m48 33c5 4 7 11 3 16-3 5-10 6-15 3-5-4-7-11-3-16 3-5 10-6 15-3z m48 33c5 3 7 10 3 15-3 6-10 7-15 3-6-3-7-10-3-15 3-5 10-7 15-3z m48 33c5 3 6 10 3 15-3 5-10 7-15 3-6-3-7-10-3-15 3-5 10-7 15-3z m48 32c5 4 6 11 3 16-4 5-11 6-16 3-5-4-6-11-3-16 4-5 11-6 16-3z m48 33c5 4 6 10 3 16-4 5-11 6-16 2-5-3-6-10-3-15 4-5 11-6 16-3z m48 33c5 3 6 10 3 15-4 5-11 7-16 3-5-3-6-10-3-15 4-5 11-7 16-3z m48 33c5 3 6 10 3 15-4 5-11 6-16 3-5-3-6-10-3-15 4-6 11-7 16-3z m50 48c4-6 3-12-2-16-6-3-12-2-16 3-3 5-2 12 3 16 5 3 12 2 15-3z m46 17c5 3 6 10 2 15-3 5-10 7-15 3-5-3-6-10-3-15 4-5 10-7 16-3z m48 33c5 3 6 10 2 15-3 5-10 7-15 3-5-3-6-10-3-15 4-5 10-7 16-3z m-543-441c5 4 6 11 3 16-4 5-10 6-16 3-5-4-6-11-2-16 3-5 10-6 15-3z m48 33c5 4 6 10 3 16-4 5-10 6-16 2-5-3-6-10-2-15 3-5 10-6 15-3z m48 33c5 3 6 10 3 15-4 5-11 7-16 3-5-3-6-10-3-15 4-5 11-7 16-3z m48 32c5 4 6 11 3 16-4 5-11 6-16 3-5-4-6-11-3-16 4-5 11-6 16-3z m48 33c5 4 6 11 3 16-4 5-11 6-16 3-5-4-6-11-3-16 4-5 11-6 16-3z m48 33c5 3 6 10 3 15-4 6-11 7-16 3-5-3-6-10-3-15 4-5 11-7 16-3z m47 33c6 3 7 10 3 15-3 5-10 6-15 3-5-4-6-10-3-16 3-5 10-6 15-2z m48 32c6 4 7 11 3 16-3 5-10 6-15 3-5-4-6-11-3-16 3-5 10-6 15-3z m48 33c6 4 7 10 3 16-3 5-10 6-15 2-5-3-6-10-3-15 3-5 10-6 15-3z m48 33c5 3 7 10 3 15-3 5-10 7-15 3-5-3-7-10-3-15 3-5 10-7 15-3z m51 48c4-5 2-12-3-16-5-3-12-2-15 3-4 6-3 12 3 16 5 3 12 2 15-3z m45 17c5 4 7 11 3 16-3 5-10 6-15 3-5-4-7-11-3-16 3-5 10-6 15-3z m48 33c5 3 7 10 3 15-3 5-10 7-15 3-5-3-7-10-3-15 3-5 10-7 15-3z m-542-441c5 4 6 11 3 16-4 5-11 6-16 3-5-4-6-11-3-16 4-5 11-6 16-3z m48 33c5 4 6 10 3 16-4 5-11 6-16 2-5-3-6-10-3-15 4-5 11-6 16-3z m48 33c5 3 6 10 2 15-3 5-10 7-15 3-5-3-6-10-3-15 4-5 10-7 16-3z m48 32c5 4 6 11 2 16-3 5-10 6-15 3-5-4-6-11-3-16 3-5 10-6 16-3z m47 33c6 4 7 11 3 16-3 5-10 6-15 3-5-4-6-11-3-16 3-5 10-6 15-3z m48 33c6 3 7 10 3 15-3 6-10 7-15 3-5-3-6-10-3-15 3-5 10-6 15-3z m48 33c5 3 7 10 3 15-3 5-10 6-15 3-5-4-7-10-3-16 3-5 10-6 15-2z m48 32c5 4 7 11 3 16-3 5-10 6-15 3-5-4-7-11-3-16 3-5 10-6 15-3z m48 33c5 4 7 10 3 16-3 5-10 6-15 2-5-3-7-10-3-15 3-5 10-6 15-3z m48 33c5 3 7 10 3 15-3 5-10 7-15 3-5-3-7-10-3-15 3-5 10-7 15-3z m51 48c3-5 2-12-3-16-5-3-12-2-16 3-3 6-2 12 3 16 6 3 12 2 16-3z m45 17c5 4 6 11 3 16-4 5-11 6-16 3-5-4-6-11-3-16 4-5 11-6 16-3z m48 33c5 3 6 10 3 15-4 6-11 7-16 3-5-3-6-10-3-15 4-5 11-7 16-3z m-542-441c5 4 6 11 2 16-3 5-10 6-15 3-5-4-6-11-3-16 4-5 10-6 16-3z m48 33c5 4 6 11 2 16-3 5-10 6-15 3-5-4-6-11-3-16 4-5 10-6 16-3z m47 33c5 3 7 10 3 15-3 5-10 7-15 3-5-3-7-10-3-15 3-5 10-7 15-3z m48 32c5 4 7 11 3 16-3 5-10 6-15 3-5-4-7-11-3-16 3-5 10-6 15-3z m48 33c5 4 7 11 3 16-3 5-10 6-15 3-5-4-7-11-3-16 3-5 10-6 15-3z m48 33c5 3 7 10 3 15-3 6-10 7-15 3-5-3-7-10-3-15 3-5 10-6 15-3z m48 33c5 3 6 10 3 15-4 5-10 6-16 3-5-3-6-10-2-15 3-6 10-7 15-3z m48 32c5 4 6 11 3 16-4 5-11 6-16 3-5-4-6-11-3-16 4-5 11-6 16-3z m48 33c5 4 6 10 3 16-4 5-11 6-16 2-5-3-6-10-3-15 4-5 11-6 16-3z m48 33c5 3 6 10 3 15-4 5-11 7-16 3-5-3-6-10-3-15 4-5 11-7 16-3z m51 48c3-5 2-12-3-16-5-3-12-2-16 3-3 6-2 12 3 16 5 3 12 2 16-3z m45 17c5 4 6 11 3 16-4 5-11 6-16 3-5-4-6-11-3-16 4-5 11-6 16-3z m48 33c5 3 6 10 3 15-4 6-11 7-16 3-5-3-6-10-3-15 4-5 11-6 16-3z m-543-441c5 4 7 11 3 16-3 5-10 6-15 3-5-4-7-11-3-16 3-5 10-6 15-3z m48 33c5 4 7 11 3 16-3 5-10 6-15 3-5-4-7-11-3-16 3-5 10-6 15-3z m48 33c5 3 6 10 3 15-4 5-10 7-16 3-5-3-6-10-2-15 3-5 10-7 15-3z m48 32c5 4 6 11 3 16-4 5-10 6-16 3-5-4-6-11-2-16 3-5 10-6 15-3z m48 33c5 4 6 11 3 16-4 5-10 6-16 3-5-4-6-11-2-16 3-5 10-6 15-3z m48 33c5 3 6 10 3 15-4 6-10 7-16 3-5-3-6-10-2-15 3-5 10-6 15-3z m48 33c5 3 6 10 3 15-4 5-11 6-16 3-5-3-6-10-3-15 4-6 11-7 16-3z m48 32c5 4 6 11 3 16-4 5-11 6-16 3-5-4-6-11-3-16 4-5 11-6 16-3z m48 33c5 4 6 11 3 16-4 5-11 6-16 3-5-4-6-11-3-16 4-5 11-6 16-3z m48 33c5 3 6 10 3 15-4 5-11 7-16 3-5-3-6-10-3-15 4-5 11-7 16-3z m50 48c4-5 3-12-3-16-5-3-12-2-15 3-4 6-2 12 3 16 5 3 12 2 15-3z m45 17c6 4 7 11 3 16-3 5-10 6-15 3-5-4-7-11-3-16 3-5 10-6 15-3z m48 33c5 3 7 10 3 15-3 6-10 7-15 3-5-3-7-10-3-15 3-5 10-6 15-3z m-542-440c5 3 6 10 3 15-4 5-11 6-16 3-5-4-6-10-3-16 4-5 11-6 16-2z m48 32c5 4 6 11 3 16-4 5-11 6-16 3-5-4-6-11-3-16 4-5 11-6 16-3z m48 33c5 3 6 10 3 15-4 6-11 7-16 3-5-3-6-10-3-15 4-5 11-6 16-3z m48 33c5 3 6 10 3 15-4 5-11 7-16 3-5-3-6-10-3-15 4-5 11-7 16-3z m48 32c5 4 6 11 3 16-4 5-11 6-16 3-5-4-6-11-3-16 4-5 11-6 16-3z m48 33c5 4 6 11 2 16-3 5-10 6-15 3-5-4-6-11-3-16 4-5 11-6 16-3z m47 33c5 3 7 10 3 15-3 5-10 7-15 3-5-3-7-10-3-15 3-5 10-7 15-3z m48 33c5 3 7 10 3 15-3 5-10 6-15 3-5-3-7-10-3-15 3-6 10-7 15-3z m48 32c5 4 7 11 3 16-3 5-10 6-15 3-5-4-7-11-3-16 3-5 10-6 15-3z m48 33c5 4 7 11 3 16-3 5-10 6-15 3-5-4-7-11-3-16 3-5 10-6 15-3z m51 48c3-5 2-12-3-15-5-4-12-3-15 3-4 5-3 12 2 15 6 3 13 2 16-3z m45 17c5 4 6 11 3 16-4 5-10 6-16 3-5-4-6-11-2-16 3-5 10-6 15-3z m48 33c5 4 6 11 3 16-4 5-10 6-16 3-5-4-6-11-2-16 3-5 10-6 15-3z m-542-440c5 3 6 10 3 15-4 5-11 6-16 3-5-4-6-10-3-16 4-5 11-6 16-2z m48 32c5 4 6 11 3 16-4 5-11 6-16 3-5-4-6-11-3-16 4-5 11-6 16-3z m47 33c5 3 7 10 3 15-3 5-10 7-15 3-5-3-7-10-3-15 3-5 10-7 15-3z m48 33c5 3 7 10 3 15-3 5-10 7-15 3-5-3-7-10-3-15 3-5 10-7 15-3z m48 33c5 3 7 10 3 15-3 5-10 6-15 3-5-4-7-10-3-16 3-5 10-6 15-2z m48 32c5 4 7 11 3 16-3 5-10 6-15 3-5-4-7-11-3-16 3-5 10-6 15-3z m48 33c5 3 6 10 3 15-3 5-10 7-15 3-6-3-7-10-3-15 3-5 10-7 15-3z m48 33c5 3 6 10 3 15-3 5-10 6-15 3-6-3-7-10-3-15 3-6 10-7 15-3z m48 32c5 4 6 11 3 16-3 5-10 6-15 3-6-4-7-11-3-16 3-5 10-6 15-3z m48 33c5 4 6 11 3 16-4 5-10 6-16 3-5-4-6-11-2-16 3-5 10-6 15-3z m51 48c3-5 2-12-3-15-5-4-12-3-16 3-3 5-2 12 3 15 5 4 12 2 16-3z m45 17c5 4 6 11 3 16-4 5-11 6-16 3-5-4-6-11-3-16 4-5 11-6 16-3z m48 33c5 4 6 11 3 16-4 5-11 6-16 3-5-4-6-11-3-16 4-5 11-6 16-3z m-543-440c5 3 7 10 3 15-3 5-10 6-15 3-5-4-7-10-3-16 3-5 10-6 15-2z m48 32c5 4 7 11 3 16-3 5-10 6-15 3-5-4-7-11-3-16 3-5 10-6 15-3z m48 33c5 3 7 10 3 15-3 5-10 7-15 3-5-3-7-10-3-15 3-5 10-7 15-3z m48 33c5 3 7 10 3 15-3 5-10 7-15 3-6-3-7-10-3-15 3-5 10-7 15-3z m48 32c5 4 6 11 3 16-3 5-10 6-15 3-6-4-7-11-3-16 3-5 10-6 15-3z m48 33c5 4 6 11 3 16-3 5-10 6-15 3-6-4-7-11-3-16 3-5 10-6 15-3z m48 33c5 3 6 10 3 15-4 5-11 7-16 3-5-3-6-10-3-15 4-5 11-7 16-3z m48 33c5 3 6 10 3 15-4 5-11 6-16 3-5-3-6-10-3-15 4-6 11-7 16-3z m48 32c5 4 6 11 3 16-4 5-11 6-16 3-5-4-6-11-3-16 4-5 11-6 16-3z m48 33c5 4 6 11 3 16-4 5-11 6-16 3-5-4-6-11-3-16 4-5 11-6 16-3z m50 48c4-5 3-12-2-15-6-4-12-2-16 3-3 5-2 12 3 15 5 4 12 2 15-3z m46 18c5 3 6 10 2 15-3 5-10 6-15 3-5-4-6-10-3-16 4-5 10-6 16-2z m48 32c5 4 6 11 2 16-3 5-10 6-15 3-5-4-6-11-3-16 4-5 10-6 16-3z" horiz-adv-x="1000" />

<glyph glyph-name="vector-22" unicode="&#xe818;" d="M724 850c-133 0-241-110-241-245 0-40 15-81 35-127 21-47 44-94 70-139 33-56 67-111 104-164l32-49 33 49c0 0 52 75 103 164 26 45 49 91 70 139 20 46 36 87 36 127 0 135-109 245-242 245z m-403-79l-321-139v-782l323 141 322-122 321 139v355c-25-47-52-94-81-140v-161l-201-87v66l-59 87c-7 10-14 21-22 32v-189l-241 92v606l44-16c4 27 11 53 21 79l-106 39z m403-2c89 0 161-73 161-164 0-15-10-53-28-94-17-41-43-88-67-131-33-57-47-78-66-106-18 28-32 49-65 106-25 43-50 90-68 131-18 41-28 79-28 94 0 91 72 164 161 164z m-442-102v-606l-201-86v604l201 88z m442 0c-16 0-31-7-42-18-12-12-18-27-18-44 0-16 6-31 18-43 11-11 26-18 42-18 16 0 32 7 43 18 11 12 18 27 18 43 0 17-7 32-18 44-11 11-27 18-43 18z" horiz-adv-x="966" />

<glyph glyph-name="element8" unicode="&#xe819;" d="M753-148h-61v173l49 9 0 0c87 18 147 52 179 103l0 0c17 26 26 57 28 88l0 2h-2-193c-16 0-32 6-43 18-12 11-18 26-18 43v437c0 68 55 123 123 123h377c16 0 31-6 43-18 11-11 17-26 17-42v-500-1l0 0c0 0 0 0 0 0 0-1 0-1 1-2 0-1 0-3 0-5 0-5 0-12 0-21-1-18-3-42-9-71-12-57-38-130-97-194-88-94-220-142-394-142z m-751 0v173l49 9 0 0c87 18 147 52 179 103l0 0c17 26 26 57 28 88l0 2h-2-193c-16 0-32 6-43 18-12 11-18 26-18 43v437c0 68 55 123 123 123h377c16 0 31-6 43-18 11-11 17-26 17-42v-500-1l0 0c0 0 0 0 0 0 0 0 0 0 0 0 0-1 0-1 1-2 0-1 0-3 0-5 0-5 0-12 0-21-1-18-3-42-9-71-12-57-38-130-97-194-88-94-220-142-394-142h-61z" horiz-adv-x="1255" />

<glyph glyph-name="search-normal" unicode="&#xe81a;" d="M479-25c219 0 396 177 396 396 0 218-177 396-396 396-218 0-396-178-396-396 0-219 178-396 396-396z m438-42l-84 84" horiz-adv-x="1000" />

<glyph glyph-name="gym" unicode="&#xe81b;" d="M474-59c-18 0-35 7-47 19l-33 33c-2-2-4-4-6-6l-26-27c-13-12-29-19-47-19-17 0-34 7-46 19l-159 159c-26 26-26 67 0 93l27 26c2 2 4 4 6 6l-33 33c-26 26-26 68 0 94l27 26c12 12 29 19 46 19 18 0 34-7 47-20l85-85 223 224-85 85c-12 12-19 29-19 47 0 17 7 34 20 47l26 26c12 12 29 19 46 19 18 0 34-7 47-19l33-33c2 2 4 4 6 6l26 27c13 12 29 19 47 19 17 0 34-7 46-19l158-158c26-26 26-68 0-94l-26-26c-2-2-4-4-6-6l33-33c26-26 26-67 0-93l-27-26c-12-13-29-20-47-20-17 0-34 7-46 20l-85 85-224-224 85-85c26-26 26-67 0-93l-26-27c-12-12-29-19-46-19z m-291 418c-2 0-4-1-6-3l-26-26c-2-2-3-4-3-6 0-3 1-5 3-6l317-317c1-2 4-3 6-3 2 0 4 1 6 3l26 26c3 3 3 10 0 13l-317 316c-1 2-3 3-6 3z m0-159c-2 0-4-1-6-2l-26-27c-2-1-3-4-3-6 0-2 1-4 3-6l158-158c1-2 4-3 6-3 2 0 4 1 6 3l26 26c3 3 3 10 0 13l-158 158c-1 1-3 2-6 2z m238 6l223 223-65 65-223-223 65-65z m105 496c-2 0-4-1-5-3l-27-26c-3-3-3-10 0-13l317-316c1-2 4-3 6-3 2 0 4 1 6 3l26 26c4 4 4 9 0 12l-317 317c-1 2-3 3-6 3z m159 0c-3 0-5-1-6-3l-27-26c-1-2-2-4-2-6 0-3 1-5 2-6l158-159c2-1 4-2 6-2 2 0 5 1 6 2l27 27c3 3 3 9 0 12l-158 158c-2 2-4 3-6 3z" horiz-adv-x="1000" />

<glyph glyph-name="shop" unicode="&#xe81c;" d="M174-150h544c96 0 174 78 174 174v518c0 17-14 31-31 31h-184v46c0 128-104 231-231 231-127 0-231-103-231-231v-46h-184c-17 0-31-14-31-31v-518c0-96 78-174 174-174z m103 769c0 94 76 170 169 170 93 0 169-76 169-170v-46h-338v46z m-215-107h153v-77c0-17 14-31 31-31 17 0 31 14 31 31v77h338v-77c0-17 14-31 31-31 17 0 31 14 31 31v77h153v-488c0-62-50-113-112-113h-544c-62 0-112 51-112 113v488z" horiz-adv-x="892" />

<glyph glyph-name="d-calendar" unicode="&#xe81d;" d="M129-150c-27 0-50 10-69 29-19 20-29 43-29 71v700c0 28 10 51 29 71 19 19 42 29 69 29h48v100h97v-100h389v100h97v-100h49c27 0 50-10 69-29 19-20 28-43 28-71v-700c0-28-9-51-28-71-19-19-42-29-69-29h-680z m0 100h680v500h-680v-500z m0 600h680v100h-680v-100z" horiz-adv-x="938" />

<glyph glyph-name="01-map-1" unicode="&#xe81e;" d="M859-91l-394 208c-10 6-22 5-32-2l-301-208c-11-8-16-22-12-35 4-13 16-22 30-22h694c14 0 27 10 30 24 4 14-3 28-15 35z m131 59l-92 417c-2 10-10 18-19 22-10 4-21 2-29-3l-301-209c-9-6-14-16-14-27 1-11 7-21 17-26l393-208c5-3 10-4 15-4 7 0 13 2 19 6 9 8 14 20 11 32z m-217 485c-4 13-16 22-30 22h-285c-52-94-129-184-161-219-17-20-43-31-69-31-27 0-52 11-70 31-12 14-31 35-53 62l-75-340c-3-13 2-26 13-33 5-3 11-5 17-5 6 0 13 2 18 5l683 473c11 8 16 22 12 35z m-545 397c-121 0-219-98-219-219 0-112 175-311 195-333 6-7 15-10 24-10 9 0 17 3 23 10 20 22 195 221 195 333 0 121-98 219-218 219z m0-312c-52 0-94 42-94 93 0 52 42 94 94 94 51 0 93-42 93-94 0-51-42-93-93-93z" horiz-adv-x="1000" />

<glyph glyph-name="02-star-2" unicode="&#xe81f;" d="M388 118l145 76 145-76c7-4 15-4 24 2 6 4 11 12 8 20l-27 160 119 114c7 6 9 14 4 20-2 8-8 12-17 14l-164 22-72 146c-5 8-11 12-20 12-8 0-15-4-19-12l-72-146-165-22c-8-2-15-6-17-14-2-8 0-14 5-20l119-114-28-160c-2-8 2-16 9-20 6-6 15-6 23-2v0z m-64 296l135 20c6 0 13 6 17 12l60 118 59-118c2-6 9-10 17-12l135-20-98-94c-5-4-7-10-7-18l24-130-118 60c-4 2-6 2-10 2-5 0-7 0-11-2l-117-60 23 130c2 6 0 12-6 18l-103 94z m719-340c-2 8-8 12-17 14l-94 14-42 84c-5 8-11 12-20 12-8 0-14-4-19-12l-42-84-94-14c-9-2-15-6-17-14-2-8 0-14 4-20l68-66-17-94c-2-8 2-16 9-20 6-4 15-4 23-2l85 44 86-44c6-4 15-4 23 2 7 4 11 12 9 20l-17 94 68 66c6 4 9 12 4 20v0z m-111-66c-4-4-6-10-6-18l11-64-56 30c-4 2-6 2-11 2-4 0-6 0-10-2l-56-30 11 64c2 6 0 12-6 18l-47 46 64 10c6 0 12 6 17 12l27 56 28-56c2-6 9-10 17-12l64-10-47-46z m-563 66c-2 8-8 12-17 14l-94 14-42 84c-5 8-11 12-20 12-8 0-15-4-19-12l-43-84-93-14c-9-2-15-6-17-14-3-8 0-14 4-20l68-66-17-94c-2-8 2-16 9-20 6-4 14-4 23-2l85 44 86-44c6-4 15-4 23 2 7 4 11 12 9 20l-17 94 68 66c6 4 8 12 4 20v0z m-111-66c-4-4-6-10-6-18l10-64-55 30c-6 4-15 4-21 0l-56-30 11 64c2 6 0 12-7 18l-46 46 64 10c6 0 12 6 17 12l27 54 28-56c2-6 9-10 17-12l64-10-47-44z m275 670c13 0 22 8 22 20v112c0 12-9 20-22 20-12 0-21-8-21-20v-112c0-12 9-20 21-20z m188-14l77 80c8 8 6 20-2 28-9 8-22 6-30-2l-77-80c-8-8-6-20 2-28 9-6 22-6 30 2z m-363 0c9-8 22-8 30 0 9 8 9 20 0 28l-87 80c-9 8-21 8-30 0-9-8-9-20 0-28l87-80z" horiz-adv-x="1067" />

<glyph glyph-name="03-calendar-check" unicode="&#xe820;" d="M922 663h-172v109h-62v-109h-375v109h-63v-109h-172c-12 0-24-5-33-14-9-9-14-21-14-33v-657c0-12 5-24 14-33 9-9 21-14 33-14h844c12 0 24 5 33 14 9 9 14 21 14 33v657c0 12-5 24-14 33-9 9-21 14-33 14v0z m-16-688h-812v625h156v-78h63v78h375v-78h62v78h156v-625z m-431 263l-106 106-44-44 150-150 246 245-44 44-202-201v0z" horiz-adv-x="1000" />

<glyph glyph-name="vector-24" unicode="&#xe821;" d="M87 472l340-268c35-27 78-42 122-42 44 0 87 15 121 42l340 268m-947-77c0 31 7 62 22 89 14 28 35 52 60 70l292 204c33 23 72 35 112 35 40 0 78-12 111-35l292-204c25-18 46-42 61-70 14-27 22-58 22-89v-385c0-26-10-51-29-69-18-18-43-29-68-29h-778c-26 0-51 11-69 29-18 18-28 43-28 69v385z" horiz-adv-x="1083" />

<glyph glyph-name="d-eye" unicode="&#xe822;" d="M646 81c62 0 113 52 113 115 0 64-51 116-113 116-63 0-114-52-114-116 0-63 51-115 114-115z m0 154c20 0 37-18 37-39 0-21-17-38-37-38-21 0-38 17-38 38 0 21 17 39 38 39z m-445-224c146-105 300-161 445-161 144 0 298 56 444 161 110 79 177 157 180 160l21 25-21 25c-3 4-70 82-180 160-146 106-300 161-444 161-145 0-299-55-445-161-110-78-177-156-180-160l-21-25 21-25c3-3 70-81 180-160z m844 309c66-48 117-96 144-124-27-28-78-76-144-123-33-24-74-50-119-73 38 56 60 123 60 196 0 73-22 141-60 196 45-23 86-48 119-72z m-399 145c145 0 264-120 264-269 0-148-118-269-264-269-146 0-265 121-265 269 0 149 119 269 265 269z m-281-72c-38-56-60-124-60-197 0-73 22-140 60-196-45 23-86 49-119 73-66 47-117 95-144 123 26 27 73 72 135 117 38 28 81 55 128 80z m243 457h75v-192h-75v192z m230-214l76 154 67-34-75-154-68 34z m231-147l113 153 61-46-113-154-61 47z m-760 267l68 34 75-153-67-35-76 154z m-261-160l61 46 113-153-61-47-113 154z" horiz-adv-x="1291" />

<glyph glyph-name="vector-25" unicode="&#xe823;" d="M17 540c5 0 9 2 12 5 4 3 6 7 6 12v17c0 5-2 9-6 12-3 4-7 5-12 5-4 0-9-1-12-5-3-3-5-7-5-12v-17c0-5 2-9 5-12 3-3 8-5 12-5z m931 0h-258v258c0 14-6 27-15 37-10 10-23 15-37 15h-586c-14 0-27-5-37-15-10-10-15-23-15-37v-155c0-4 2-9 5-12 3-3 8-5 12-5 5 0 9 2 12 5 4 3 6 8 6 12v155c0 5 1 9 5 13 3 3 7 5 12 5h586c5 0 9-2 12-5 3-4 5-8 5-13v-914h-155v190c0 5-2 9-5 12-3 4-8 5-12 5h-276c-5 0-9-1-12-5-3-3-5-7-5-12v-190h-138c-5 0-9 2-12 5-4 4-5 8-5 13v586c0 5-2 9-6 12-3 3-7 5-12 5-4 0-9-2-12-5-3-3-5-7-5-12v-586c0-14 5-27 15-37 10-10 23-15 37-15h896c14 0 27 5 37 15 10 10 15 23 15 37v586c0 14-5 27-15 37-10 9-23 15-37 15z m-482-656h-242v173h242v-173z m500 18c0-5-2-9-5-13-4-3-8-5-13-5h-258v621h258c5 0 9-2 13-5 3-3 5-7 5-12v-586z m-69 551h-138c-5 0-9-1-13-5-3-3-5-7-5-12v-103c0-5 2-9 5-12 4-4 8-5 13-5h138c4 0 9 1 12 5 3 3 5 7 5 12v103c0 5-2 9-5 12-3 4-8 5-12 5z m-18-103h-103v69h103v-69z m18-86h-138c-5 0-9-2-13-5-3-3-5-8-5-12v-104c0-4 2-9 5-12 4-3 8-5 13-5h138c4 0 9 2 12 5 3 3 5 8 5 12v104c0 4-2 9-5 12-3 3-8 5-12 5z m-18-104h-103v69h103v-69z m18-86h-138c-5 0-9-2-13-5-3-3-5-7-5-12v-104c0-4 2-9 5-12 4-3 8-5 13-5h138c4 0 9 2 12 5 3 3 5 8 5 12v104c0 5-2 9-5 12-3 3-8 5-12 5z m-18-103h-103v69h103v-69z m-396 620h103c5 0 9 2 12 5 4 4 5 8 5 13v103c0 5-1 9-5 12-3 4-7 5-12 5h-103c-5 0-9-1-12-5-4-3-5-7-5-12v-103c0-5 1-9 5-13 3-3 7-5 12-5z m17 104h69v-69h-69v69z m-397-104h104c5 0 9 2 12 5 3 4 5 8 5 13v103c0 5-2 9-5 12-3 4-7 5-12 5h-104c-4 0-8-1-12-5-3-3-5-7-5-12v-103c0-5 2-9 5-13 4-3 8-5 12-5z m18 104h69v-69h-69v69z m172-104h104c4 0 9 2 12 5 3 4 5 8 5 13v103c0 5-2 9-5 12-3 4-8 5-12 5h-104c-4 0-9-1-12-5-3-3-5-7-5-12v-103c0-5 2-9 5-13 3-3 8-5 12-5z m17 104h69v-69h-69v69z m156-293c0-5 1-9 5-12 3-4 7-5 12-5h103c5 0 9 1 12 5 4 3 5 7 5 12v103c0 5-1 9-5 12-3 4-7 5-12 5h-103c-5 0-9-1-12-5-4-3-5-7-5-12v-103z m34 86h69v-69h-69v69z m-414-86c0-5 2-9 5-12 4-4 8-5 12-5h104c5 0 9 1 12 5 3 3 5 7 5 12v103c0 5-2 9-5 12-3 4-7 5-12 5h-104c-4 0-8-1-12-5-3-3-5-7-5-12v-103z m35 86h69v-69h-69v69z m155-86c0-5 2-9 5-12 3-4 8-5 12-5h104c4 0 9 1 12 5 3 3 5 7 5 12v103c0 5-2 9-5 12-3 4-8 5-12 5h-104c-4 0-9-1-12-5-3-3-5-7-5-12v-103z m34 86h69v-69h-69v69z m156-293c0-5 1-9 5-12 3-4 7-5 12-5h103c5 0 9 1 12 5 4 3 5 7 5 12v103c0 5-1 9-5 13-3 3-7 5-12 5h-103c-5 0-9-2-12-5-4-4-5-8-5-13v-103z m34 86h69v-69h-69v69z m-414-86c0-5 2-9 5-12 4-4 8-5 12-5h104c5 0 9 1 12 5 3 3 5 7 5 12v103c0 5-2 9-5 13-3 3-7 5-12 5h-104c-4 0-8-2-12-5-3-4-5-8-5-13v-103z m35 86h69v-69h-69v69z m155-86c0-5 2-9 5-12 3-4 8-5 12-5h104c4 0 9 1 12 5 3 3 5 7 5 12v103c0 5-2 9-5 13-3 3-8 5-12 5h-104c-4 0-9-2-12-5-3-4-5-8-5-13v-103z m34 86h69v-69h-69v69z" horiz-adv-x="1000" />

<glyph glyph-name="vector-3" unicode="&#xe824;" d="M997 214l-99 170c-3 6-10 9-17 9-3 0-6-1-9-2-10-6-13-18-7-27l89-152-536-311-91 171h239c6 0 11 3 14 6l157 156c3 3 5 8 5 13v326l34-58c4-6 10-9 17-9 3 0 7 1 10 2 4 3 8 7 9 12 2 5 1 10-1 15 0 0 0 0 0 0l-69 115v181c0 10-9 19-19 19h-703c-11 0-20-9-20-19v-739c0-11 9-20 20-20h262l111-207c3-5 7-8 12-10 2 0 4 0 6 0 3 0 7 1 10 2l569 331c10 5 13 17 7 26z m-411-75v89h90l-90-89z m-547 672h664v-544h-137c-10 0-19-9-19-20v-136h-508v700z m137-155c11 0 19 8 19 19 0 11-8 19-19 19-11 0-20-8-20-19 0-11 9-19 20-19z m88 0h302c11 0 20 8 20 19 0 11-9 19-20 19h-302c-11 0-20-8-20-19 0-11 9-19 20-19z m0-195h302c11 0 20 9 20 20 0 10-9 19-20 19h-302c-11 0-20-9-20-19 0-11 9-20 20-20z m-88 0c11 0 19 9 19 20 0 10-8 19-19 19-11 0-20-9-20-19 0-11 9-20 20-20z m312-155h-185c-11 0-20-9-20-20 0-10 9-19 20-19h185c11 0 20 9 20 19 0 11-9 20-20 20z m-248 72l-61-61-26 38c-6 9-18 12-27 6-9-6-11-18-5-27l39-59c3-4 8-7 14-8 1 0 1 0 2 0 5 0 10 2 14 6l78 77c7 8 7 20 0 28-8 7-20 7-28 0z m597 52c11 0 20 9 20 19 0 11-9 20-20 20-11 0-19-9-19-20 0-10 8-19 19-19z" horiz-adv-x="1000" />

<glyph glyph-name="vector-4" unicode="&#xe825;" d="M454 10c204 0 369 166 369 370 0 204-165 370-369 370 0 0-1 0-2 0l-1 0c-8 0-15-7-15-15 0-8 7-14 15-14h0l2 0c0 0 1 0 1 0 77 0 147-25 204-68l-152-209h-164c-8 0-15-6-15-14 0-8 7-15 15-15h171c5 0 9 2 12 6l156 213c12-11 24-23 35-37l-116-159c-3-4-4-10-1-15 2-5 7-8 13-8h181c1-11 2-23 2-35 0-5-1-11-1-16h-111c-8 0-15-6-15-14 0-8 7-15 15-15h109c-10-75-44-142-95-194h-178c-8 0-14-6-14-14 0-8 6-15 14-15h146c-58-46-131-73-211-73-79 0-152 27-210 73h158c8 0 14 7 14 15 0 8-6 14-14 14h-190c-7 7-13 14-19 21l126 173h302c8 0 15 7 15 15 0 8-7 14-15 14h-309c-5 0-9-2-12-6l-126-172c-10 15-19 31-27 48l78 107c3 5 4 11 1 15-2 5-7 8-13 8h-98c-1 5-1 11-1 16 0 12 1 23 2 35h54c8 0 14 7 14 15 0 8-6 14-14 14h-50c4 19 9 38 16 56 3 7-1 16-9 19-7 2-15-1-18-9-16-42-24-85-24-130 0-204 166-370 369-370z m186 434l94 129c27-38 46-82 55-129h-149z m-455-109l-51-70c-8 23-14 46-17 70h68v0z m781-365l-143 144c56 77 86 169 86 266 0 121-48 236-133 322-86 86-200 133-322 133-18 0-37-1-56-3-8-1-13-8-12-16 1-8 8-14 16-13 17 2 35 3 52 3 114 0 221-44 301-125 81-80 125-187 125-301 0-114-44-221-125-302-80-81-187-125-301-125-113 0-220 44-300 125-81 81-125 188-125 302 0 71 18 141 51 203 4 7 1 15-6 19-7 4-16 1-19-6-36-66-55-141-55-216 0-122 47-236 133-322 86-86 200-134 321-134 100 0 196 32 274 92l43-43c3-3 7-5 10-5 4 0 8 2 11 5 5 5 5 14 0 20l-41 41c8 8 17 16 25 24 10 10 20 21 30 33l140-141c6-6 9-14 9-22 0-8-3-16-9-22l-12-12c-6-6-14-9-22-9-8 0-16 3-22 9l-55 56c-6 5-15 5-20 0-6-6-6-15 0-21l55-55c11-12 26-18 42-18 16 0 31 6 42 18l12 12c11 11 18 26 18 42 0 16-7 31-18 42z m-710 796c-28 0-54-12-72-32-15-18-23-40-23-62 0-53 42-95 95-95 27 0 53 12 71 33 15 17 23 39 23 62 0 52-42 94-94 94z m49-137c-12-15-30-23-49-23-37 0-66 29-66 66 0 15 6 31 16 43 0 0 0 0 0 0 12 14 31 22 50 22 36 0 65-29 65-65 0-16-6-32-16-43z m-113-146c10-14 17-29 20-46l5-23c4-18 20-31 39-31 18 0 34 13 38 31l5 23c3 17 10 32 20 46l21 29c5 6 3 15-3 20-7 5-16 3-20-3l-21-29c-12-17-21-36-25-56l-5-24c-1-4-6-8-10-8-5 0-10 4-11 8l-5 24c-4 20-12 39-25 56l-66 92c-18 23-27 51-27 80 0 36 15 70 41 95 25 25 60 39 96 38 34-1 67-15 91-39 24-25 38-58 39-92 0-30-9-58-27-82l-9-13c-5-7-3-16 3-20 7-5 16-4 20 3l10 13c21 29 32 63 32 99-1 42-18 82-48 112-29 30-69 47-111 48-44 1-85-15-117-46-31-31-48-72-48-116 0-36 11-69 31-97l67-92z m269-388c8 0 14 6 14 14v57c27 7 46 31 46 59 0 34-27 61-60 61-34 0-61-27-61-61 0-28 20-52 46-59v-57c0-8 7-14 15-14z m-32 130c0 18 14 32 32 32 17 0 32-14 32-32 0-17-15-32-32-32-18 0-32 15-32 32z" horiz-adv-x="984" />

<glyph glyph-name="vector-5" unicode="&#xe826;" d="M911 637l37 19c9 4 16 11 21 20 4 9 5 19 3 29-3 10-8 18-16 24-8 7-17 10-27 10l-33-2c-13 7-28 11-43 12-15 1-30-1-44-6-89 70-199 108-312 107-113-1-223-39-311-110-88-71-149-169-174-279-25-110-11-225 38-326 50-101 132-183 234-232 102-48 218-61 328-36 110 26 209 87 279 175 71 89 109 198 109 310 0 102-31 201-89 285z m-26 73c3-2 5-2 8-2l34 1h2c2 0 5 0 7-2 3-1 5-3 6-6 1-3 2-7 0-11-1-3-3-6-7-8l-153-77 3 31c0 3 0 6-1 8-2 3-3 5-6 6-2 1-5 2-7 2-3 0-6 0-8-2l-117-66c-3-1-5-4-7-7-1-3-1-6 0-9l8-31-198-99c-7-4-14-5-21-4-7 1-14 4-19 9l-63 55c5 3 11 4 17 4 5 1 11-1 16-3l35-17c2-1 4-1 7-1 2 0 5 1 7 2l376 226c12 7 26 11 41 11 14 0 28-3 40-10z m-215-145l83 46-15-175-29-12-39 141z m-50 68l-68 59 24 20 108-41-64-38z m-294 155c-4-20-5-39-3-58 0-3 0-6 1-9 1-16 3-30-4-40-6-10-19-16-34-22l-4-2c-39-16-66-37-80-63-8-17-14-35-17-53-2-9-4-17-6-25-3-9-14-41-38-45-17-3-34 10-53 24-9 7-19 14-29 19 23 62 58 118 104 165 46 47 102 84 163 109z m-297-436c0 46 7 91 20 134 7-4 14-9 22-15 18-14 39-30 65-30 3 0 6 1 10 1 28 5 51 30 61 66 3 9 5 18 7 27 2 15 7 30 14 45 11 20 32 37 65 50l4 2c18 7 37 15 49 33 11 19 9 40 7 58 0 3-1 6-1 9-2 23 1 45 7 67 71 22 146 27 219 15 73-12 142-41 202-85l-64-38-138 52c-3 1-6 1-8 1-3-1-5-2-7-4l-43-37c-2-1-3-3-4-5-1-2-1-4-1-6 0-2 0-4 1-6 1-2 2-4 4-5l73-64-174-105-27 13c-11 6-23 8-35 6-12-1-24-5-33-13l-10-7c-2-2-3-3-4-5-1-2-2-4-2-6 0-3 0-5 1-7 1-2 2-4 4-5l76-67c10-9 22-14 35-16 13-2 26 1 38 6l193 97 30-108c1-2 2-4 3-6 2-1 3-3 5-3 2-1 4-2 6-2 2 0 5 0 6 1l53 22c2 1 5 3 6 5 2 2 3 5 3 8l12 146 105 52c43-60 71-129 81-202-38-2-77-11-113-24-13-5-25-11-37-17-32-15-61-29-92-27-20 2-40 8-58 16-10 4-21 8-31 11-45 14-84 7-106-18-21-24-21-58-22-80l-1-117c0-52-4-108-40-120-105-35-137-75-144-126-32 13-62 30-89 49-5 7-8 14-12 21-1 4-4 7-8 8-3 2-8 1-11 0-1-1-3-2-4-3-52 44-95 99-124 161-29 62-44 129-44 197z m471-468c-51 0-102 8-151 25 2 32 14 71 125 108 59 19 60 100 61 148l1 117c0 23 1 46 14 60 17 19 50 18 75 10 10-3 19-6 29-10 21-10 44-16 67-18 39-2 73 14 106 30 13 5 24 11 36 15 34 13 70 21 106 23 1-13 2-26 2-40-1-124-50-243-138-331-89-87-208-137-333-137z m402 589c1-4 4-7 7-9 4-1 8-2 11-1 4 2 7 4 9 7 2 4 2 8 1 11-5 17-11 33-18 49-1 4-4 7-8 8-3 1-7 1-11 0-4-2-6-5-8-8-1-4-1-8 0-12 7-14 12-30 17-45z m-600-105c2 0 4 1 6 2 1 1 3 2 5 3 6 7 13 14 20 20 1 1 2 3 3 4 1 2 1 4 1 6 1 2 0 4 0 6-1 1-2 3-3 5-1 1-3 2-5 3-2 1-3 1-5 1-2 1-4 0-6 0-2-1-4-2-5-3-8-7-15-14-22-22-2-2-3-5-4-7 0-3 0-6 1-9 1-2 3-5 6-6 2-2 5-3 8-3z m-114-217c1 0 2-1 3-1 4 0 7 2 10 4 2 2 4 5 5 8 4 20 9 39 16 58 1 3 1 7-1 11-2 3-5 6-8 7-4 1-8 1-11 0-4-2-7-5-8-9-7-20-13-40-17-61-1-4 0-8 2-11 2-3 6-6 9-6z m38 117c3-2 7-2 11-1 4 2 7 4 8 8 9 18 20 35 31 51 1 2 2 4 2 6 1 2 1 4 0 6 0 2-1 3-2 5-1 2-2 3-4 4-2 1-3 2-5 3-2 0-4 0-6 0-2-1-4-2-6-3-1-1-3-2-4-4-12-18-22-36-32-55-1-2-1-4-1-6-1-2 0-3 0-5 1-2 2-4 3-5 1-2 3-3 5-4z m-23-223c-3 16-4 33-4 50 0 3 0 6 0 8 0 4-1 8-4 11-3 3-6 4-10 5-4 0-8-2-11-4-3-3-4-7-5-11 0-3 0-6 0-9 0-19 2-37 5-55 1-4 3-7 5-9 3-2 6-3 10-3 1 0 1 0 2 0 4 1 8 3 10 6 2 3 3 7 2 11z" horiz-adv-x="1000" />

<glyph glyph-name="vector-17" unicode="&#xe827;" d="M25 813v-600h150v-191l61 49 177 142h362v600h-750z m75-75h600v-450h-313l-10-9-127-100v109h-150v450z m750-75v-75h150v-450h-150v-109l-137 109h-281l-94-75h349l238-192v192h150v600h-225z" horiz-adv-x="1100" />

<glyph glyph-name="vector-18" unicode="&#xe828;" d="M680 459c0 100-81 180-180 180-99 0-180-80-180-180 0-99 81-179 180-179 99 0 180 80 180 179z m-313 0c0 74 60 133 133 133 73 0 133-59 133-133 0-73-60-132-133-132-73 0-133 59-133 132z m-168-454c4-3 8-3 12-3 8 0 16 4 20 11 55 97 158 157 269 157 111 0 214-60 270-157 6-11 21-15 32-8 11 6 14 21 8 32-63 111-182 180-310 180-128 0-247-69-310-180-6-11-2-26 9-32z" horiz-adv-x="1000" />

<glyph glyph-name="vector-20" unicode="&#xe829;" d="M1107 821h-800c-6 0-11-6-11-12v-82c0-7 5-12 11-12h800c6 0 11 5 11 12v82c0 6-5 12-11 12z m0-418h-800c-6 0-11-5-11-12v-82c0-7 5-12 11-12h800c6 0 11 5 11 12v82c0 7-5 12-11 12z m0-418h-800c-6 0-11-5-11-12v-82c0-6 5-12 11-12h800c6 0 11 6 11 12v82c0 7-5 12-11 12z m-1107 783c0-11 2-22 6-32 4-10 9-19 17-27 7-7 15-13 24-17 10-5 20-7 30-7 10 0 20 2 29 7 9 4 18 10 25 17 7 8 13 17 17 27 3 10 5 21 5 32 0 11-2 21-5 31-4 10-10 19-17 27-7 8-16 14-25 18-9 4-19 6-29 6-10 0-20-2-30-6-9-4-17-10-24-18-8-8-13-17-17-27-4-10-6-20-6-31z m0-418c0-11 2-21 6-31 4-10 9-20 17-27 7-8 15-14 24-18 10-4 20-6 30-6 10 0 20 2 29 6 9 4 18 10 25 18 7 7 13 17 17 27 3 10 5 20 5 31 0 11-2 22-5 32-4 10-10 19-17 26-7 8-16 14-25 18-9 4-19 6-29 6-10 0-20-2-30-6-9-4-17-10-24-18-8-7-13-16-17-26-4-10-6-21-6-32z m0-418c0-11 2-21 6-31 4-10 9-19 17-27 7-8 15-14 24-18 10-4 20-6 30-6 10 0 20 2 29 6 9 4 18 10 25 18 7 8 13 17 17 27 3 10 5 20 5 31 0 11-2 22-5 32-4 10-10 19-17 27-7 7-16 13-25 17-9 5-19 7-29 7-10 0-20-2-30-7-9-4-17-10-24-17-8-8-13-17-17-27-4-10-6-21-6-32z" horiz-adv-x="1118" />

<glyph glyph-name="vector-21" unicode="&#xe82a;" d="M56 406h333c15 0 29 5 39 16 11 10 16 24 16 39v333c0 15-5 29-16 40-10 10-24 16-39 16h-333c-15 0-29-6-40-16-10-11-16-25-16-40v-333c0-15 6-29 16-39 11-11 25-16 40-16z m555 0h333c15 0 29 5 40 16 10 10 16 24 16 39v333c0 15-6 29-16 40-11 10-25 16-40 16h-333c-15 0-29-6-39-16-11-11-16-25-16-40v-333c0-15 5-29 16-39 10-11 24-16 39-16z m-555-556h333c15 0 29 6 39 16 11 11 16 25 16 40v333c0 15-5 29-16 39-10 11-24 16-39 16h-333c-15 0-29-5-40-16-10-10-16-24-16-39v-333c0-15 6-29 16-40 11-10 25-16 40-16z m555 0h333c15 0 29 6 40 16 10 11 16 25 16 40v333c0 15-6 29-16 39-11 11-25 16-40 16h-333c-15 0-29-5-39-16-11-10-16-24-16-39v-333c0-15 5-29 16-40 10-10 24-16 39-16z" horiz-adv-x="1000" />

<glyph glyph-name="r-cat8" unicode="&#xe82b;" d="M1105 306h-68c-23 28-43 59-60 91-28 52-54 102-100 128-61 36-129 20-159 22-10 8-19 17-27 26-6 7-11 13-16 18-16 22-37 39-60 50 5 3 9 7 12 11 64 69 49 174 48 179-1 8-8 15-16 17-4 1-100 17-164-52-3-4-6-7-8-11-3 4-6 7-9 11-63 69-160 52-164 52-8-2-14-9-16-17 0-5-16-110 48-179 5-5 11-10 17-14h-1c-13-9-26-19-38-30-25-25-46-55-61-87-47-19-139-63-171-215h-54c-11 0-22-6-29-15-8-10-11-22-8-35l10-56c38-203 202-350 392-350h337c190 0 354 147 392 350l10 56c2 13 0 25-8 35-7 9-18 15-29 15z m-442 239c12-15 27-28 44-38 26-8 96 15 152-18 36-21 60-66 86-114 13-24 27-47 42-69h-48c-10 15-19 32-27 48-23 43-44 83-71 98-28 13-59 18-90 13-19-2-39-1-59 4-20 11-39 26-54 45-4 3-7 7-11 11 8 9 18 16 29 19 2 0 4 1 7 1z m-246-149c3 5 5 10 8 16 4 7 7 14 11 21 20-17 39-36 57-55 24-26 50-50 77-72h-61c-14 14-28 28-42 42l-1 1c-20 20-36 37-49 47z m35-90h-156c13 12 28 20 44 24 18 6 35 16 51 28 1 2 2 3 4 5 12-11 31-30 45-44l1-1c4-4 8-8 11-12z m68 102c-19 19-38 38-55 53 14 3 28 3 42 2 4 0 7-1 11-1 14-8 26-19 36-32 27-33 61-59 98-77 78-31 117 12 146-35 2-4 4-8 6-12h-100c-27-1-53 3-78 12-35 16-73 55-106 90z m146-16c-33 16-62 39-85 67-4 4-7 8-10 11 11 6 22 14 30 24 4-3 7-7 11-10 18-23 41-41 67-54 24-7 49-9 74-6 24 3 48 1 70-8 17-10 37-47 56-83 5-9 10-18 15-27h-45c-7 11-13 22-18 33-38 74-95 24-165 53z m-33 187c-19-10-35-24-48-42l0 0 0-1v0c-24-30-31-34-76-32-66 3-86-8-118-73-6-15-14-29-25-41-12-9-25-16-39-21-27-10-63-24-73-63h-42c19 70 64 88 101 102 9 3 17 7 25 11 3 2 5 4 6 6 5 8 10 17 14 25 10 24 24 46 41 65 6 5 12 10 19 14 28 15 60 21 92 17 12-3 25-1 36 4 11 9 33 37 53 53 13-6 24-14 34-24z m-111 188c29 28 68 43 107 42 4 0 7 0 10-1 3-46-10-92-38-127-22-23-57-23-79 0-22 24-22 62 0 86z m-187 41c42 4 84-11 116-41 22-24 22-62 0-86-22-23-56-23-78 0-28 35-42 81-39 127l1 0z m-53-324c5 2 8 5 10 10 14 31 34 59 57 83 10 9 20 18 32 25 54 29 117 35 175 16-8-8-25-28-29-32-5 0-11 1-16 1-38 5-77-3-112-22-9-5-17-12-25-19-21-22-38-48-50-77-3-5-6-11-8-15-5-3-12-5-15-7-40-15-106-41-128-141h-42c16 85 74 154 151 178z m812-276c-34-184-182-316-354-317h-337c-172 1-320 133-354 317l-11 57h1067l-11-57z m-691-234c-130 0-244 96-276 234-2 7-7 13-14 15-6 2-13 0-18-5-5-6-7-14-5-21 37-155 166-264 313-264 11 0 19 9 19 21 0 11-8 20-19 20z" horiz-adv-x="1143" />

<glyph glyph-name="r-cat9" unicode="&#xe82c;" d="M788 335l-2-3c-8-7-8-19 0-26 3-4 8-5 13-5 5 0 10 1 13 5l3 2c7 8 7 19 0 27-8 7-20 7-27 0z m-355-56c5 0 10 2 14 5l2 3c7 7 7 19 0 26-7 7-19 7-27 0l-2-2c-7-7-7-19 0-26 4-4 8-6 13-6z m33 292c4-4 9-6 14-6 4 0 9 2 13 6l2 2c8 7 8 19 0 26-7 7-19 7-26 0l-3-2c-7-7-7-19 0-26z m111 18c5 0 10 2 13 5l3 3c7 7 7 19 0 26-7 7-19 7-27 0l-2-2c-8-8-8-19 0-27 3-3 8-5 13-5z m355-276l-3-2c-7-7-7-19 0-26 4-4 9-6 14-6 5 0 9 2 13 5l2 3c8 7 8 19 1 26-8 7-20 7-27 0z m-488 334c5 0 10 2 14 6l2 2c7 7 7 19 0 26-7 8-19 8-27 0l-2-2c-7-7-7-19 0-26 4-4 8-6 13-6z m734-267l2 2c8 7 8 19 0 26-7 8-19 8-26 0l-3-2c-7-7-7-19 0-26 4-4 9-6 14-6 4 0 9 2 13 6z m-390 148l-2-3c-8-7-8-19 0-26 3-4 8-5 13-5 5 0 10 1 13 5l3 2c7 8 7 19 0 27-8 7-20 7-27 0z m-195-215l-2-2c-8-7-8-19 0-26 3-4 8-6 13-6 5 0 10 2 13 5l3 3c7 7 7 19 0 26-8 7-20 7-27 0z m628 187l-260 89c-10 3-21-2-24-12-3-9 2-20 12-23l260-89c23-8 39-30 39-54v-12c0-24-16-46-39-54l-75-26c-8-3-13-10-13-18v-75c0-16-13-29-30-29-16 0-29 13-29 29v41c0 5 0 9 0 13 0 2 0 4 0 6 0 95-80 173-178 173-98 0-177-78-177-173 0-45 17-87 49-120v-250c0-16-14-29-30-29-17 0-30 13-30 29v78c0 7-4 13-10 16-5 4-13 4-18 0-5-2-10-4-15-4-17 0-30 13-30 29v80c0 6-3 12-8 16-5 3-12 4-17 2l-294-102c-8 49-43 90-89 107 11 21 18 44 18 68 0 15-3 30-8 44-3 10-14 15-24 12-9-4-15-14-11-24 3-10 5-21 5-32 0-25-9-48-26-67-4-5-6-12-3-18 2-7 8-11 15-12 46-7 82-45 87-90l-67-24c-7-2-13-3-20-3-21 0-40 11-51 28-1 2-1 3-1 3 0 0 0 0 0 0-61 119-91 246-91 379 0 134 30 261 91 380 9 19 30 31 52 31 7 0 13-1 20-3l67-23c-4-46-41-84-87-91-7-1-13-5-15-12-3-6-1-13 3-18 17-19 26-42 26-67 0-33-17-64-45-83-5-3-8-9-8-15 0-6 3-12 8-15 28-19 45-50 45-84 0-33-17-64-45-83-8-5-11-17-5-25 6-9 18-11 26-5 39 26 62 68 62 113 0 38-16 73-42 99 26 25 42 61 42 98 0 24-7 47-18 68 46 17 81 59 89 107l65-22c-18-29-28-63-28-97 0-102 85-185 190-185 96 0 176 71 188 162l162-55c10-4 21 2 24 11 4 10-2 20-11 24l-186 63c0 0-1 1-1 1l-301 103c0 0-1 0-1 0l-111 38c-1 0-1 0-1 1l-80 27c-10 3-21 5-32 5-37 0-70-20-86-52-63-123-95-257-95-396 0-138 32-272 95-395 0 0 0 0 0 0 0 0 0 0 0 0 1-3 3-5 4-8 13-21 47-76 51-81 18-22 45-35 73-35 11 0 22 2 32 6l285 99c10 3 15 14 11 23-3 10-14 15-24 12l-285-99c-6-2-12-3-19-3-16 0-33 7-43 20-1 1-5 7-10 14 4 0 7 0 11 0 11 0 22 2 32 5l80 28c0 0 0 0 1 0l291 101v-54c0-36 30-66 68-66 2 0 3 0 5 0v-53c0-36 31-66 68-66 37 0 67 30 67 66v160l266 92c10-5 21-8 32-8 28 0 53 17 63 41l70 24c37 13 62 47 62 86v100c0 40-26 76-65 89z m-815 240l276-95c-5-77-71-138-151-138-84 0-152 66-152 148 0 30 9 60 27 85z m373-544c-22 25-34 56-34 90 0 75 62 136 139 136 77 0 140-61 140-136 0-2 0-4 0-5l-245-85z m14-81v46l231 80v-15c0-10 2-20 7-29l-238-82z m455 196c0-23-15-44-37-51l-52-18v46l63 22c9 3 18 8 26 14l0-13z m-839-151c64 0 116 51 116 114 0 63-52 114-116 114-64 0-116-51-116-114 0-63 52-114 116-114z m0 191c43 0 79-35 79-77 0-43-36-77-79-77-43 0-79 34-79 77 0 42 36 77 79 77z m-109 177c-7 7-19 7-26 0l-3-3c-7-7-7-19 0-26 4-4 9-5 14-5 4 0 9 1 13 5l2 2c8 8 8 19 0 27z" horiz-adv-x="1286" />

<glyph glyph-name="r-cat10" unicode="&#xe82d;" d="M1624 696c-78 47-154 55-221 22-17 17-53 44-101 48-43 3-85-14-126-50-4 35-21 67-47 91-31 28-72 44-115 43-78 0-145-56-161-129l-189 117c-5 3-9 5-14 6-5 0-10 0-14-1-5-1-10-3-14-6-4-3-7-7-9-11-3-4-5-9-7-13-61 22-137 7-183-39-19-19-32-42-39-68-7-25-7-52 0-77h-12c-29 103-137 157-142 159-4 2-9 3-14 1-4-1-9-4-11-7-3-4-4-9-4-14 1-4 3-9 6-12 2-3 15-27-14-111-74 40-152 53-167 55-2 1-4 1-6 1-5 0-10-2-14-6-3-3-6-8-6-13 0-5 1-9 5-13 3-4 8-7 13-7 0 0 1 0 3-1 1-1 7-9 7-9 11-16 27-49 38-123 8-57 42-104 78-135-26-6-46-21-48-41-2-10-2-21-2-31 0-112 77-217 218-295 67-37 144-66 229-86v-71c0-6 2-11 6-14 4-4 9-6 14-6h525c6 0 11 2 15 6 4 3 6 8 6 14v71c84 20 162 49 229 86 141 78 218 183 218 295 0 10-1 21-2 31-1 6-3 11-6 16 65 23 113 77 138 127 17 35 21 74 10 111-11 37-36 69-70 89z m-610 115c62 0 110-39 120-93-11 1-24 0-38-1-8 18-22 32-39 41-18 9-38 11-58 7-19-4-36-14-49-29-12-15-19-34-19-53 0-4 1-7 1-11l-42 26c6 62 60 113 124 113z m38-99c-28-6-55-16-80-30 0 0 0 1 0 1 0 9 3 18 8 26 5 8 13 13 22 16 9 3 18 4 27 1 9-2 17-7 23-14z m-406 91l272-169c-7-10-13-21-19-32l-181 113c-5 2-9 4-15 5-5 0-10 0-15-2-4-2-9-5-12-8-4-4-6-8-8-13-12-40-1-92 30-141 29-46 75-88 129-119-10-13-21-25-25-41h-9c-72 51-127 120-154 196-28 76-25 151 7 211z m211-312c2-1 4-2 6-3-3-7-7-13-11-20-105 60-156 150-147 208l182-113c-1-2-2-5-2-7-1-6-3-12-4-18-6 2-12 2-18 0-6-2-11-6-15-11-3-6-5-13-3-20 1-6 6-12 12-16z m-239 47c27-54 64-102 110-142h-110v142z m-165 209c34 34 93 46 139 30-3-10-6-20-8-30-11 4-23 5-34 5-27 0-53-10-72-29-19-18-29-43-29-69 0-8 1-17 3-25h-26c-7 20-9 42-4 63 4 20 15 40 31 55z m133-118h-91c-4 8-6 16-6 25 0 16 6 31 18 42 11 11 27 17 43 17 10 0 20-2 30-7-1-26 1-52 6-77z m-207-39h198v-194h-242c2 17 2 33 1 50 32 49 46 97 43 144z m-127 137c30-23 68-60 82-110 9-35 6-72-10-110-8 19-17 38-30 54-18 25-41 46-66 63 15 41 23 75 24 103z m-146-193c-7 49-17 87-30 115 56-15 139-48 185-111 30-40 41-87 33-142h-14c-25 132-102 169-106 170-2 2-5 2-7 2-3 0-6 0-8-1-3-1-5-2-7-4-2-1-4-3-5-6-1-2-2-5-2-7 0-3 1-5 1-8 1-2 3-4 5-6 1-2 3-4 6-5 1 0 59-29 81-135h-16c-34 4-104 60-116 138z m960-645h-485v43c160-31 325-31 485 0v-43z m446 410h-1017c-6 0-11-2-15-5-4-4-6-9-6-14 0-5 2-10 6-14 4-4 9-6 15-6h1009c-23-74-88-144-188-199-131-73-306-113-492-113-186 0-361 40-492 113-100 55-165 125-188 199h208c6 0 11 2 15 6 4 4 6 9 6 14 0 5-2 10-6 14-4 3-9 5-15 5h-216c-2 16-2 33 0 49 2 3 13 9 31 9h1314c18 0 29-6 31-9 1-9 1-17 1-26 0-8 0-15-1-23z m-598 97c32 12 68 23 107 33 0-1 1-1 2-2 15-12 30-22 47-31h-156z m733 117c-27-55-86-115-166-117h-309c-35 11-69 26-101 45 66 15 135 28 200 38 0-1 1-2 2-3 26-26 77-68 135-68 2 0 3 0 5 0 3 0 5 1 8 2 2 1 4 2 6 4 2 2 3 4 4 7 1 2 2 5 2 7-1 3-1 6-2 8-2 2-3 4-5 6-2 2-4 3-7 4-3 1-5 1-8 1-34-1-68 21-90 40 116 17 205 25 207 25 6 1 11 3 14 7 4 4 5 9 5 15-1 5-3 9-8 13-4 3-9 5-14 4-9-1-99-9-214-26 15 27 45 65 98 73 5 1 10 4 13 8 3 4 4 9 3 14 0 6-3 10-8 13-4 3-9 4-15 4-85-14-125-85-137-114-1-2-2-3-2-5-67-11-140-24-209-40 11 31 36 78 86 95 3 1 5 2 7 4 2 1 4 3 5 6 1 2 2 4 2 7 0 3 0 5-1 8-1 2-2 4-4 6-2 2-4 4-6 5-3 1-5 2-8 2-3 0-5 0-8-1-79-26-109-106-118-139 0-2 0-3-1-5-52-13-102-29-143-46 20 23 46 59 60 129 13 67 59 109 135 124 39 7 79 8 118 3 4-1 7-1 10 0 3 1 6 3 8 5 35 32 69 48 103 45 50-3 84-44 84-45 3-3 8-6 12-7 5-1 10 0 15 3 57 33 122 29 193-14 25-15 44-39 52-67 8-27 5-57-8-83l0 0z" horiz-adv-x="1700" />

<glyph glyph-name="r-cat11" unicode="&#xe82e;" d="M1249 402c-12 0-22 9-22 21 0 133-53 233-157 298-93 58-225 88-391 88-167 0-298-30-392-88-104-65-157-165-157-298 0-12-10-21-22-21-12 0-21 9-21 21 0 275 210 427 592 427 381 0 592-152 592-427 0-12-10-21-22-21z m-937 223c-12 0-22-9-22-20 0-11 10-21 22-21 12 0 22 10 22 21 0 11-10 20-22 20z m712-20c0-11 9-21 21-21 12 0 22 10 22 21 0 11-10 20-22 20-12 0-21-9-21-20z m-65-589c12 0 21-9 21-21 0-11-9-20-21-20-12 0-22 9-22 20 0 12 10 21 22 21z m-560 552c-12 0-22-9-22-21 0-11 10-20 22-20 11 0 21 9 21 20 0 12-10 21-21 21z m677-718h-794c-108 0-195 83-195 185 0 12 9 21 21 21 12 0 22-9 22-21 0-79 68-144 152-144h794c83 0 151 65 151 144 0 12 10 21 22 21 12 0 22-9 22-21 0-102-88-185-195-185z m173 346h-1141c-59 0-108 46-108 103v41c0 57 49 103 108 103h1141c60 0 108-46 108-103v-41c0-57-48-103-108-103z m-1141 206c-35 0-65-28-65-62v-41c0-34 30-62 65-62h1141c36 0 65 28 65 62v41c0 34-29 62-65 62h-1141z m1009-343c-61 0-92 16-120 30-27 13-50 25-99 25-50 0-73-12-100-25-28-14-59-30-119-30-60 0-92 16-120 30-27 13-50 25-99 25-50 0-73-12-100-25-28-14-59-30-119-30-60 0-92 16-120 30-27 13-50 25-99 25-12 0-22 9-22 20 0 12 10 21 22 21 60 0 91-16 119-30 27-13 50-25 100-25 49 0 72 12 99 25 28 14 60 30 120 30 60 0 91-16 119-30 27-13 50-25 100-25 49 0 72 12 99 25 28 14 59 30 120 30 60 0 91-16 119-30 27-13 50-25 100-25 49 0 72 12 99 25 28 14 59 30 120 30 12 0 21-9 21-21 0-11-9-20-21-20-50 0-73-12-100-25-28-14-59-30-119-30z" horiz-adv-x="1357" />

<glyph glyph-name="r-cat12" unicode="&#xe82f;" d="M1999 250c-2 10-10 34-43 34h-76c-17 0-31-17-31-37 0-20 14-36 31-36h1c-68-44-182-108-285-163h-129c-17 0-31-16-31-36 0-20 14-36 31-36h71l-35-53h-1011l-31 53h815c17 0 31 16 31 36 0 20-14 36-31 36h-874c-103 55-216 119-284 163h1608c14 0 26 10 30 25 2 5 3 12 3 19-1 8-14 195-122 283-34 29-74 43-118 45-8 27-31 90-78 148-57 70-162 145-337 110-85-17-146-66-189-129-16 16-48 42-93 58-62 22-162 31-292-51-268-170-304-419-306-429 0-2 0-4 0-6h-179c-34 0-42-24-44-34-6-32 17-55 69-90 30-21 73-47 127-79 91-52 185-102 186-102 0 0 0-1 1-1l67-112c5-10 15-16 25-16h1042c10 0 19 5 25 14l76 117c18 9 101 54 183 100 54 32 97 58 128 79 51 35 75 58 69 90z m-1190 34h-398c13 47 33 91 62 131 20-14 48-35 64-55 7-9 12-21 16-36 3-16 16-27 29-27 3 0 6 0 8 1 17 5 27 25 22 44-5 27-15 49-29 67-18 23-44 44-66 59 12 12 25 23 38 34 26-16 68-45 88-75 8-12 19-37 24-89 2-18 15-32 31-32 1 0 2 0 3 0 17 3 29 21 27 41-5 54-18 96-36 125-20 28-49 54-75 72 16 9 31 16 45 22 57-105 120-127 158-130-8-63-10-118-11-152z m24 224c-13-1-57 1-103 71 65 0 102-36 104-39 2-2 4-3 6-5-2-9-5-18-7-27z m317-224h-168c-1 3-1 7-1 10-1 20-1 42-1 67 23 16 91 51 142 34 40-13 61-28 72-37-17-25-31-50-44-74z m3 238c46-16 86-54 108-76-10-11-19-22-27-33-17 15-46 36-95 52-55 18-114-1-152-20 3 17 6 33 11 49 1 1 2 2 3 3 17 13 105 40 152 25z m-105 67c14 15 30 27 50 36 139 62 218-51 246-101-12-9-25-19-37-30-23 26-75 77-137 97-36 12-82 9-122-2z m553-110c60-49 83-144 92-195h-57c-7 66-40 166-130 166-51 0-107-30-165-90-13-13-14-36-3-51 12-15 31-17 44-3 46 47 89 72 124 72 47 0 63-61 68-94h-350c56 94 141 189 217 214 65 21 119 15 160-19z m-487 291c232 46 317-126 341-194-10-2-21-5-31-8-9-3-17-7-26-11-13 23-38 60-76 93-53 46-122 105-236 48-163-82-155-305-162-414h-53c1 106 20 441 243 486z m-555-115c194 123 304 16 322-4-7-15-13-30-19-45-38 30-146 93-307-18-2-1-3-2-5-4-108-77-177-178-203-300h-61c7 34 52 231 273 371z" horiz-adv-x="2000" />

<glyph glyph-name="d-heart" unicode="&#xe830;" d="M830 582c0 0 0 0 0 0-4 22-105 107-197 107-101 0-194-122-220-125-24 0-24-35 0-35 73 0 159 221 351 70-23-5-39-20-47-42-57 49-150 21-175-40-9-21 24-35 34-13 20 46 102 66 139-1 31-55 128-11 115 79z m-83-62c1 34 14 49 47 46-1-45-38-61-47-46z m-134-24c1-1 54-63 54-146 0-178-144-464-234-464-64 0-365 242-394 434 349-146 218 437 543 441 13 0 49 0 69 0 14 0 37-7 37-54 0-23 36-23 36 0 0 66-39 89-73 89-22 0-54 0-74 0v0c-81-2-138-37-180-86v50c0 26-23 54-73 54-20 0-37-5-49-14-12 20-42 50-69 50-59 0-117-69-82-115 28-37 35-73 37-90-37-23-161-114-161-295 0-214 343-500 433-500 127 0 270 326 270 500 0 96-60 167-63 169-15 18-43-5-27-23z m-315 32c-17 47-50 112-101 124-2 16-9 45-26 76 35 7 57 29 68 61 16-21 14-48 13-118 0-23 36-23 36 0v54c26-7 50-5 73 4v-69c-26-42-46-88-63-132z m60 240c-28-17-55-11-69-6 9 23 58 20 69 6z m-150 46c-6-32-24-52-57-53-6 17 25 56 57 53z m-24-196c48-6 82-102 92-143-54-129-100-183-239-114 5 163 123 242 147 257z m267-143v-102l-68-117-76-46-45 30c-4 3-10 4-15 2l-55-18c-22-7-11-41 12-34l46 15 36-24-15-59c-6-23 29-31 35-8l16 64 57 33v-182c0-24 36-24 36 0v99l59-58c17-17 43 8 26 25l-85 84v59l61 106 45-22-16-76c-4-23 31-30 36-7l11 57 30-30c17-17 43 9 26 25l-54 54c-8 5-38 19-67 34v96c0 24-36 24-36 0z" horiz-adv-x="831" />

<glyph glyph-name="d-heart1" unicode="&#xe831;" d="M746 698c0 0 0 0-1 0-10 20-135 68-222 36-95-33-141-183-164-194-23-8-10-42 12-34 69 25 74 266 307 187-20-14-30-33-30-57-71 28-148-30-151-97-1-24 35-26 36-2 3 52 74 99 132 47 48-43 124 32 81 114z m-57-87c-11 32-4 52 29 60 14-44-15-72-29-60z m-118-69c1 0 73-42 101-122 62-171 24-495-61-525-60-22-427 109-521 284 379-23 55 494 360 607 13 4 47 17 65 23 14 5 38 6 54-39 8-22 42-10 34 13-22 63-68 72-100 61-20-8-50-19-69-25l0-1c-76-29-118-82-141-144l-17 49c-9 25-40 44-87 27-20-7-34-17-42-30-18 15-56 34-82 25-56-20-86-106-37-139 38-25 57-58 65-73-27-35-113-165-50-338 74-206 495-365 580-335 120 43 143 405 83 572-33 93-114 140-117 142-21 12-39-20-18-32z m-308-76c-33 40-86 91-138 85-8 15-24 40-51 64 30 19 43 48 43 82 23-15 30-41 53-108 8-23 42-11 34 12l-18 51c26 2 49 12 66 29l24-67c-10-49-12-100-13-148z m-27 251c-20-25-47-29-62-29 0 25 47 39 62 29z m-157-6c6-33-4-58-36-71-11 15 5 63 36 71z m46-197c46 11 112-70 135-106-6-142-31-209-186-191-52 159 33 275 51 297z m300-47l35-98-23-135-57-70-52 13c-5 2-11 1-15-3l-45-35c-19-15 4-44 22-29l38 30 43-11 6-62c2-24 38-20 36 4l-7 67 42 51 63-175c8-23 42-11 34 12l-35 96 77-37c21-10 37 23 15 33l-109 52-20 57 21 123 50-6 11-78c4-24 40-19 36 5l-9 58 39-18c22-11 37 22 16 33l-70 33c-9 3-42 6-75 10l-33 92c-8 23-42 11-34-12z" horiz-adv-x="765" />

<glyph glyph-name="d-teeth" unicode="&#xe832;" d="M107 431c3-8-1-17-9-20-2-1-4-2-6-2-6 0-11 4-14 10-34 81-10 175 57 230 69 56 167 57 238 4 6-5 8-15 3-22-5-7-15-8-22-3-59 45-141 43-199-4-57-46-77-125-48-193z m644-56c-7 4-17 2-21-5-37-61-63-127-77-196-4-18-8-41-13-65-9-51-19-109-33-155-20-69-36-72-38-72-3-1-31 2-80 156-11 56-23 99-36 129-16 34-33 51-52 51-20 0-37-17-52-51-13-30-25-73-36-129-50-154-78-157-81-157-2 0-18 3-38 72-13 46-24 105-33 156-5 30-10 56-15 76-18 78-50 151-95 217-42 95-16 206 65 272 80 65 193 67 276 5 5-4 12-4 18 0 20 15 42 26 66 34 8 3 12 12 10 20-3 8-11 13-20 10-23-8-45-18-65-32-93 63-217 58-305-13-92-74-122-202-73-310 1-1 1-2 2-3 43-63 74-133 91-207 5-19 9-45 15-75 26-146 49-250 99-253 1 0 2 0 3 0 36 0 69 54 109 179 0 1 1 1 1 2 30 154 57 156 58 156 0 0 27-2 58-156 0-1 0-1 0-2 41-128 75-181 112-179 51 4 74 107 100 253 4 24 8 47 12 64 14 66 39 129 73 186 5 8 2 17-5 22z m-272 166l32 107c2 6 8 11 15 11 7 0 13-5 15-11l32-107 106-33c6-2 11-8 11-15 0-7-5-13-11-15l-106-33-32-106c-2-7-8-11-15-11-7 0-13 4-15 11l-32 106-106 33c-6 2-11 8-11 15 0 7 5 13 11 15l106 33z m17-27l-66-21 66-20c5-2 9-5 10-10l20-67 20 67c2 5 6 8 10 10l66 20-66 21c-4 1-8 5-10 10l-20 66-20-66c-1-5-5-9-10-10z m28 222c0 7 4 13 11 15l66 21 21 67c2 7 8 11 14 11 7 0 13-4 15-11l21-67 66-21c7-2 11-8 11-15 0-7-4-13-11-15l-66-21-21-67c-2-7-8-11-15-11-6 0-12 4-14 11l-21 67-66 21c-7 2-11 8-11 15z m68 0l26-8c5-2 9-6 10-11l8-26 9 26c1 5 5 9 10 11l26 8-26 8c-5 2-9 6-10 11l-9 26-8-26c-1-5-5-9-10-11l-26-8z m333-177c0-7-4-13-10-15l-87-27-27-87c-2-7-8-12-15-12-6 0-12 5-14 12l-27 87-87 27c-6 2-11 8-11 15 0 7 5 13 11 15l87 27 27 88c2 6 8 11 14 11 7 0 13-5 15-11l27-88 87-27c6-2 10-8 10-15z m-68 0l-46 14c-5 2-9 6-10 11l-15 47-14-47c-1-5-5-9-10-11l-47-14 47-14c5-2 9-6 10-11l14-47 15 47c1 5 5 9 10 11l46 14z" horiz-adv-x="925" />

<glyph glyph-name="d-teeth1" unicode="&#xe833;" d="M143 292c6-5 6-14 1-20-1-1-3-3-4-3-5-3-12-2-16 2-59 53-76 139-42 210 36 73 116 113 195 97 8-1 13-9 11-16-1-8-9-13-16-11-67 13-134-21-164-82-29-60-15-133 35-177z m555 207c-7 1-14-5-15-13-7-64-3-128 12-191 4-16 9-36 15-57 12-46 26-97 33-140 10-65-2-73-4-74-2-2-26-10-127 96-31 42-58 72-80 91-26 23-46 30-63 22-16-8-24-28-23-62 1-30 8-70 20-120 19-146-3-159-6-160-1 0-16-4-59 44-29 33-60 76-88 115-16 22-30 42-41 56-46 57-101 104-164 140-72 61-93 163-52 248 41 85 135 131 227 113 6-1 12 1 15 7 11 20 25 38 41 54 6 5 6 14 1 20-5 6-14 6-20 1-16-16-31-33-42-53-101 16-202-36-247-129-47-98-23-214 60-283 1-1 1-1 2-2 60-34 113-79 156-134 11-13 25-33 41-55 79-109 138-185 181-168 1 0 1 0 2 1 30 14 37 71 21 190 0 0 0 1 0 1-35 138-13 150-13 150 1 1 24 10 109-104 0-1 1-1 1-2 83-88 132-119 162-102 41 23 19 116-16 246-5 21-11 41-14 57-14 59-18 121-12 181 1 8-5 15-13 16z m-289 29l-15 100c-1 6 2 12 8 15 6 3 12 1 17-3l68-75 100 15c6 1 12-3 15-8 2-6 1-12-3-17l-75-68 14-100c1-6-2-12-7-15-6-3-13-1-17 3l-68 75-100-15c-7-1-13 3-15 8-3 6-2 13 3 17l75 68z m24-16l-46-42 62 9c5 1 9-1 13-4l42-47-9 62c-1 5 1 10 4 13l46 42-62-9c-4-1-9 1-12 5l-42 46 9-62c0-5-1-10-5-13z m-63 193c-3 6-1 13 3 17l47 43-9 63c-1 6 3 12 8 15 6 3 12 1 17-3l43-47 63 9c6 1 12-2 15-8 2-6 1-12-3-17l-48-43 10-63c1-6-3-12-8-15-6-2-13-1-17 3l-43 48-63-10c-6-1-12 3-15 8z m56 27l25 4c5 0 10-1 13-5l17-18-4 25c0 4 1 9 5 12l18 17-25-3c-4-1-9 1-12 4l-17 19 3-25c1-5-1-10-4-13l-19-17z m345-14c3-5 2-12-3-16l-61-56 12-83c1-6-3-12-8-14-6-3-13-2-17 3l-56 61-82-12c-6-1-12 2-15 8-3 6-1 12 3 17l62 56-12 82c-1 6 2 12 8 15 5 2 12 1 16-4l56-61 83 12c6 1 12-2 14-8z m-56-27l-44-6c-5-1-9 1-13 5l-30 32 7-44c0-4-1-9-5-12l-32-30 44 6c4 1 9-1 12-4l30-33-6 44c-1 5 1 9 4 12l33 30z" horiz-adv-x="781" />

<glyph glyph-name="d-user1" unicode="&#xe834;" d="M299 584h28v-29h-28v29z m57 0h28v-29h-28v29z m446 26l28 8c-3 10-6 20-10 29l-26-10c3-9 6-18 8-27z m-334 179h28v-29h-28v29z m-32-471l-27 11c-18-49-86-50-105-2l-26-12c29-71 131-70 158 3z m175-27c-23 0-44 14-53 36l-26-12c29-70 129-70 157 0l-26 12c-9-22-29-36-52-36z m91 90l20 21c-24 23-54 36-86 36h-108v-30h108c24 0 48-9 66-27z m-260 27v30h-109c-32 0-63-13-86-36l19-21c18 18 42 27 67 27h109z m-35-280l-16-24c50-43 136-43 187 0l-17 24c-40-32-117-33-154 0z m342-11c14 35 24 72 29 114 39 25 62 69 62 115v188c0 22-1 41-4 53l-28-4c6-28 3-143 4-175h-30c0 199-128 339-328 321-34 20-35 70-1 90h83c105 0 199-60 247-156l25 13c-50 104-159 174-272 172-111 2-207 7-298-71l-39 73-44-83-80-45 83-49c-19-33-27-82-30-134v-193c0-46 24-90 62-115 10-105 68-214 152-279v-102h28v81c35-23 74-40 114-50 40 10 79 27 114 51v-82h29v103c17 14 34 29 49 46l36-68 44 83 81 45-81 46-7 12z m63 262c1-42 1-76-29-108v108h29z m-678 343l42 24 23 43 24-43 42-24-42-24-24-43-23 43-42 24z m23-187c0 36 6 71 18 104l24-45 44 82 81 46-63 35c43 36 96 57 151 61-19-27-17-68 5-94-152-25-231-164-232-316h-28v127z m0-189v33h28v-108c-19 20-28 47-28 75z m327-435c-232 65-284 276-271 492l41 41c64 66 118 11 191 78l-19 22c-76-65-118 7-210-97 6 61 26 117 57 158 92 135 357 127 435-19 17-29 28-59 35-90-57 82-146 137-245 148v29h-28c1-41-1-76-26-109l23-18c15 20 25 44 29 69 113-14 211-88 257-195-1-82 7-192-22-269l-19 36-44-82-81-46 69-39c-47-53-107-91-172-109z m251 124l-23-43-23 43-42 24 42 24 23 43 23-43 42-24-42-24z m148 169h-29v-30h-28v-29h28v-29h29v29h28v29h-28v30z m-826 438h-28v-29h-29v-29h29v-30h28v30h28v29h-28v29z m884-380h29v-29h-29v29z m0-175h29v-30h-29v30z" horiz-adv-x="970" />

<glyph glyph-name="d-user2" unicode="&#xe835;" d="M266 742c3 12 7 29 16 47 9 17 23 35 45 47 22 11 49 16 83 11 37-5 112-19 178-55 67-36 129-99 129-203 0-54-19-111-38-149-9-18-20-35-30-45-3-2-6-4-11-6-12-42-35-79-68-107-32-27-71-42-112-44-41-3-82 9-117 32-34 24-61 58-77 99l-1 0-9 11 0 0 0 1 0 0 0 0c-2 3-4 6-6 9-6 8-11 16-15 25-12 20-26 50-35 84-9 35-13 75-4 117 9 41 31 81 70 116l2 10z m41-344c11-33 31-61 59-81 27-19 60-28 93-26 32 3 63 17 88 40 24 24 41 55 47 90l3-1c0 1 0 3 0 4 0 44-6 75-11 94-1 4-2 8-3 11l-1 0h-1c-19 0-38 1-56 5-43 8-101 27-169 72-1-4-3-8-4-12-5-15-9-33-12-51-4-17-6-33-8-49l-1-6c-3-16-5-32-8-44-6-21-11-35-16-46v0z m-35 50c-11 21-20 43-26 66-8 28-11 59-4 90 7 29 23 60 57 90 6 4 9 10 9 12v0c2 3 3 6 3 9 1 3 2 7 3 11l1 4c2 11 5 22 11 33 5 10 12 19 23 25 11 6 28 10 54 6 36-5 104-18 163-49 58-32 102-80 102-156 0-35-11-74-25-106-2 21-6 37-9 51-3 9-6 18-10 27-1 4-3 7-5 10l0 1 0 0 0 0-10 15-16-3 0 0-3-1c-3 0-7 0-11 0-15-1-31 1-46 4-40 7-99 27-170 78l-18 12-14-16c-12-13-20-32-26-50-6-18-11-38-14-58-3-17-6-33-8-50l-1-6c-3-17-5-31-7-39-1-3-2-7-3-10z m24-234c-5 12-11 26-22 23-135-33-274-128-274-228v-145h896v145c0 79-87 155-189 199l0 0c0 1-1 1-1 1l0 0c-28 12-56 21-84 28-13 3-26-15-31-27h-292c-1 1-2 3-3 4z m336-35c11-3 22-7 32-11 1-9 0-19-1-30-2-12-4-23-7-34h-34c-5 0-9-1-13-4-4-3-7-6-9-11l-25-53c-2-4-3-8-3-12v-54c0-7 3-13 7-18 5-5 11-8 18-8h50v53h-25v21l15 33h69l15-33v-21h-24v-53h49c7 0 13 3 18 8 5 5 7 11 7 18v54c0 4-1 8-2 12l-25 53c-2 5-6 8-9 11-4 3-9 4-14 4h-14c3 14 5 28 7 43 24-12 46-27 66-42 48-37 66-72 66-96v-92h-796v92c0 24 18 59 66 96 24 19 52 36 83 50 1-21 4-42 10-63l0 0c-15-11-26-26-31-44-6-18-5-37 2-55 7-17 19-32 35-40 15-9 33-11 50-7 17 4 33 14 43 29 11 16 16 34 15 53-1 19-8 37-20 51-12 13-28 22-45 24-4 12-6 23-7 35-2 10-2 20-2 31 0 2 0 4 0 6 3 1 6 2 9 3l11-21h352l11 22v0z m-383-182c13 0 25 11 25 27 0 15-12 27-25 27-14 0-25-12-25-27 0-15 11-27 25-27z" horiz-adv-x="896" />

<glyph glyph-name="d-user3" unicode="&#xe836;" d="M465 741h-34v33c0 5-1 9-4 11-3 3-7 5-11 5-5 0-9-2-11-5-3-2-5-6-5-11v-33h-33c-2 0-4 0-6-1-2-1-4-2-5-3-2-2-3-4-4-6 0-1-1-3-1-5 0-3 1-5 1-6 1-2 2-4 4-6 1-1 3-2 5-3 2-1 4-1 6-1h33v-33c0-4 2-8 5-11 2-3 6-5 11-5 4 0 8 2 11 5 3 3 4 7 4 11v33h34c4 0 8 2 11 4 2 3 4 7 4 12 0 4-2 8-4 11-3 2-7 4-11 4z m285-625h8v-8c0-4 2-8 4-11 3-3 7-5 11-5 5 0 9 2 12 5 2 3 4 7 4 11v8h8c4 0 8 1 11 4 3 3 5 7 5 11 0 4-2 8-5 11-3 3-7 5-11 5h-47c-4 0-8-2-11-5-3-3-5-7-5-11 0-4 2-8 5-11 3-3 7-4 11-4z m244-132c-4 8-10 14-17 19-6 5-14 8-22 10-17 28-43 49-74 60 28 28 44 66 44 106 0 11-2 23-5 34 7 5 13 11 17 18 4 7 7 15 8 23 1 8 0 16-2 24-3 7-7 15-12 21-6 6-13 10-20 14-8 3-16 4-24 4-8 0-16-2-23-6-8-3-14-8-19-15-46 17-96 17-142 0-5 7-11 12-18 16-8 4-16 6-24 7-12 53-31 156-34 169v258c0 28-11 54-31 74-20 19-46 30-74 30h-213c-28 0-54-11-74-31-19-19-30-46-30-73v-221c-4-16-34-172-41-213-4-17-3-35 2-52 4-17 13-32 25-45-59-38-107-89-140-150-33-61-51-130-51-199 0-5 2-9 5-11 3-3 7-5 11-5 4 0 8 2 11 5 3 2 4 6 4 11 0 67 18 133 52 192 34 58 82 107 140 140 1 1 2 1 3 2 7 4 15 8 23 12-8-32-14-65-18-98-23-4-45-16-61-34-15-19-24-42-24-66v-148c0-5 2-9 5-11 3-3 7-5 11-5h31c4 0 8 2 11 5 3 2 5 6 5 11 0 4-2 8-5 11-3 3-7 4-11 4h-15v133c0 9 1 18 5 27 3 9 9 16 15 23 7 6 14 12 23 15 8 4 18 5 27 5 9 0 18-1 27-5 8-3 16-9 23-15 6-7 11-14 15-23 3-9 5-18 5-27v-133h-15c-5 0-9-1-12-4-2-3-4-7-4-11 0-5 2-9 4-11 3-3 7-5 12-5h31c4 0 8 2 11 5 3 2 4 6 4 11v148c0 24-8 48-24 66-16 19-38 31-63 34 4 33 13 87 26 114l2 1 113-154c1-2 3-4 6-5 2-1 4-2 7-2 2 0 5 1 7 2 2 1 4 3 5 5l113 154c29-10 56-23 82-40 0-3-1-7-1-10 0-20 4-40 12-58 7-19 19-35 33-49-31-11-57-31-75-59-8-2-16-5-23-10-6-5-12-11-16-19-8-15-9-36-1-69 5-19 16-35 31-47 15-11 33-18 52-18 5 0 10 1 15 2 12 3 23 9 31 18 20-19 46-19 93-19 46 0 72 0 92 19 8-9 19-15 31-18 5-1 10-2 15-2 19 0 37 7 52 18 15 12 26 28 30 47 8 33 8 53 0 69z m-106 302c5 0 10-2 14-4 4-3 8-7 10-11 2-4 3-9 2-14-1-5-3-10-6-13-9 14-21 27-35 37 5 3 10 5 15 5z m-381-15c50 24 88 67 107 119 6-28 12-57 17-78-14-7-24-19-28-34-5-14-3-30 4-43-32 16-65 28-100 36z m-271 269v66h163c-35-26-95-61-163-66z m0-31c107 6 192 78 213 97h32c35-17 115-66 115-119v-26c0-23-5-47-14-69-9-21-22-41-39-58-17-17-37-30-58-39-22-9-46-14-69-14-24 0-47 5-69 14-22 9-42 22-58 39-17 17-30 37-39 58-9 22-14 46-14 69l0 48z m360 51c-16 17-34 33-53 46h53v-46z m43-317c-6 5-9 11-9 18 0 7 2 14 7 19 5 6 12 9 19 9 7 0 13-2 19-7-15-10-27-24-36-39v0z m-403 503c0 19 7 38 21 51 14 14 33 22 52 22h213c20 0 38-8 52-22 14-13 21-32 22-51v-109h-360l0 109z m-42-440c3 18 11 57 19 97 8-28 22-55 41-78 19-23 43-41 70-54-17-4-34-9-51-15-1 0-2 0-3-1-18-7-35-14-51-23-10 9-18 21-22 34-4 13-5 27-3 40z m222-195l-94 127c61 16 126 16 187 0l-93-127z m237 68c0 73 65 99 121 99 55 0 120-26 120-99-1-32-14-61-37-83-22-22-52-34-83-34-32 0-62 12-84 34-23 22-36 51-37 83z m-10-297c-13-2-26 1-38 8-11 8-19 19-22 32-6 24-6 39-2 48 3 5 8 11 31 16 20 5 30 5 35 1 7-4 14-19 20-46 4-13 3-28-3-41-2-4-5-8-8-11-4-3-8-6-13-7v0z m131 0c-53 0-65 0-78 17 5 16 5 33 1 49-8 36-18 55-33 65-7 5-15 8-24 8 17 15 38 24 60 25 22-12 48-19 74-19 25 0 51 7 73 19 23 0 45-9 61-25-9 0-18-3-25-8-15-10-25-29-33-65-4-16-4-33 1-49-13-16-25-17-78-17l1 0z m190 39c-3-12-11-23-22-31-11-7-25-10-38-8-4 1-9 3-12 6-4 4-7 8-9 12-5 13-6 27-3 41 7 27 13 41 20 46 3 2 7 3 11 3 8-1 16-2 24-4 23-5 28-11 31-16 4-8 4-24-2-48v-1z" horiz-adv-x="1000" />

<glyph glyph-name="right-circled2" unicode="&#xf18e;" d="M643 350q0-8-5-13l-179-178q-5-5-13-5-7 0-12 5t-5 12v108h-197q-7 0-12 5t-6 12v108q0 7 6 12t12 5h197v108q0 7 5 12t12 5q7 0 14-5l178-178q5-5 5-13z m89 0q0 83-41 152t-110 111-152 41-153-41-110-111-41-152 41-152 110-111 153-41 152 41 110 111 41 152z m125 0q0-117-57-215t-156-156-215-58-216 58-155 156-58 215 58 215 155 156 216 58 215-58 156-156 57-215z" horiz-adv-x="857.1" />
</font>
</defs>
</svg>
