<svg xmlns="http://www.w3.org/2000/svg" width="214" height="267" viewBox="0 0 214 267" fill="none"><path fill-rule="evenodd" clip-rule="evenodd" d="M198.028 51.2022C208.675 68.4739 212.995 88.203 213.697 107.878C214.302 124.791 205.676 139.049 201.743 155.187C197.312 173.367 198.141 192.639 189.115 208.744C176.389 231.455 165.665 262.674 139.399 266.44C113.74 270.119 94.6368 239.056 71.1693 225.656C47.5607 212.175 8.4357 213.277 1.06171 187.448C-7.03292 159.094 37.288 142.93 39.3567 114.222C41.3122 87.086 -0.372206 60.2623 11.9246 36.7023C23.4691 14.5839 61.2936 31.8366 85.6913 25.4479C107.812 19.6555 124.843 -4.17781 147.876 1.10267C170.885 6.37762 185.422 30.7517 198.028 51.2022Z" fill="#FF3C48"></path></svg>