<svg xmlns="http://www.w3.org/2000/svg" width="241" height="90" viewBox="0 0 241 90" fill="none"><path d="M238.241 0.70828C238.691 0.786425 239.127 0.972277 239.515 1.26842C240.796 2.2486 241.04 4.08526 240.06 5.37033C238.416 7.5202 199.421 57.9853 166.004 55.7737C154.703 55.0263 145.435 48.4449 138.43 36.2182C135.828 31.6753 131.856 26.2913 127.776 26.5293C119.696 26.9716 111.102 46.6446 104.826 61.0114C98.2358 76.0929 93.8828 86.0562 87.7391 85.1066C83.2381 84.3862 79.7503 78.5902 76.936 51.9102C76.4582 47.3714 75.5032 46.5667 75.4927 46.5589C73.0311 46.7041 65.3748 57.1653 60.3107 64.085C50.4038 77.6243 41.0372 90.4288 32.4941 88.9431C32.3443 88.917 32.1955 88.8852 32.0473 88.8505C25.7852 87.3872 23.6407 79.0712 22.5698 72.9441C20.8799 63.2427 19.1927 60.6591 18.6199 60.0278C16.2676 61.4901 12.025 71.3478 9.70782 76.7373C8.45347 79.65 7.21813 82.5214 6.01856 85.0338C5.32313 86.4901 3.57008 87.1002 2.12009 86.4113C0.665334 85.7157 0.0468468 83.9655 0.74516 82.5096C1.91541 80.0635 3.11752 77.2635 4.33869 74.4222C9.94723 61.386 13.6719 53.4313 19.3226 54.0932C23.6972 54.6193 26.212 59.7649 28.3334 71.9325C30.0251 81.6401 32.6246 82.9714 33.3803 83.1474C33.4259 83.1583 33.4691 83.1658 33.5152 83.1738C38.4666 84.0349 48.7599 69.9628 55.5948 60.6242C65.5395 47.038 71.4605 39.4058 77.1509 40.9658C81.3149 42.088 82.3385 47.396 82.7502 51.2906C85.1042 73.622 87.727 78.2486 88.6219 79.1944C91.1787 77.631 95.9467 66.7151 99.4626 58.6646C107.11 41.1589 115.779 21.3209 127.454 20.6839C133.212 20.3723 138.456 24.5012 143.497 33.3062C149.55 43.8761 157.029 49.3146 166.385 49.9317C196.689 51.9434 235.033 2.31289 235.414 1.81178C236.101 0.915369 237.204 0.527946 238.241 0.70828Z" fill="#FF3C48"></path></svg>