<svg xmlns="http://www.w3.org/2000/svg" width="56" height="58" viewBox="0 0 56 58" fill="none"><path d="M42 0C34.3 0 28 6.38402 28 14.1867C28 16.5322 28.8937 18.9251 30.0417 21.5756C31.2573 24.3333 32.6204 27.0217 34.125 29.6289C35.9972 32.8824 37.9921 36.0618 40.1053 39.16L42 41.969L43.897 39.16C43.897 39.16 46.9047 34.8213 49.875 29.6313C51.3797 27.0233 52.7428 24.3341 53.9583 21.5756C55.1063 18.9251 56 16.5322 56 14.1867C56 6.38402 49.7 0 42 0ZM18.5943 4.58231L0 12.6356V58L18.739 49.8001L37.4057 56.8934L56 48.8377V28.2245C54.5533 30.996 52.9964 33.7071 51.3333 36.3511V45.7356L39.6667 50.76V46.9178L36.239 41.8934C35.8219 41.2798 35.4089 40.6635 35 40.0444V50.9799L21 45.6599V10.4934L23.5527 11.4558C23.7703 9.88087 24.1867 8.34083 24.7917 6.87346L18.5943 4.58231ZM42 4.7289C47.1777 4.7289 51.3333 8.93999 51.3333 14.1867C51.3333 15.1018 50.7687 17.2605 49.728 19.6557C48.6897 22.0461 47.222 24.7629 45.7917 27.2645C43.8877 30.5889 43.0663 31.7711 42 33.3979C40.9337 31.7711 40.1123 30.5889 38.2083 27.2645C36.778 24.7629 35.3103 22.0461 34.2697 19.6533C33.2313 17.2652 32.6667 15.1018 32.6667 14.1867C32.6667 8.93999 36.8223 4.7289 42 4.7289ZM16.3333 10.64V45.738L4.66667 50.7624V15.7378L16.3333 10.64ZM42 10.64C41.0717 10.64 40.1815 11.0137 39.5251 11.6788C38.8687 12.344 38.5 13.2461 38.5 14.1867C38.5 15.1273 38.8687 16.0295 39.5251 16.6946C40.1815 17.3597 41.0717 17.7334 42 17.7334C42.9283 17.7334 43.8185 17.3597 44.4749 16.6946C45.1312 16.0295 45.5 15.1273 45.5 14.1867C45.5 13.2461 45.1312 12.344 44.4749 11.6788C43.8185 11.0137 42.9283 10.64 42 10.64Z" fill="#FF3C48"></path></svg>