<svg xmlns="http://www.w3.org/2000/svg" width="151" height="130" viewBox="0 0 151 130" fill="none"><path d="M7.03227 22.5894C7.03512 22.9391 6.93386 23.2817 6.74139 23.5737C6.54892 23.8657 6.27393 24.0937 5.95144 24.2289C5.62895 24.364 5.27355 24.4001 4.93047 24.3326C4.5874 24.2651 4.27217 24.097 4.02493 23.8497C3.77769 23.6024 3.60961 23.2871 3.54209 22.944C3.47458 22.6009 3.51068 22.2454 3.64581 21.9228C3.78093 21.6003 4.00897 21.3252 4.30088 21.1327C4.59279 20.9402 4.93537 20.839 5.28501 20.8418C5.74725 20.8456 6.18948 21.0309 6.51634 21.3578C6.84319 21.6848 7.02849 22.1271 7.03227 22.5894Z" fill="#FF3C48"></path><path d="M35.8258 22.5894C35.8287 22.9391 35.7274 23.2817 35.5349 23.5737C35.3425 23.8657 35.0675 24.0937 34.745 24.2289C34.4225 24.364 34.0671 24.4001 33.724 24.3326C33.3809 24.2651 33.0657 24.097 32.8185 23.8497C32.5712 23.6024 32.4031 23.2871 32.3356 22.944C32.2681 22.6009 32.3042 22.2454 32.4393 21.9228C32.5745 21.6003 32.8025 21.3252 33.0944 21.1327C33.3863 20.9402 33.7289 20.839 34.0786 20.8418C34.5408 20.8456 34.983 21.0309 35.3099 21.3578C35.6367 21.6848 35.822 22.1271 35.8258 22.5894Z" fill="#FF3C48"></path><path d="M64.6193 22.5894C64.6222 22.9391 64.5209 23.2817 64.3285 23.5737C64.136 23.8657 63.861 24.0937 63.5385 24.2289C63.216 24.364 62.8606 24.4001 62.5175 24.3326C62.1745 24.2651 61.8592 24.097 61.612 23.8497C61.3648 23.6024 61.1967 23.2871 61.1292 22.944C61.0616 22.6009 61.0978 22.2454 61.2329 21.9228C61.368 21.6003 61.596 21.3252 61.888 21.1327C62.1799 20.9402 62.5224 20.839 62.8721 20.8418C63.3343 20.8456 63.7765 21.0309 64.1034 21.3578C64.4303 21.6848 64.6156 22.1271 64.6193 22.5894Z" fill="#FF3C48"></path><path d="M93.4129 22.5894C93.4157 22.9391 93.3145 23.2817 93.122 23.5737C92.9295 23.8657 92.6545 24.0937 92.332 24.2289C92.0096 24.364 91.6542 24.4001 91.3111 24.3326C90.968 24.2651 90.6528 24.097 90.4055 23.8497C90.1583 23.6024 89.9902 23.2871 89.9227 22.944C89.8552 22.6009 89.8913 22.2454 90.0264 21.9228C90.1615 21.6003 90.3896 21.3252 90.6815 21.1327C90.9734 20.9402 91.316 20.839 91.6656 20.8418C92.1279 20.8456 92.5701 21.0309 92.8969 21.3578C93.2238 21.6848 93.4091 22.1271 93.4129 22.5894Z" fill="#FF3C48"></path><path d="M122.206 22.5894C122.209 22.9391 122.108 23.2817 121.916 23.5737C121.723 23.8657 121.448 24.0937 121.126 24.2289C120.803 24.364 120.448 24.4001 120.105 24.3326C119.762 24.2651 119.446 24.097 119.199 23.8497C118.952 23.6024 118.784 23.2871 118.716 22.944C118.649 22.6009 118.685 22.2454 118.82 21.9228C118.955 21.6003 119.183 21.3252 119.475 21.1327C119.767 20.9402 120.11 20.839 120.459 20.8418C120.921 20.8456 121.364 21.0309 121.69 21.3578C122.017 21.6848 122.203 22.1271 122.206 22.5894Z" fill="#FF3C48"></path><path d="M7.03227 42.2459C6.9925 42.6839 6.79046 43.0911 6.46583 43.3876C6.1412 43.6842 5.71744 43.8486 5.27779 43.8486C4.83815 43.8486 4.41439 43.6842 4.08976 43.3876C3.76513 43.0911 3.56309 42.6839 3.52332 42.2459C3.50119 42.0021 3.53009 41.7564 3.6082 41.5243C3.68631 41.2923 3.8119 41.0791 3.97698 40.8983C4.14205 40.7176 4.34298 40.5732 4.56695 40.4744C4.79092 40.3756 5.03301 40.3246 5.27779 40.3246C5.52258 40.3246 5.76467 40.3756 5.98864 40.4744C6.21261 40.5732 6.41354 40.7176 6.57861 40.8983C6.74368 41.0791 6.86928 41.2923 6.94739 41.5243C7.0255 41.7564 7.0544 42.0021 7.03227 42.2459Z" fill="#FF3C48"></path><path d="M35.8258 42.2459C35.786 42.6839 35.584 43.0911 35.2594 43.3876C34.9347 43.6842 34.511 43.8486 34.0713 43.8486C33.6317 43.8486 33.2079 43.6842 32.8833 43.3876C32.5587 43.0911 32.3566 42.6839 32.3169 42.2459C32.2947 42.0021 32.3236 41.7564 32.4017 41.5243C32.4798 41.2923 32.6054 41.0791 32.7705 40.8983C32.9356 40.7176 33.1365 40.5732 33.3605 40.4744C33.5845 40.3756 33.8265 40.3246 34.0713 40.3246C34.3161 40.3246 34.5582 40.3756 34.7822 40.4744C35.0061 40.5732 35.2071 40.7176 35.3721 40.8983C35.5372 41.0791 35.6628 41.2923 35.7409 41.5243C35.819 41.7564 35.8479 42.0021 35.8258 42.2459Z" fill="#FF3C48"></path><path d="M64.6193 42.2459C64.5796 42.6839 64.3775 43.0911 64.0529 43.3876C63.7283 43.6842 63.3045 43.8486 62.8649 43.8486C62.4252 43.8486 62.0015 43.6842 61.6768 43.3876C61.3522 43.0911 61.1502 42.6839 61.1104 42.2459C61.0883 42.0021 61.1172 41.7564 61.1953 41.5243C61.2734 41.2923 61.399 41.0791 61.5641 40.8983C61.7291 40.7176 61.93 40.5732 62.154 40.4744C62.378 40.3756 62.6201 40.3246 62.8649 40.3246C63.1096 40.3246 63.3517 40.3756 63.5757 40.4744C63.7997 40.5732 64.0006 40.7176 64.1657 40.8983C64.3308 41.0791 64.4564 41.2923 64.5345 41.5243C64.6126 41.7564 64.6415 42.0021 64.6193 42.2459Z" fill="#FF3C48"></path><path d="M93.4129 42.2459C93.4043 42.5931 93.2934 42.9299 93.0941 43.2142C92.8947 43.4985 92.6159 43.7176 92.2925 43.8439C91.9691 43.9702 91.6156 43.9981 91.2764 43.9241C90.9372 43.8501 90.6274 43.6776 90.3859 43.4281C90.1445 43.1786 89.9821 42.8633 89.9192 42.5218C89.8563 42.1803 89.8957 41.8278 90.0324 41.5087C90.1691 41.1895 90.3971 40.9178 90.6876 40.7278C90.9782 40.5378 91.3185 40.4379 91.6656 40.4406C91.9 40.4405 92.132 40.4875 92.3479 40.5789C92.5637 40.6703 92.759 40.8043 92.922 40.9727C93.085 41.1412 93.2125 41.3407 93.2968 41.5594C93.3811 41.7782 93.4206 42.0116 93.4129 42.2459Z" fill="#FF3C48"></path><path d="M122.206 42.2459C122.198 42.5931 122.087 42.9299 121.888 43.2142C121.688 43.4985 121.409 43.7176 121.086 43.8439C120.763 43.9702 120.409 43.9981 120.07 43.9241C119.731 43.8501 119.421 43.6776 119.179 43.4281C118.938 43.1786 118.776 42.8633 118.713 42.5218C118.65 42.1803 118.689 41.8278 118.826 41.5087C118.963 41.1895 119.191 40.9178 119.481 40.7278C119.772 40.5378 120.112 40.4379 120.459 40.4406C120.694 40.4405 120.926 40.4875 121.141 40.5789C121.357 40.6703 121.553 40.8043 121.716 40.9727C121.879 41.1412 122.006 41.3407 122.09 41.5594C122.175 41.7782 122.214 42.0116 122.206 42.2459Z" fill="#FF3C48"></path><path d="M7.03227 61.8881C7.03512 62.2378 6.93386 62.5804 6.74139 62.8724C6.54892 63.1643 6.27393 63.3924 5.95144 63.5276C5.62895 63.6627 5.27355 63.6988 4.93047 63.6313C4.5874 63.5638 4.27217 63.3957 4.02493 63.1484C3.77769 62.9011 3.60961 62.5858 3.54209 62.2427C3.47458 61.8995 3.51068 61.5441 3.64581 61.2215C3.78093 60.899 4.00897 60.6239 4.30088 60.4314C4.59279 60.2389 4.93537 60.1376 5.28501 60.1405C5.74725 60.1443 6.18948 60.3296 6.51634 60.6565C6.84319 60.9834 7.02849 61.4257 7.03227 61.8881Z" fill="#FF3C48"></path><path d="M35.8258 61.8881C35.8287 62.2378 35.7274 62.5804 35.5349 62.8724C35.3425 63.1643 35.0675 63.3924 34.745 63.5276C34.4225 63.6627 34.0671 63.6988 33.724 63.6313C33.3809 63.5638 33.0657 63.3957 32.8185 63.1484C32.5712 62.9011 32.4031 62.5858 32.3356 62.2427C32.2681 61.8995 32.3042 61.5441 32.4393 61.2215C32.5745 60.899 32.8025 60.6239 33.0944 60.4314C33.3863 60.2389 33.7289 60.1376 34.0786 60.1405C34.5408 60.1443 34.983 60.3296 35.3099 60.6565C35.6367 60.9834 35.822 61.4257 35.8258 61.8881Z" fill="#FF3C48"></path><path d="M64.6193 61.8881C64.6222 62.2378 64.5209 62.5804 64.3285 62.8724C64.136 63.1643 63.861 63.3924 63.5385 63.5276C63.216 63.6627 62.8606 63.6988 62.5175 63.6313C62.1745 63.5638 61.8592 63.3957 61.612 63.1484C61.3648 62.9011 61.1967 62.5858 61.1292 62.2427C61.0616 61.8995 61.0978 61.5441 61.2329 61.2215C61.368 60.899 61.596 60.6239 61.888 60.4314C62.1799 60.2389 62.5224 60.1376 62.8721 60.1405C63.3343 60.1443 63.7765 60.3296 64.1034 60.6565C64.4303 60.9834 64.6156 61.4257 64.6193 61.8881Z" fill="#FF3C48"></path><path d="M93.4129 61.8881C93.4157 62.2378 93.3145 62.5804 93.122 62.8724C92.9295 63.1643 92.6545 63.3924 92.332 63.5276C92.0096 63.6627 91.6542 63.6988 91.3111 63.6313C90.968 63.5638 90.6528 63.3957 90.4055 63.1484C90.1583 62.9011 89.9902 62.5858 89.9227 62.2427C89.8552 61.8995 89.8913 61.5441 90.0264 61.2215C90.1615 60.899 90.3896 60.6239 90.6815 60.4314C90.9734 60.2389 91.316 60.1376 91.6656 60.1405C92.1279 60.1443 92.5701 60.3296 92.8969 60.6565C93.2238 60.9834 93.4091 61.4257 93.4129 61.8881Z" fill="#FF3C48"></path><path d="M122.206 61.8881C122.209 62.2378 122.108 62.5804 121.916 62.8724C121.723 63.1643 121.448 63.3924 121.126 63.5276C120.803 63.6627 120.448 63.6988 120.105 63.6313C119.762 63.5638 119.446 63.3957 119.199 63.1484C118.952 62.9011 118.784 62.5858 118.716 62.2427C118.649 61.8995 118.685 61.5441 118.82 61.2215C118.955 60.899 119.183 60.6239 119.475 60.4314C119.767 60.2389 120.11 60.1376 120.459 60.1405C120.921 60.1443 121.364 60.3296 121.69 60.6565C122.017 60.9834 122.203 61.4257 122.206 61.8881Z" fill="#FF3C48"></path><path d="M7.03227 81.5446C6.9925 81.9825 6.79046 82.3898 6.46583 82.6863C6.1412 82.9829 5.71744 83.1473 5.27779 83.1473C4.83815 83.1473 4.41439 82.9829 4.08976 82.6863C3.76513 82.3898 3.56309 81.9825 3.52332 81.5446C3.50119 81.3008 3.53009 81.055 3.6082 80.823C3.68631 80.591 3.8119 80.3778 3.97698 80.197C4.14205 80.0162 4.34298 79.8718 4.56695 79.7731C4.79092 79.6743 5.03301 79.6232 5.27779 79.6232C5.52258 79.6232 5.76467 79.6743 5.98864 79.7731C6.21261 79.8718 6.41354 80.0162 6.57861 80.197C6.74368 80.3778 6.86928 80.591 6.94739 80.823C7.0255 81.055 7.0544 81.3008 7.03227 81.5446Z" fill="#FF3C48"></path><path d="M35.8258 81.5446C35.786 81.9825 35.584 82.3898 35.2594 82.6863C34.9347 82.9829 34.511 83.1473 34.0713 83.1473C33.6317 83.1473 33.2079 82.9829 32.8833 82.6863C32.5587 82.3898 32.3566 81.9825 32.3169 81.5446C32.2947 81.3008 32.3236 81.055 32.4017 80.823C32.4798 80.591 32.6054 80.3778 32.7705 80.197C32.9356 80.0162 33.1365 79.8718 33.3605 79.7731C33.5845 79.6743 33.8265 79.6232 34.0713 79.6232C34.3161 79.6232 34.5582 79.6743 34.7822 79.7731C35.0061 79.8718 35.2071 80.0162 35.3721 80.197C35.5372 80.3778 35.6628 80.591 35.7409 80.823C35.819 81.055 35.8479 81.3008 35.8258 81.5446Z" fill="#FF3C48"></path><path d="M64.6193 81.5446C64.5796 81.9825 64.3775 82.3898 64.0529 82.6863C63.7283 82.9829 63.3045 83.1473 62.8649 83.1473C62.4252 83.1473 62.0015 82.9829 61.6768 82.6863C61.3522 82.3898 61.1502 81.9825 61.1104 81.5446C61.0883 81.3008 61.1172 81.055 61.1953 80.823C61.2734 80.591 61.399 80.3778 61.5641 80.197C61.7291 80.0162 61.93 79.8718 62.154 79.7731C62.378 79.6743 62.6201 79.6232 62.8649 79.6232C63.1096 79.6232 63.3517 79.6743 63.5757 79.7731C63.7997 79.8718 64.0006 80.0162 64.1657 80.197C64.3308 80.3778 64.4564 80.591 64.5345 80.823C64.6126 81.055 64.6415 81.3008 64.6193 81.5446Z" fill="#FF3C48"></path><path d="M93.4129 81.5446C93.4129 81.8937 93.3092 82.235 93.1149 82.525C92.9207 82.8151 92.6447 83.0409 92.322 83.1738C91.9992 83.3068 91.6443 83.3408 91.3021 83.2716C90.96 83.2025 90.6462 83.0332 90.4004 82.7854C90.1546 82.5375 89.9879 82.2222 89.9216 81.8794C89.8553 81.5367 89.8922 81.182 90.0278 80.8603C90.1633 80.5386 90.3914 80.2644 90.683 80.0725C90.9746 79.8806 91.3166 79.7797 91.6656 79.7826C91.8963 79.7826 92.1247 79.8283 92.3376 79.917C92.5506 80.0057 92.7438 80.1357 92.9062 80.2996C93.0687 80.4634 93.1971 80.6577 93.284 80.8714C93.371 81.0851 93.4148 81.3139 93.4129 81.5446Z" fill="#FF3C48"></path><path d="M122.206 81.5446C122.206 81.8937 122.103 82.235 121.908 82.525C121.714 82.8151 121.438 83.0409 121.116 83.1738C120.793 83.3068 120.438 83.3408 120.096 83.2716C119.754 83.2025 119.44 83.0332 119.194 82.7854C118.948 82.5375 118.781 82.2222 118.715 81.8794C118.649 81.5367 118.686 81.182 118.821 80.8603C118.957 80.5386 119.185 80.2644 119.477 80.0725C119.768 79.8806 120.11 79.7797 120.459 79.7826C120.69 79.7826 120.918 79.8283 121.131 79.917C121.344 80.0057 121.537 80.1357 121.7 80.2996C121.862 80.4634 121.991 80.6577 122.078 80.8714C122.165 81.0851 122.208 81.3139 122.206 81.5446Z" fill="#FF3C48"></path><path d="M7.03227 101.187C7.03512 101.536 6.93386 101.879 6.74139 102.171C6.54892 102.463 6.27393 102.691 5.95144 102.826C5.62895 102.961 5.27355 102.997 4.93047 102.93C4.5874 102.862 4.27217 102.694 4.02493 102.447C3.77769 102.2 3.60961 101.884 3.54209 101.541C3.47458 101.198 3.51068 100.843 3.64581 100.52C3.78093 100.198 4.00897 99.9226 4.30088 99.7301C4.59279 99.5376 4.93537 99.4363 5.28501 99.4392C5.74725 99.4429 6.18948 99.6283 6.51634 99.9552C6.84319 100.282 7.02849 100.724 7.03227 101.187Z" fill="#FF3C48"></path><path d="M35.8258 101.187C35.8287 101.536 35.7274 101.879 35.5349 102.171C35.3425 102.463 35.0675 102.691 34.745 102.826C34.4225 102.961 34.0671 102.997 33.724 102.93C33.3809 102.862 33.0657 102.694 32.8185 102.447C32.5712 102.2 32.4031 101.884 32.3356 101.541C32.2681 101.198 32.3042 100.843 32.4393 100.52C32.5745 100.198 32.8025 99.9226 33.0944 99.7301C33.3863 99.5376 33.7289 99.4363 34.0786 99.4392C34.5408 99.4429 34.983 99.6283 35.3099 99.9552C35.6367 100.282 35.822 100.724 35.8258 101.187Z" fill="#FF3C48"></path><path d="M64.6193 101.187C64.6222 101.536 64.5209 101.879 64.3285 102.171C64.136 102.463 63.861 102.691 63.5385 102.826C63.216 102.961 62.8606 102.997 62.5175 102.93C62.1745 102.862 61.8592 102.694 61.612 102.447C61.3648 102.2 61.1967 101.884 61.1292 101.541C61.0616 101.198 61.0978 100.843 61.2329 100.52C61.368 100.198 61.596 99.9226 61.888 99.7301C62.1799 99.5376 62.5224 99.4363 62.8721 99.4392C63.3343 99.4429 63.7765 99.6283 64.1034 99.9552C64.4303 100.282 64.6156 100.724 64.6193 101.187Z" fill="#FF3C48"></path><path d="M93.4129 101.187C93.4157 101.536 93.3145 101.879 93.122 102.171C92.9295 102.463 92.6545 102.691 92.332 102.826C92.0096 102.961 91.6542 102.997 91.3111 102.93C90.968 102.862 90.6528 102.694 90.4055 102.447C90.1583 102.2 89.9902 101.884 89.9227 101.541C89.8552 101.198 89.8913 100.843 90.0264 100.52C90.1615 100.198 90.3896 99.9226 90.6815 99.7301C90.9734 99.5376 91.316 99.4363 91.6656 99.4392C92.1279 99.4429 92.5701 99.6283 92.8969 99.9552C93.2238 100.282 93.4091 100.724 93.4129 101.187Z" fill="#FF3C48"></path><path d="M122.206 101.187C122.209 101.536 122.108 101.879 121.916 102.171C121.723 102.463 121.448 102.691 121.126 102.826C120.803 102.961 120.448 102.997 120.105 102.93C119.762 102.862 119.446 102.694 119.199 102.447C118.952 102.2 118.784 101.884 118.716 101.541C118.649 101.198 118.685 100.843 118.82 100.52C118.955 100.198 119.183 99.9226 119.475 99.7301C119.767 99.5376 120.11 99.4363 120.459 99.4392C120.921 99.4429 121.364 99.6283 121.69 99.9552C122.017 100.282 122.203 100.724 122.206 101.187Z" fill="#FF3C48"></path><path d="M150.264 24.3514C150.264 24.6999 150.16 25.0406 149.967 25.3303C149.773 25.6201 149.498 25.8459 149.176 25.9793C148.854 26.1126 148.5 26.1475 148.158 26.0796C147.816 26.0116 147.502 25.8438 147.256 25.5973C147.01 25.3509 146.842 25.0369 146.774 24.6951C146.706 24.3534 146.741 23.9991 146.874 23.6771C147.008 23.3551 147.233 23.0799 147.523 22.8863C147.813 22.6927 148.153 22.5894 148.502 22.5894C148.969 22.5894 149.417 22.775 149.748 23.1055C150.078 23.4359 150.264 23.8841 150.264 24.3514Z" fill="#FF3C48"></path><path d="M150.264 43.9935C150.286 44.2373 150.257 44.4831 150.179 44.7151C150.101 44.9472 149.975 45.1604 149.81 45.3411C149.645 45.5219 149.444 45.6663 149.22 45.7651C148.996 45.8639 148.754 45.9149 148.509 45.9149C148.264 45.9149 148.022 45.8639 147.798 45.7651C147.574 45.6663 147.373 45.5219 147.208 45.3411C147.043 45.1604 146.918 44.9472 146.839 44.7151C146.761 44.4831 146.732 44.2373 146.755 43.9935C146.794 43.5556 146.996 43.1484 147.321 42.8518C147.646 42.5553 148.069 42.3909 148.509 42.3909C148.949 42.3909 149.372 42.5553 149.697 42.8518C150.022 43.1484 150.224 43.5556 150.264 43.9935Z" fill="#FF3C48"></path><path d="M150.264 63.6501C150.264 63.9986 150.16 64.3392 149.967 64.629C149.773 64.9188 149.498 65.1446 149.176 65.278C148.854 65.4113 148.5 65.4462 148.158 65.3782C147.816 65.3102 147.502 65.1424 147.256 64.896C147.01 64.6496 146.842 64.3356 146.774 63.9938C146.706 63.652 146.741 63.2977 146.874 62.9758C147.008 62.6538 147.233 62.3786 147.523 62.185C147.813 61.9914 148.153 61.8881 148.502 61.8881C148.969 61.8881 149.417 62.0737 149.748 62.4041C150.078 62.7346 150.264 63.1828 150.264 63.6501Z" fill="#FF3C48"></path><path d="M150.264 83.2922C150.286 83.536 150.257 83.7818 150.179 84.0138C150.101 84.2458 149.975 84.459 149.81 84.6398C149.645 84.8206 149.444 84.965 149.22 85.0638C148.996 85.1625 148.754 85.2136 148.509 85.2136C148.264 85.2136 148.022 85.1625 147.798 85.0638C147.574 84.965 147.373 84.8206 147.208 84.6398C147.043 84.459 146.918 84.2458 146.839 84.0138C146.761 83.7818 146.732 83.536 146.755 83.2922C146.794 82.8543 146.996 82.447 147.321 82.1505C147.646 81.854 148.069 81.6895 148.509 81.6895C148.949 81.6895 149.372 81.854 149.697 82.1505C150.022 82.447 150.224 82.8543 150.264 83.2922Z" fill="#FF3C48"></path><path d="M150.264 102.949C150.264 103.297 150.16 103.638 149.967 103.928C149.773 104.217 149.498 104.443 149.176 104.577C148.854 104.71 148.5 104.745 148.158 104.677C147.816 104.609 147.502 104.441 147.256 104.195C147.01 103.948 146.842 103.634 146.774 103.293C146.706 102.951 146.741 102.596 146.874 102.274C147.008 101.952 147.233 101.677 147.523 101.484C147.813 101.29 148.153 101.187 148.502 101.187C148.969 101.187 149.417 101.372 149.748 101.703C150.078 102.033 150.264 102.481 150.264 102.949Z" fill="#FF3C48"></path><path d="M7.78315 1.76296C7.78315 2.11145 7.67983 2.45212 7.48625 2.74188C7.29267 3.03164 7.01754 3.25749 6.69563 3.39085C6.37372 3.52421 6.01951 3.55911 5.67777 3.49112C5.33604 3.42313 5.02213 3.25531 4.77576 3.00889C4.52938 2.76247 4.36159 2.44851 4.29362 2.10671C4.22564 1.76492 4.26053 1.41063 4.39387 1.08867C4.52721 0.766702 4.75301 0.491513 5.04272 0.2979C5.33242 0.104288 5.67303 0.000947384 6.02146 0.000947384C6.48869 0.000947384 6.93678 0.186588 7.26716 0.517029C7.59754 0.847471 7.78315 1.29565 7.78315 1.76296Z" fill="#FF3C48"></path><path d="M36.5767 1.76296C36.5767 2.11145 36.4734 2.45212 36.2798 2.74188C36.0862 3.03164 35.8111 3.25749 35.4892 3.39085C35.1673 3.52421 34.813 3.55911 34.4713 3.49112C34.1296 3.42313 33.8157 3.25531 33.5693 3.00889C33.3229 2.76247 33.1551 2.44851 33.0872 2.10671C33.0192 1.76492 33.0541 1.41063 33.1874 1.08867C33.3207 0.766702 33.5465 0.491513 33.8363 0.2979C34.126 0.104288 34.4666 0.000947384 34.815 0.000947384C35.2822 0.000947384 35.7303 0.186588 36.0607 0.517029C36.3911 0.847471 36.5767 1.29565 36.5767 1.76296Z" fill="#FF3C48"></path><path d="M65.3702 1.76296C65.37 2.10895 65.268 2.44724 65.0769 2.73561C64.8857 3.02399 64.6139 3.2497 64.2954 3.3846C63.9768 3.51949 63.6256 3.55759 63.2855 3.49416C62.9455 3.43072 62.6316 3.26855 62.3831 3.02788C62.1346 2.7872 61.9624 2.47867 61.888 2.14076C61.8137 1.80286 61.8404 1.45053 61.9649 1.12774C62.0895 0.804938 62.3063 0.525951 62.5883 0.325573C62.8703 0.125194 63.205 0.0122915 63.5508 0.000947384C63.7869 -0.00680129 64.0222 0.0330469 64.2427 0.118121C64.4631 0.203194 64.6642 0.331755 64.834 0.496151C65.0037 0.660547 65.1387 0.857419 65.2308 1.07505C65.3229 1.29268 65.3703 1.52663 65.3702 1.76296Z" fill="#FF3C48"></path><path d="M94.1637 1.76296C94.1637 2.11267 94.0596 2.45446 93.8647 2.74482C93.6698 3.03517 93.393 3.26096 93.0694 3.39343C92.7458 3.5259 92.3901 3.55907 92.0476 3.48871C91.7051 3.41834 91.3913 3.24764 91.1461 2.99832C90.9009 2.749 90.7355 2.43234 90.6708 2.08866C90.6061 1.74499 90.6451 1.38983 90.7829 1.06841C90.9207 0.746993 91.151 0.47385 91.4445 0.283756C91.7379 0.0936616 92.0813 -0.00478562 92.4309 0.000947384C92.8932 0.00852694 93.3339 0.197508 93.658 0.527132C93.9822 0.856755 94.1638 1.30061 94.1637 1.76296Z" fill="#FF3C48"></path><path d="M122.957 1.76296C122.957 2.11145 122.854 2.45212 122.66 2.74188C122.467 3.03164 122.192 3.25749 121.87 3.39085C121.548 3.52421 121.194 3.55911 120.852 3.49112C120.51 3.42313 120.196 3.25531 119.95 3.00889C119.704 2.76247 119.536 2.44851 119.468 2.10671C119.4 1.76492 119.435 1.41063 119.568 1.08867C119.701 0.766702 119.927 0.491513 120.217 0.2979C120.507 0.104288 120.847 0.000947384 121.196 0.000947384C121.663 0.000947384 122.111 0.186588 122.441 0.517029C122.772 0.847471 122.957 1.29565 122.957 1.76296Z" fill="#FF3C48"></path><path d="M151 3.51053C151.003 3.86024 150.902 4.20289 150.709 4.49485C150.517 4.78681 150.242 5.01489 149.919 5.15004C149.597 5.28519 149.241 5.3213 148.898 5.25377C148.555 5.18624 148.24 5.01814 147.993 4.77085C147.745 4.52356 147.577 4.20828 147.51 3.86514C147.442 3.522 147.478 3.16653 147.613 2.84398C147.749 2.52143 147.977 2.2464 148.269 2.05389C148.56 1.86138 148.903 1.76011 149.253 1.76296C149.715 1.76674 150.157 1.95207 150.484 2.27898C150.811 2.6059 150.996 3.04821 151 3.51053Z" fill="#FF3C48"></path><path d="M3.52332 126.476C3.52332 126.939 3.33924 127.384 3.01157 127.712C2.68389 128.039 2.23947 128.224 1.77607 128.224C1.42643 128.226 1.08385 128.125 0.791935 127.933C0.500024 127.74 0.271991 127.465 0.136867 127.143C0.0017425 126.82 -0.0343608 126.464 0.0331534 126.121C0.100668 125.778 0.268745 125.463 0.515988 125.216C0.763231 124.968 1.07846 124.8 1.42153 124.733C1.7646 124.665 2.12001 124.701 2.4425 124.836C2.76499 124.972 3.03998 125.2 3.23245 125.492C3.42492 125.784 3.52618 126.126 3.52332 126.476Z" fill="#FF3C48"></path><path d="M32.3169 126.476C32.3168 126.825 32.2132 127.166 32.0189 127.456C31.8247 127.746 31.5487 127.972 31.226 128.105C30.9032 128.238 30.5483 128.272 30.2061 128.203C29.864 128.134 29.5501 127.965 29.3043 127.717C29.0586 127.469 28.8919 127.154 28.8256 126.811C28.7593 126.468 28.7962 126.113 28.9318 125.792C29.0673 125.47 29.2954 125.196 29.587 125.004C29.8786 124.812 30.2206 124.711 30.5696 124.714C30.8003 124.714 31.0287 124.76 31.2416 124.848C31.4545 124.937 31.6478 125.067 31.8102 125.231C31.9727 125.395 32.1011 125.589 32.188 125.803C32.275 126.016 32.3188 126.245 32.3169 126.476Z" fill="#FF3C48"></path><path d="M61.1104 126.476C61.1104 126.824 61.0071 127.165 60.8135 127.455C60.6199 127.745 60.3448 127.97 60.0229 128.104C59.701 128.237 59.3468 128.272 59.005 128.204C58.6633 128.136 58.3494 127.968 58.103 127.722C57.8566 127.475 57.6888 127.162 57.6209 126.82C57.5529 126.478 57.5878 126.124 57.7211 125.802C57.8545 125.48 58.0803 125.205 58.37 125.011C58.6597 124.817 59.0003 124.714 59.3487 124.714C59.5806 124.712 59.8105 124.756 60.0251 124.844C60.2397 124.932 60.4347 125.062 60.5987 125.226C60.7627 125.39 60.8924 125.585 60.9802 125.799C61.0681 126.014 61.1123 126.244 61.1104 126.476Z" fill="#FF3C48"></path><path d="M89.9039 126.476C89.9038 126.823 89.8015 127.161 89.6098 127.45C89.418 127.739 89.1454 127.965 88.826 128.099C88.5066 128.234 88.1547 128.271 87.8142 128.207C87.4737 128.142 87.1598 127.979 86.9118 127.736C86.6637 127.494 86.4926 127.184 86.4198 126.846C86.3471 126.507 86.3758 126.154 86.5025 125.831C86.6293 125.509 86.8483 125.23 87.1323 125.032C87.4162 124.833 87.7525 124.722 88.0989 124.714C88.3344 124.706 88.569 124.746 88.7887 124.831C89.0084 124.917 89.2085 125.045 89.3771 125.21C89.5458 125.375 89.6794 125.572 89.7699 125.789C89.8604 126.007 89.906 126.24 89.9039 126.476Z" fill="#FF3C48"></path><path d="M118.697 126.476C118.697 126.826 118.593 127.169 118.397 127.459C118.202 127.75 117.924 127.976 117.6 128.108C117.275 128.24 116.919 128.272 116.576 128.2C116.233 128.129 115.919 127.957 115.675 127.706C115.43 127.455 115.266 127.137 115.203 126.792C115.14 126.448 115.181 126.092 115.321 125.771C115.461 125.45 115.693 125.178 115.989 124.99C116.284 124.801 116.629 124.705 116.979 124.714C117.44 124.722 117.879 124.911 118.201 125.241C118.523 125.571 118.701 126.015 118.697 126.476Z" fill="#FF3C48"></path><path d="M146.755 128.224C146.757 128.573 146.657 128.915 146.465 129.206C146.273 129.498 145.999 129.726 145.677 129.862C145.355 129.997 145.001 130.034 144.658 129.968C144.315 129.902 144 129.735 143.752 129.489C143.505 129.243 143.335 128.929 143.266 128.587C143.197 128.245 143.231 127.89 143.364 127.567C143.497 127.244 143.723 126.968 144.013 126.774C144.303 126.58 144.644 126.476 144.993 126.476C145.458 126.476 145.904 126.66 146.233 126.987C146.563 127.314 146.751 127.759 146.755 128.224Z" fill="#FF3C48"></path></svg>