<svg width="130" height="55" viewBox="0 0 130 55" fill="none" xmlns="http://www.w3.org/2000/svg">
<path d="M93.01 38.8565C90.8666 38.8565 89.0616 37.7373 88.0463 35.9464C86.8054 33.596 87.1438 30.574 89.4 27.1042C90.641 25.0896 92.3332 23.0749 94.3638 21.2841C97.0713 18.8217 99.7788 16.9189 102.261 15.5758C102.261 14.2327 102.261 13.0015 102.148 11.6584C100.117 14.7923 97.6353 16.5831 94.7022 17.0308C94.251 17.1428 93.9125 17.1428 93.4613 17.1428C91.8819 17.1428 90.3025 16.5831 89.0616 15.5758C87.4822 14.2327 86.4669 12.3299 86.4669 10.2033C86.3541 6.50975 88.9488 2.59232 92.6716 0.913418C93.6869 0.241859 95.0407 0.0180054 96.2816 0.0180054C98.5378 0.0180054 100.568 0.913418 101.922 2.48039C102.373 2.9281 102.373 3.59966 102.261 4.15929C102.599 3.82351 103.05 3.59966 103.502 3.59966C103.614 3.59966 103.727 3.59966 103.727 3.59966C104.517 3.71158 105.081 4.38314 105.194 5.16663C105.419 8.07672 105.645 11.0987 105.645 14.0088C107.563 13.3373 109.368 13.0015 111.173 12.8896C112.527 11.3226 114.219 9.75562 116.137 8.52443C118.167 7.18131 120.536 5.83819 123.469 4.71892L122.567 4.49507C122.116 4.38314 121.777 4.04736 121.552 3.59966C121.326 3.15195 121.326 2.70424 121.439 2.25654C121.664 1.58498 122.341 1.13727 123.018 1.13727C123.244 1.13727 123.357 1.13727 123.582 1.2492L128.659 2.9281C129.11 3.04002 129.561 3.48773 129.674 3.93544C129.787 4.38314 129.787 4.94278 129.561 5.39048L126.741 10.4272C126.402 10.9868 125.838 11.3226 125.274 11.3226C124.936 11.3226 124.71 11.2107 124.485 11.0987C123.695 10.651 123.357 9.64369 123.808 8.74828L124.259 7.96479C121.777 8.97213 119.747 10.0914 118.054 11.2107C117.152 11.8822 116.249 12.5538 115.46 13.3373C115.685 13.3373 115.798 13.4492 116.024 13.4492C120.311 14.7923 122.905 19.0455 122.003 23.5226C121.439 26.5446 119.182 29.1189 116.362 30.0143C115.685 30.2382 115.008 30.3501 114.332 30.3501C112.527 30.3501 110.834 29.6786 109.481 28.3354C107.112 25.985 106.547 22.2914 108.127 18.374C108.352 17.8143 108.578 17.2547 108.917 16.6951C107.901 16.9189 106.886 17.2547 105.871 17.7024C105.871 18.374 105.871 19.1575 105.758 19.829C105.532 24.418 104.291 28.6712 102.261 32.1409C101.245 33.9318 98.8763 37.0657 95.7175 38.4088C94.7022 38.6327 93.9125 38.8565 93.01 38.8565ZM102.148 19.4932C100.343 20.6125 98.5378 22.0675 96.62 23.7464C94.9278 25.3134 93.3485 26.9923 92.3332 28.7831C90.8666 31.1336 90.4153 33.0364 91.0922 34.2675C91.5435 35.051 92.2203 35.3868 93.1228 35.3868C93.4613 35.3868 93.9125 35.2749 94.251 35.163C96.5072 34.1556 98.3122 31.6932 99.2147 30.2382C101.02 27.2162 102.035 23.5226 102.261 19.4932C102.148 19.6052 102.148 19.4932 102.148 19.4932ZM112.752 16.3593C112.075 17.3666 111.511 18.4859 111.06 19.4932C109.819 22.6272 110.609 24.8657 111.624 25.8731C112.301 26.5446 113.203 26.9923 114.106 26.9923C114.444 26.9923 114.783 26.9923 115.121 26.8804C116.813 26.3208 118.167 24.8657 118.506 23.0749C119.07 20.2767 117.49 17.7024 114.896 16.9189C114.219 16.5831 113.542 16.4712 112.752 16.3593ZM96.2816 3.3758C95.4919 3.3758 94.7022 3.48773 94.0253 3.82351C91.5435 4.94278 89.7385 7.62901 89.8513 9.97947C89.8513 11.0987 90.4154 12.1061 91.205 12.8896C91.8819 13.4492 92.5588 13.6731 93.4613 13.6731C93.6869 13.6731 93.9125 13.6731 94.1382 13.5611C97.861 12.8896 100.004 8.97213 101.809 4.71892L101.697 4.83085C101.358 5.0547 101.02 5.27856 100.568 5.27856C100.004 5.27856 99.5531 5.0547 99.2147 4.71892C98.425 3.59966 96.9585 3.3758 96.2816 3.3758Z" fill="#FF6168"/>
<path d="M126.177 9.41984C126.064 9.41984 125.951 9.41984 125.951 9.30792C125.726 9.19599 125.613 8.86021 125.726 8.52443L127.531 5.39049C127.643 5.27856 127.643 5.05471 127.531 4.94278C127.418 4.83085 127.305 4.607 127.192 4.607L123.695 3.48773C123.357 3.37581 123.244 3.04003 123.357 2.81617C123.469 2.59232 123.808 2.36847 124.033 2.48039L127.531 3.59966C127.982 3.71159 128.433 4.15929 128.546 4.607C128.659 5.05471 128.659 5.61434 128.433 6.06204L126.628 9.19599C126.515 9.30792 126.29 9.41984 126.177 9.41984Z" fill="white"/>
<path d="M3.19946 27.018V0.304H8.36746V27.018H3.19946ZM6.99946 27.018V22.42H20.6035V27.018H6.99946Z" fill="black"/>
<path d="M23.7827 27.018V8.664H28.7987V27.018H23.7827ZM26.2907 5.7C25.48 5.7 24.8087 5.434 24.2767 4.902C23.7447 4.34467 23.4787 3.66067 23.4787 2.85C23.4787 2.06467 23.7447 1.39333 24.2767 0.836C24.8087 0.278667 25.48 0 26.2907 0C27.1267 0 27.798 0.278667 28.3047 0.836C28.8367 1.39333 29.1027 2.06467 29.1027 2.85C29.1027 3.66067 28.8367 4.34467 28.3047 4.902C27.798 5.434 27.1267 5.7 26.2907 5.7Z" fill="black"/>
<path d="M39.5165 27.436C38.4778 27.436 37.4518 27.2967 36.4385 27.018C35.4505 26.7393 34.5385 26.3593 33.7025 25.878C32.8665 25.3713 32.1445 24.7633 31.5365 24.054L34.5005 21.052C35.1338 21.7613 35.8685 22.2933 36.7045 22.648C37.5405 23.0027 38.4651 23.18 39.4785 23.18C40.2891 23.18 40.8971 23.066 41.3025 22.838C41.7331 22.61 41.9485 22.268 41.9485 21.812C41.9485 21.3053 41.7205 20.9127 41.2645 20.634C40.8338 20.3553 40.2638 20.1273 39.5545 19.95C38.8451 19.7473 38.0978 19.532 37.3125 19.304C36.5525 19.0507 35.8178 18.734 35.1085 18.354C34.3991 17.9487 33.8165 17.404 33.3605 16.72C32.9298 16.0107 32.7145 15.0987 32.7145 13.984C32.7145 12.8187 32.9931 11.8053 33.5505 10.944C34.1331 10.0827 34.9565 9.41133 36.0205 8.93C37.0845 8.44867 38.3385 8.208 39.7825 8.208C41.3025 8.208 42.6705 8.474 43.8865 9.006C45.1278 9.538 46.1538 10.336 46.9645 11.4L43.9625 14.402C43.4051 13.718 42.7718 13.224 42.0625 12.92C41.3785 12.616 40.6311 12.464 39.8205 12.464C39.0858 12.464 38.5158 12.578 38.1105 12.806C37.7305 13.034 37.5405 13.3507 37.5405 13.756C37.5405 14.212 37.7558 14.5667 38.1865 14.82C38.6425 15.0733 39.2251 15.3013 39.9345 15.504C40.6438 15.6813 41.3785 15.8967 42.1385 16.15C42.9238 16.378 43.6585 16.7073 44.3425 17.138C45.0518 17.5687 45.6218 18.1387 46.0525 18.848C46.5085 19.5573 46.7365 20.4693 46.7365 21.584C46.7365 23.3827 46.0905 24.814 44.7985 25.878C43.5065 26.9167 41.7458 27.436 39.5165 27.436Z" fill="black"/>
<path d="M52.7912 27.018V1.026H57.7692V27.018H52.7912ZM48.4972 13.034V8.664H62.0632V13.034H48.4972Z" fill="black"/>
<path d="M70.6388 27.17L62.9628 8.664H68.3588L73.4508 22.8H71.6268L76.9088 8.664H82.3428L74.1728 27.132L70.6388 27.17ZM65.5468 34.694L71.1328 22.876L74.1728 27.132L70.8288 34.694H65.5468Z" fill="black"/>
<path d="M3.28733 44.5091C4.67518 44.0572 5.94272 43.819 7.21865 43.47C8.49459 43.121 9.76213 42.8828 11.1332 42.6525C12.4007 42.4143 13.6683 42.1761 15.0394 41.9457C16.3069 41.7075 17.5744 41.4693 18.9371 41.3497C21.5673 40.9919 24.094 40.6263 26.7159 40.3792L30.5969 40.0048C31.856 39.8773 33.2103 39.8685 34.4694 39.7411C44.8197 39.1882 55.1196 39.3 65.3607 40.1872C67.949 40.3833 70.4169 40.793 73.0052 40.9891L76.8274 41.39C78.0614 41.5949 79.3989 41.8077 80.6329 42.0125L88.2438 43.2575C90.7034 43.7781 93.2581 44.4172 95.7177 44.9378L99.5063 45.7818C100.74 45.9867 101.958 46.4131 103.183 46.7288L110.623 48.8521L112.462 49.3256L114.292 49.9098L117.943 51.1891L125.255 53.6369L117.806 51.6243L114.129 50.6774L112.291 50.2039L110.444 49.8412L102.962 48.2717C101.728 48.0668 100.503 47.7512 99.2685 47.5463L95.4631 46.9238C92.9951 46.514 90.4237 46.0964 87.9473 45.7974L80.4063 45.0034C79.164 44.9093 77.93 44.7044 76.5841 44.6024L72.7451 44.423C70.252 44.3456 67.6637 44.1495 65.1705 44.0721C55.0861 43.8652 44.9429 44.4337 34.9481 45.7934C33.6889 45.9208 32.4298 46.0482 31.1623 46.2864L27.4716 46.8981C24.9449 47.2638 22.5049 47.8588 20.0734 48.3431C18.8058 48.5813 17.6334 48.9381 16.3659 49.1763C15.0983 49.4145 13.9259 49.7713 12.7535 50.1281C11.5811 50.485 10.3052 50.8339 9.13279 51.1907C7.96039 51.5476 6.78799 51.9044 5.71073 52.3798L5.6072 52.372C3.46945 53.1013 1.16377 51.924 0.494954 49.7566C-0.165469 47.4784 0.959303 45.0012 2.99352 44.264C3.07187 44.6042 3.18379 44.5013 3.28733 44.5091Z" fill="#FF6168"/>
</svg>
