<svg xmlns="http://www.w3.org/2000/svg" width="34" height="39" viewBox="0 0 34 39" fill="none"><path d="M30.2332 1.72333L30.0713 10.0018L29.9276 18.2642L29.8467 22.4035L29.8377 22.9227C29.832 23.1178 29.8756 23.3113 29.9647 23.4851C30.0251 23.6774 30.1346 23.8508 30.2824 23.9879C30.4229 24.1441 30.6029 24.2594 30.8035 24.3218C30.9861 24.4143 31.1903 24.456 31.3946 24.4428C31.7963 24.4414 32.1821 24.2855 32.4721 24.0074C32.7598 23.7091 32.9245 23.3134 32.9335 22.8991L33.0145 18.7598L33.1618 10.495L33.2424 6.36005L33.3153 2.22717L33.3261 1.70468C33.3326 1.5067 33.2881 1.31038 33.1971 1.13447C33.1367 0.942076 33.0272 0.768747 32.8793 0.631582C32.7392 0.476051 32.5598 0.361063 32.3599 0.29866C32.1773 0.206208 31.9732 0.164437 31.7688 0.177699C31.3652 0.181446 30.9786 0.341087 30.6898 0.623252C30.4022 0.921563 30.2374 1.31728 30.2284 1.73159L30.2332 1.72333Z" fill="white"></path><path d="M14.6372 12.3202C14.8449 13.4029 15.0526 14.4856 15.284 15.5577C15.5154 16.6299 15.7621 17.7174 16.0468 18.7851C16.3315 19.8527 16.6517 20.8969 17.0275 21.9289C17.4341 23.064 17.9099 24.1731 18.4523 25.2499C18.9445 26.2195 19.5133 27.1484 20.1533 28.0275C20.3073 28.2377 20.465 28.4454 20.6243 28.6542C20.7655 28.8085 20.945 28.9228 21.1446 28.9854C21.3275 29.0772 21.5315 29.1189 21.7357 29.1064C21.935 29.1128 22.1327 29.0685 22.3102 28.9776C22.4982 28.9216 22.6686 28.8182 22.8052 28.6774L23.0582 28.3498C23.1968 28.1128 23.2683 27.8426 23.265 27.5681L23.2092 27.1724C23.1426 26.9137 23.0098 26.6769 22.8239 26.4851L22.7724 26.4179C22.8541 26.5245 22.9331 26.6318 23.0147 26.7384C22.1393 25.568 21.3895 24.3088 20.7776 22.9815C20.6028 22.6074 20.4374 22.2299 20.2814 21.849L20.4321 22.2137C19.8956 20.8805 19.4426 19.5152 19.0756 18.1258C18.688 16.7365 18.3736 15.3235 18.0884 13.9096C17.9264 13.114 17.7705 12.3168 17.6207 11.518C17.5792 11.3208 17.4864 11.138 17.3516 10.9881C17.2345 10.8188 17.0812 10.6777 16.9029 10.5747C16.7246 10.4718 16.5258 10.4097 16.3206 10.3928C16.1248 10.3499 15.9211 10.3592 15.73 10.4198C15.3343 10.5266 14.997 10.7857 14.7918 11.1405L14.6346 11.5234C14.5668 11.7825 14.5676 12.0547 14.6367 12.3134L14.6372 12.3202Z" fill="white"></path><path d="M2.88038 28.0396C2.92713 28.008 2.97716 27.9814 3.02959 27.9605L2.66494 28.1113C2.7275 28.0866 2.79282 28.0696 2.85946 28.0606L2.46732 28.114C2.5403 28.1054 2.61405 28.1058 2.68693 28.1152L2.2891 28.0639C2.39997 28.0805 2.5084 28.1106 2.61198 28.1534C2.48443 28.0996 2.35591 28.0474 2.23001 27.9946C2.4183 28.0772 2.59545 28.1832 2.7573 28.31C2.64787 28.2248 2.53914 28.1422 2.42971 28.057C2.77675 28.3506 3.10443 28.6664 3.4107 29.0023C3.79065 29.3847 4.17551 29.7611 4.56529 30.1316C5.34358 30.8747 6.1405 31.5969 6.95605 32.2984C8.69501 33.7902 10.51 35.1911 12.3937 36.4953C13.3983 37.1899 14.4229 37.8549 15.4675 38.4903C15.642 38.6016 15.843 38.6644 16.0498 38.6723C16.2463 38.7062 16.4478 38.697 16.6404 38.6454C16.833 38.5938 17.0121 38.501 17.1653 38.3734C17.3405 38.2631 17.4831 38.1083 17.5786 37.9246C17.7816 37.569 17.8373 37.1479 17.7337 36.7517C17.6185 36.3603 17.3615 36.0258 17.013 35.8135C15.4795 34.8826 13.989 33.8862 12.5414 32.8243C12.1343 32.5246 11.7326 32.2192 11.3364 31.9082C11.4458 31.9935 11.5546 32.0761 11.664 32.1613C10.3961 31.1825 9.16461 30.1521 7.97594 29.078C7.38573 28.5434 6.80614 27.998 6.23717 27.4418C5.9475 27.16 5.6617 26.8753 5.37978 26.5877C5.16523 26.3566 4.93778 26.1377 4.69853 25.9322C4.48152 25.7464 4.25045 25.5776 4.00737 25.4274C3.76676 25.2885 3.51006 25.1795 3.243 25.1029C2.92782 25.0119 2.59727 24.9867 2.27194 25.0289C1.94661 25.0712 1.63346 25.1799 1.35197 25.3484C1.16881 25.4397 1.01307 25.5778 0.900537 25.7487C0.758976 25.9028 0.660653 26.0915 0.615533 26.2958C0.556536 26.4885 0.54837 26.6933 0.591823 26.8902C0.601309 27.0896 0.662782 27.283 0.770132 27.4513C0.87041 27.6278 1.00451 27.7828 1.16476 27.9074C1.32501 28.032 1.50825 28.1237 1.70401 28.1774C1.89976 28.2311 2.10418 28.2456 2.30556 28.2202C2.50694 28.1947 2.70132 28.1298 2.87759 28.0292L2.88038 28.0396Z" fill="white"></path></svg>