<svg xmlns="http://www.w3.org/2000/svg" width="70" height="69" viewBox="0 0 70 69" fill="none"><path d="M1.69471 3.37871C2.63068 3.37871 3.38942 2.62236 3.38942 1.68936C3.38942 0.75635 2.63068 0 1.69471 0C0.758749 0 7.60435e-07 0.75635 7.60435e-07 1.68936C7.60435e-07 2.62236 0.758749 3.37871 1.69471 3.37871Z" fill="#646464"></path><path d="M23.8341 3.37871C24.7701 3.37871 25.5288 2.62236 25.5288 1.68936C25.5288 0.75635 24.7701 0 23.8341 0C22.8982 0 22.1394 0.75635 22.1394 1.68936C22.1394 2.62236 22.8982 3.37871 23.8341 3.37871Z" fill="#646464"></path><path d="M3.38942 23.5671C3.38942 23.9012 3.29003 24.2279 3.10381 24.5057C2.9176 24.7835 2.65292 25 2.34325 25.1279C2.03358 25.2557 1.69283 25.2892 1.36409 25.224C1.03535 25.1588 0.73338 24.9979 0.49637 24.7617C0.259361 24.5254 0.097955 24.2244 0.0325642 23.8967C-0.0328266 23.569 0.000734294 23.2293 0.129003 22.9206C0.257272 22.6119 0.474487 22.3481 0.753181 22.1625C1.03187 21.9768 1.35953 21.8778 1.69471 21.8778C1.91726 21.8778 2.13764 21.9215 2.34325 22.0064C2.54886 22.0912 2.73569 22.2157 2.89305 22.3726C3.05042 22.5294 3.17525 22.7157 3.26042 22.9206C3.34559 23.1256 3.38942 23.3453 3.38942 23.5671Z" fill="#646464"></path><path d="M25.5288 23.5671C25.5288 23.9012 25.4295 24.2279 25.2432 24.5057C25.057 24.7835 24.7923 25 24.4827 25.1279C24.173 25.2557 23.8323 25.2892 23.5035 25.224C23.1748 25.1588 22.8728 24.9979 22.6358 24.7617C22.3988 24.5254 22.2374 24.2244 22.172 23.8967C22.1066 23.569 22.1402 23.2293 22.2684 22.9206C22.3967 22.6119 22.6139 22.3481 22.8926 22.1625C23.1713 21.9768 23.499 21.8778 23.8341 21.8778C24.0567 21.8778 24.2771 21.9215 24.4827 22.0064C24.6883 22.0912 24.8751 22.2157 25.0325 22.3726C25.1898 22.5294 25.3147 22.7157 25.3998 22.9206C25.485 23.1256 25.5288 23.3453 25.5288 23.5671Z" fill="#646464"></path><path d="M1.69471 47.1342C2.63068 47.1342 3.38942 46.3779 3.38942 45.4449C3.38942 44.5119 2.63068 43.7555 1.69471 43.7555C0.758749 43.7555 7.60435e-07 44.5119 7.60435e-07 45.4449C7.60435e-07 46.3779 0.758749 47.1342 1.69471 47.1342Z" fill="#646464"></path><path d="M23.8341 47.1342C24.7701 47.1342 25.5288 46.3779 25.5288 45.4449C25.5288 44.5119 24.7701 43.7555 23.8341 43.7555C22.8982 43.7555 22.1394 44.5119 22.1394 45.4449C22.1394 46.3779 22.8982 47.1342 23.8341 47.1342Z" fill="#646464"></path><path d="M3.38942 67.3106C3.38942 67.6448 3.29003 67.9714 3.10381 68.2492C2.9176 68.527 2.65292 68.7435 2.34325 68.8714C2.03358 68.9993 1.69283 69.0327 1.36409 68.9675C1.03535 68.9024 0.73338 68.7415 0.49637 68.5052C0.259361 68.2689 0.097955 67.9679 0.0325642 67.6402C-0.0328266 67.3125 0.000734294 66.9728 0.129003 66.6642C0.257272 66.3555 0.474487 66.0916 0.753181 65.906C1.03187 65.7204 1.35953 65.6213 1.69471 65.6213C2.14418 65.6213 2.57523 65.7993 2.89305 66.1161C3.21087 66.4329 3.38942 66.8626 3.38942 67.3106Z" fill="#646464"></path><path d="M25.5288 67.3106C25.5288 67.6448 25.4295 67.9714 25.2432 68.2492C25.057 68.527 24.7923 68.7435 24.4827 68.8714C24.173 68.9993 23.8323 69.0327 23.5035 68.9675C23.1748 68.9024 22.8728 68.7415 22.6358 68.5052C22.3988 68.2689 22.2374 67.9679 22.172 67.6402C22.1066 67.3125 22.1402 66.9728 22.2684 66.6642C22.3967 66.3555 22.6139 66.0916 22.8926 65.906C23.1713 65.7204 23.499 65.6213 23.8341 65.6213C24.2836 65.6213 24.7147 65.7993 25.0325 66.1161C25.3503 66.4329 25.5288 66.8626 25.5288 67.3106Z" fill="#646464"></path><path d="M46.1659 3.37871C47.1018 3.37871 47.8606 2.62236 47.8606 1.68936C47.8606 0.75635 47.1018 0 46.1659 0C45.2299 0 44.4712 0.75635 44.4712 1.68936C44.4712 2.62236 45.2299 3.37871 46.1659 3.37871Z" fill="#646464"></path><path d="M68.3053 3.37871C69.2412 3.37871 70 2.62236 70 1.68936C70 0.75635 69.2412 0 68.3053 0C67.3693 0 66.6106 0.75635 66.6106 1.68936C66.6106 2.62236 67.3693 3.37871 68.3053 3.37871Z" fill="#646464"></path><path d="M47.8606 23.5671C47.8606 23.9012 47.7612 24.2279 47.575 24.5057C47.3887 24.7835 47.1241 25 46.8144 25.1279C46.5047 25.2557 46.164 25.2892 45.8352 25.224C45.5065 25.1588 45.2045 24.9979 44.9675 24.7617C44.7305 24.5254 44.5691 24.2244 44.5037 23.8967C44.4383 23.569 44.4719 23.2293 44.6002 22.9206C44.7284 22.6119 44.9456 22.3481 45.2243 22.1625C45.503 21.9768 45.8307 21.8778 46.1659 21.8778C46.3884 21.8778 46.6088 21.9215 46.8144 22.0064C47.02 22.0912 47.2068 22.2157 47.3642 22.3726C47.5216 22.5294 47.6464 22.7157 47.7316 22.9206C47.8167 23.1256 47.8606 23.3453 47.8606 23.5671Z" fill="#646464"></path><path d="M70 23.5671C70 23.9012 69.9006 24.2279 69.7144 24.5057C69.5282 24.7835 69.2635 25 68.9538 25.1279C68.6442 25.2557 68.3034 25.2892 67.9747 25.224C67.6459 25.1588 67.344 24.9979 67.1069 24.7617C66.8699 24.5254 66.7085 24.2244 66.6431 23.8967C66.5778 23.569 66.6113 23.2293 66.7396 22.9206C66.8678 22.6119 67.0851 22.3481 67.3638 22.1625C67.6424 21.9768 67.9701 21.8778 68.3053 21.8778C68.5278 21.8778 68.7482 21.9215 68.9538 22.0064C69.1594 22.0912 69.3463 22.2157 69.5036 22.3726C69.661 22.5294 69.7858 22.7157 69.871 22.9206C69.9562 23.1256 70 23.3453 70 23.5671Z" fill="#646464"></path><path d="M46.1659 47.1342C47.1018 47.1342 47.8606 46.3779 47.8606 45.4449C47.8606 44.5119 47.1018 43.7555 46.1659 43.7555C45.2299 43.7555 44.4712 44.5119 44.4712 45.4449C44.4712 46.3779 45.2299 47.1342 46.1659 47.1342Z" fill="#646464"></path><path d="M68.3053 47.1342C69.2412 47.1342 70 46.3779 70 45.4449C70 44.5119 69.2412 43.7555 68.3053 43.7555C67.3693 43.7555 66.6106 44.5119 66.6106 45.4449C66.6106 46.3779 67.3693 47.1342 68.3053 47.1342Z" fill="#646464"></path><path d="M47.8606 67.3106C47.8606 67.6448 47.7612 67.9714 47.575 68.2492C47.3887 68.527 47.1241 68.7435 46.8144 68.8714C46.5047 68.9993 46.164 69.0327 45.8352 68.9675C45.5065 68.9024 45.2045 68.7415 44.9675 68.5052C44.7305 68.2689 44.5691 67.9679 44.5037 67.6402C44.4383 67.3125 44.4719 66.9728 44.6002 66.6642C44.7284 66.3555 44.9456 66.0916 45.2243 65.906C45.503 65.7204 45.8307 65.6213 46.1659 65.6213C46.6153 65.6213 47.0464 65.7993 47.3642 66.1161C47.682 66.4329 47.8606 66.8626 47.8606 67.3106Z" fill="#646464"></path><path d="M70 67.3106C70 67.6448 69.9006 67.9714 69.7144 68.2492C69.5282 68.527 69.2635 68.7435 68.9538 68.8714C68.6442 68.9993 68.3034 69.0327 67.9747 68.9675C67.6459 68.9024 67.344 68.7415 67.1069 68.5052C66.8699 68.2689 66.7085 67.9679 66.6431 67.6402C66.5778 67.3125 66.6113 66.9728 66.7396 66.6642C66.8678 66.3555 67.0851 66.0916 67.3638 65.906C67.6424 65.7204 67.9701 65.6213 68.3053 65.6213C68.7548 65.6213 69.1858 65.7993 69.5036 66.1161C69.8214 66.4329 70 66.8626 70 67.3106Z" fill="#646464"></path></svg>