<svg xmlns="http://www.w3.org/2000/svg" width="158" height="139" viewBox="0 0 158 139" fill="none"><path fill-rule="evenodd" clip-rule="evenodd" d="M112.836 112.916C100.46 121.236 91.1583 134.108 76.5676 137.189C60.8577 140.505 43.5573 139.104 30.0703 130.389C16.7606 121.789 10.2174 106.236 5.33415 91.1605C0.800299 77.1641 -2.02748 61.8085 3.42954 48.1469C8.54803 35.3328 20.9726 27.1281 33.3486 21.0267C43.5326 16.0059 55.3912 20.0998 66.3497 17.127C81.2569 13.0831 93.51 -3.28875 108.445 0.655048C123.349 4.59059 129.156 22.355 136.813 35.7339C145.595 51.0777 161.263 66.8947 156.019 83.7763C150.738 100.776 127.608 102.985 112.836 112.916Z" fill="#E0E0E0"></path></svg>