<svg width="18" height="18" viewBox="0 0 18 18" fill="none" xmlns="http://www.w3.org/2000/svg">
<path d="M12.75 7.5H14.25C15.75 7.5 16.5 6.75 16.5 5.25V3.75C16.5 2.25 15.75 1.5 14.25 1.5H12.75C11.25 1.5 10.5 2.25 10.5 3.75V5.25C10.5 6.75 11.25 7.5 12.75 7.5Z" stroke="#838383" stroke-width="1.40625" stroke-miterlimit="10" stroke-linecap="round" stroke-linejoin="round"/>
<path d="M3.74997 16.5H5.24997C6.74997 16.5 7.49997 15.75 7.49997 14.25V12.75C7.49997 11.25 6.74997 10.5 5.24997 10.5H3.74997C2.24997 10.5 1.49997 11.25 1.49997 12.75V14.25C1.49997 15.75 2.24997 16.5 3.74997 16.5Z" stroke="#838383" stroke-width="1.40625" stroke-miterlimit="10" stroke-linecap="round" stroke-linejoin="round"/>
<path d="M4.49997 7.5C6.15682 7.5 7.49997 6.15685 7.49997 4.5C7.49997 2.84315 6.15682 1.5 4.49997 1.5C2.84312 1.5 1.49997 2.84315 1.49997 4.5C1.49997 6.15685 2.84312 7.5 4.49997 7.5Z" stroke="#838383" stroke-width="1.40625" stroke-miterlimit="10" stroke-linecap="round" stroke-linejoin="round"/>
<path d="M13.5 16.5C15.1569 16.5 16.5 15.1569 16.5 13.5C16.5 11.8431 15.1569 10.5 13.5 10.5C11.8431 10.5 10.5 11.8431 10.5 13.5C10.5 15.1569 11.8431 16.5 13.5 16.5Z" stroke="#838383" stroke-width="1.40625" stroke-miterlimit="10" stroke-linecap="round" stroke-linejoin="round"/>
</svg>
