<svg width="18" height="18" viewBox="0 0 33 37" fill="none" xmlns="http://www.w3.org/2000/svg">
<path d="M6.41793 37H26.5821C30.121 37 33 34.1197 33 30.5791V11.3846C33 10.7585 32.4879 10.2462 31.8621 10.2462H25.0345V8.53846C25.0345 3.83092 21.2053 0 16.5 0C11.7947 0 7.96552 3.83092 7.96552 8.53846V10.2462H1.13793C0.512069 10.2462 0 10.7585 0 11.3846V30.5791C0 34.1197 2.87896 37 6.41793 37ZM10.2414 8.53846C10.2414 5.08323 13.0464 2.27692 16.5 2.27692C19.9536 2.27692 22.7586 5.08323 22.7586 8.53846V10.2462H10.2414V8.53846ZM2.27586 12.5231H7.96552V15.3692C7.96552 15.9954 8.47759 16.5077 9.10345 16.5077C9.72931 16.5077 10.2414 15.9954 10.2414 15.3692V12.5231H22.7586V15.3692C22.7586 15.9954 23.2707 16.5077 23.8966 16.5077C24.5224 16.5077 25.0345 15.9954 25.0345 15.3692V12.5231H30.7241V30.5791C30.7241 32.8617 28.8636 34.7231 26.5821 34.7231H6.41793C4.13638 34.7231 2.27586 32.8617 2.27586 30.5791V12.5231Z" fill="#FF3C48"/>
</svg>
