<svg xmlns="http://www.w3.org/2000/svg" width="52" height="48" viewBox="0 0 52 48" fill="none"><path d="M4.16667 18.1666L20.5023 31.0023C22.1573 32.3265 24.2138 33.0479 26.3333 33.0479C28.4529 33.0479 30.5093 32.3265 32.1643 31.0023L48.5 18.1666M3 21.8603C2.99993 20.3597 3.36171 18.8811 4.05467 17.55C4.74763 16.219 5.75132 15.0746 6.98067 14.214L20.9807 4.41398C22.5495 3.31568 24.4182 2.72656 26.3333 2.72656C28.2484 2.72656 30.1172 3.31568 31.686 4.41398L45.686 14.214C46.9153 15.0746 47.919 16.219 48.612 17.55C49.305 18.8811 49.6667 20.3597 49.6667 21.8603V40.3333C49.6667 41.571 49.175 42.758 48.2998 43.6331C47.4247 44.5083 46.2377 45 45 45H7.66667C6.42899 45 5.242 44.5083 4.36683 43.6331C3.49167 42.758 3 41.571 3 40.3333V21.8603Z" stroke="#FF4A52" stroke-width="4.5" stroke-linejoin="round"></path></svg>