<svg xmlns="http://www.w3.org/2000/svg" width="38" height="23" viewBox="0 0 38 23" fill="none"><path d="M20.3263 21.9617C19.871 22.2977 19.3855 22.5923 18.876 22.842C18.5976 22.9961 18.2699 23.0395 17.96 22.9633C17.6501 22.8871 17.3816 22.697 17.2097 22.4322C17.0554 22.2045 16.8703 22.0072 16.716 21.7947C13.4142 16.8014 8.36892 14.4185 2.82994 12.8704C2.24884 12.7187 1.68125 12.5207 1.13276 12.2785C0.77185 12.1244 0.469104 11.8629 0.267078 11.5308C0.0650554 11.1986 -0.026093 10.8126 0.0064502 10.4269C0.00983385 10.0528 0.132183 9.68926 0.356315 9.38711C0.580452 9.08497 0.89513 8.85944 1.25619 8.74218C2.08663 8.47846 2.9314 8.26058 3.78654 8.08955C5.00542 7.786 6.23973 7.52799 7.45862 7.22444C10.3544 6.48152 13.0097 5.02405 15.1731 2.98995C15.8982 2.32214 16.5925 1.62398 17.3794 1.03206C17.9828 0.638541 18.6175 0.293407 19.2772 -8.18401e-07C19.952 0.277966 20.5731 0.668161 21.1132 1.15348C24.4767 5.47904 29.1825 7.84671 34.0889 9.94119C34.8912 10.3055 35.8633 10.6242 36.7273 11.0795C37.1475 11.2264 37.5024 11.513 37.7305 11.8899C37.9587 12.2668 38.0459 12.7102 37.977 13.1436C37.8796 13.561 37.6458 13.9354 37.3114 14.2095C36.977 14.4836 36.5604 14.6424 36.1256 14.6614C35.9459 14.6769 35.7652 14.6769 35.5855 14.6614" fill="#FF3C48"></path></svg>