<svg xmlns="http://www.w3.org/2000/svg" width="91" height="45" viewBox="0 0 91 45" fill="none"><path d="M91 45L68.2479 45L68.2479 22.5L91 45Z" fill="#FF3C48"></path><path d="M68.2479 45L45.4959 45L45.4959 22.5L68.2479 45Z" fill="#FF3C48"></path><path d="M45.4959 45L22.7438 45L22.7438 22.5L45.4959 45Z" fill="#FF3C48"></path><path d="M22.7438 45L-7.62939e-06 45L-5.66238e-06 22.5L22.7438 45Z" fill="#FF3C48"></path><path d="M91 22.5L68.2479 22.5L68.248 5.64035e-06L91 22.5Z" fill="#FF3C48"></path><path d="M68.2479 22.5L45.4959 22.5L45.4959 3.6513e-06L68.2479 22.5Z" fill="#FF3C48"></path><path d="M45.4959 22.5L22.7438 22.5L22.7438 1.66225e-06L45.4959 22.5Z" fill="#FF3C48"></path><path d="M22.7438 22.5L-5.66238e-06 22.5L-3.69537e-06 -3.26079e-07L22.7438 22.5Z" fill="#FF3C48"></path></svg>