<svg width="26" height="26" viewBox="0 0 26 26" fill="none" xmlns="http://www.w3.org/2000/svg">
<path d="M11.1859 21.1544C5.45953 21.1544 0.800781 16.4992 0.800781 10.7771C0.800781 5.0551 5.45953 0.399902 11.1859 0.399902C16.9123 0.399902 21.5711 5.0551 21.5711 10.7771C21.5711 16.4992 16.9123 21.1544 11.1859 21.1544ZM11.1859 2.36715C6.5451 2.36715 2.76953 6.13984 2.76953 10.7771C2.76953 15.4144 6.5451 19.1871 11.1859 19.1871C15.8268 19.1871 19.6023 15.4144 19.6023 10.7771C19.6023 6.13984 15.8268 2.36715 11.1859 2.36715ZM25.7125 25.3118C26.0969 24.9277 26.0969 24.3049 25.7125 23.9208L21.3074 19.519C20.923 19.1349 20.2997 19.1349 19.9153 19.519C19.5309 19.9032 19.5309 20.526 19.9153 20.9101L24.3203 25.3118C24.5125 25.5039 24.7645 25.5999 25.0164 25.5999C25.2684 25.5999 25.5202 25.5039 25.7125 25.3118Z" fill="#646464"/>
</svg>
