<svg width="31" height="30" viewBox="0 0 31 30" fill="none" xmlns="http://www.w3.org/2000/svg">
<path d="M5.05375 27.8336C3.5983 27.8336 2.37266 27.076 1.68324 25.8638C0.840611 24.2728 1.07042 22.2272 2.60247 19.8786C3.4451 18.5149 4.59414 17.1512 5.97298 15.939C7.81144 14.2722 9.64991 12.9843 11.3352 12.0751C11.3352 11.166 11.3352 10.3326 11.2586 9.42345C9.87971 11.5448 8.19446 12.757 6.20279 13.06C5.89638 13.1358 5.66658 13.1358 5.36016 13.1358C4.28773 13.1358 3.21529 12.757 2.37266 12.0751C1.30023 11.166 0.610802 9.87802 0.610802 8.43854C0.534199 5.93839 2.29606 3.28672 4.82394 2.15029C5.51337 1.69571 6.4326 1.54419 7.27523 1.54419C8.80728 1.54419 10.1861 2.15029 11.1054 3.21096C11.4118 3.514 11.4118 3.96858 11.3352 4.34739C11.565 4.1201 11.8714 3.96858 12.1778 3.96858C12.2544 3.96858 12.331 3.96858 12.331 3.96858C12.8672 4.04434 13.2502 4.49891 13.3268 5.02925C13.48 6.99906 13.6332 9.04464 13.6332 11.0145C14.9355 10.5599 16.1611 10.3326 17.3868 10.2568C18.306 9.19616 19.455 8.13549 20.7573 7.30211C22.1361 6.39296 23.7448 5.48382 25.7364 4.7262L25.1236 4.57467C24.8172 4.49891 24.5874 4.27162 24.4342 3.96858C24.281 3.66553 24.281 3.36248 24.3576 3.05943C24.5108 2.60486 24.9704 2.30181 25.43 2.30181C25.5832 2.30181 25.6598 2.30181 25.8131 2.37757L29.2602 3.514C29.5666 3.58977 29.873 3.89281 29.9496 4.19586C30.0262 4.49891 30.0262 4.87772 29.873 5.18077L27.9579 8.59006C27.7281 8.96887 27.3451 9.19616 26.9621 9.19616C26.7323 9.19616 26.5791 9.1204 26.4259 9.04464C25.8897 8.74159 25.6598 8.05973 25.9663 7.45363L26.2727 6.9233C24.5874 7.60516 23.2086 8.36278 22.0595 9.1204C21.4467 9.57497 20.8339 10.0295 20.2977 10.5599C20.4509 10.5599 20.5275 10.6356 20.6807 10.6356C23.5916 11.5448 25.3534 14.4237 24.7406 17.4542C24.3576 19.4998 22.8255 21.2423 20.9105 21.8484C20.4509 22 19.9913 22.0757 19.5316 22.0757C18.306 22.0757 17.157 21.6211 16.2377 20.712C14.6291 19.121 14.2461 16.6208 15.3185 13.9692C15.4717 13.5904 15.6249 13.2116 15.8547 12.8327C15.1653 12.9843 14.4759 13.2116 13.7864 13.5146C13.7864 13.9692 13.7864 14.4995 13.7098 14.9541C13.5566 18.0603 12.714 20.9393 11.3352 23.2879C10.6457 24.5001 9.03709 26.6214 6.89222 27.5306C6.20279 27.6821 5.66657 27.8336 5.05375 27.8336ZM11.2586 14.7268C10.0329 15.4844 8.80728 16.4693 7.50503 17.6058C6.35599 18.6664 5.28356 19.8029 4.59414 21.015C3.59831 22.6061 3.29189 23.894 3.75151 24.7274C4.05792 25.2577 4.51753 25.485 5.13035 25.485C5.36016 25.485 5.66657 25.4092 5.89638 25.3335C7.42843 24.6516 8.65407 22.9849 9.26689 22C10.4925 19.9544 11.182 17.4542 11.3352 14.7268C11.2586 14.8026 11.2586 14.7268 11.2586 14.7268ZM18.4592 12.6055C17.9996 13.2873 17.6166 14.0449 17.3102 14.7268C16.4675 16.8481 17.0038 18.3634 17.6932 19.0452C18.1528 19.4998 18.7656 19.8029 19.3784 19.8029C19.6082 19.8029 19.838 19.8029 20.0679 19.7271C21.2169 19.3483 22.1361 18.3634 22.3659 17.1512C22.7489 15.2571 21.6765 13.5146 19.9147 12.9843C19.455 12.757 18.9954 12.6812 18.4592 12.6055ZM7.27523 3.81705C6.73901 3.81705 6.20279 3.89281 5.74318 4.1201C4.05792 4.87772 2.83228 6.69601 2.90888 8.28701C2.90888 9.04464 3.2919 9.72649 3.82811 10.2568C4.28773 10.6356 4.74734 10.7872 5.36016 10.7872C5.51337 10.7872 5.66657 10.7872 5.81978 10.7114C8.34766 10.2568 9.80311 7.60516 11.0288 4.7262L10.9521 4.80196C10.7223 4.95348 10.4925 5.10501 10.1861 5.10501C9.80311 5.10501 9.4967 4.95348 9.26689 4.7262C8.73068 3.96858 7.73484 3.81705 7.27523 3.81705Z" fill="#FF6168"/>
<path d="M27.5746 7.90832C27.498 7.90832 27.4214 7.90832 27.4214 7.83256C27.2682 7.7568 27.1916 7.52951 27.2682 7.30222L28.4939 5.18088C28.5705 5.10512 28.5705 4.9536 28.4939 4.87784C28.4173 4.80207 28.3407 4.65055 28.2641 4.65055L25.8894 3.89293C25.6596 3.81717 25.583 3.58988 25.6596 3.43836C25.7362 3.28683 25.966 3.13531 26.1192 3.21107L28.4939 3.96869C28.8003 4.04445 29.1067 4.3475 29.1833 4.65055C29.2599 4.9536 29.2599 5.33241 29.1067 5.63546L27.881 7.7568C27.8044 7.83256 27.6512 7.90832 27.5746 7.90832Z" fill="white"/>
</svg>
