<svg xmlns="http://www.w3.org/2000/svg" width="65" height="85" viewBox="0 0 65 85" fill="none"><path d="M63.3663 12.8988C63.3657 12.8973 63.3647 12.8944 63.3627 12.8934C62.4952 11.2524 51.8473 7.1688 44.4438 9.82248C36.3849 12.7111 32.5048 25.386 30.489 26.3456C28.5814 27.0375 29.6316 29.9446 31.5418 29.26C37.4185 27.1535 37.815 6.59595 57.6199 13.3916C55.9621 14.5026 55.1017 16.1343 55.0864 18.1873C49.0516 15.839 42.4565 20.7524 42.2246 26.4611C42.1526 28.4834 45.1955 28.6353 45.2989 26.6002C45.5868 22.2144 51.589 18.2163 56.5133 22.6513C60.5625 26.2939 67.0855 19.9036 63.3663 12.8988ZM58.5676 20.3547C57.6321 17.599 58.234 15.925 61.0211 15.2585C62.2432 18.9549 59.7139 21.3658 58.5676 20.3547Z" fill="#C8C8C8"></path><path d="M48.5255 26.1711C48.5872 26.2066 54.7167 29.7487 57.1508 36.5395C62.3587 51.0689 59.1386 78.6197 51.9305 81.2034C46.8063 83.0401 15.6145 71.8941 7.60732 57.0315C39.8852 58.9976 12.3337 15.0628 38.2876 5.45878C39.3169 5.08655 42.2297 4.03261 43.7998 3.46982C44.9257 3.06627 47.0195 2.95765 48.384 6.76431C49.0756 8.6939 51.9699 7.65649 51.2782 5.72691C49.3492 0.345079 45.4807 -0.4244 42.7543 0.552837C41.0221 1.17372 38.4798 2.09487 36.8577 2.68123L36.865 2.70165C30.3991 5.21018 26.8659 9.68608 24.91 14.9314L23.4295 10.801C22.7185 8.69891 20.0689 7.03827 16.0633 8.47404C14.389 9.07418 13.2035 9.95831 12.488 11.092C10.9804 9.76103 7.69242 8.18273 5.53766 8.95508C0.789667 10.6569 -1.81426 17.9532 2.35001 20.7415C5.58498 22.91 7.25401 25.6528 7.9167 26.9641C5.60971 29.9405 -1.65951 40.9417 3.63782 55.7206C9.90489 73.2049 45.7564 86.7081 52.9761 84.1203C63.184 80.4614 65.1337 49.699 60.045 35.5021C57.2251 27.635 50.3204 23.6432 50.0287 23.4762C48.2478 22.467 46.7514 25.1628 48.5255 26.1711ZM22.3121 32.6275C19.5454 29.2461 15.0639 24.9075 10.5893 25.4268C9.91647 24.1192 8.58531 21.9909 6.3209 19.9469C8.86874 18.3441 9.98108 15.9209 9.90521 12.9757C11.8796 14.2743 12.4609 16.5019 14.4571 22.2168C15.1487 24.1464 18.0429 23.109 17.3513 21.1794L15.7908 16.8258C18.0496 16.6399 19.9307 15.783 21.446 14.3791L23.4722 20.0322C22.6457 24.1913 22.4467 28.5518 22.3121 32.6275ZM20.0734 11.3061C18.3294 13.475 16.0607 13.7928 14.7924 13.7717C14.7683 11.6358 18.7951 10.4689 20.0734 11.3061ZM6.71788 11.8468C7.22013 14.6376 6.34324 16.7426 3.68631 17.8316C2.6892 16.576 4.03541 12.5137 6.71788 11.8468ZM10.5915 28.563C14.5625 27.6548 20.0999 34.5017 22.1323 37.5522C21.5811 49.6412 19.4495 55.3577 6.26111 53.8043C1.86784 40.2764 9.0527 30.4477 10.5915 28.563Z" fill="#C8C8C8"></path><path d="M36.1259 32.5545L39.1241 40.9189L37.1347 52.3993L32.337 58.2995L27.8947 57.1777C27.4334 57.0616 26.945 57.1659 26.5731 57.4589L22.7545 60.4735C21.1522 61.7391 23.0735 64.1743 24.6623 62.9119L27.8904 60.364L31.4943 61.2744L32.0281 66.5408C32.2347 68.5751 35.2959 68.286 35.0911 66.2428L34.5125 60.5283L38.0602 56.1658L43.4098 71.0905C44.1015 73.0201 46.9957 71.9827 46.304 70.0531L43.3838 61.906L49.8707 65.0007C51.7 65.8855 53.0245 63.0884 51.1748 62.206L41.9025 57.7824L40.1669 52.9402L41.9761 42.502L46.1976 43.0215L47.1899 49.6625C47.4957 51.6958 50.5407 51.2611 50.2317 49.219L49.493 44.2697L52.8005 45.8476C54.6461 46.7233 55.9488 43.9291 54.1069 43.0504L48.1972 40.231C47.4136 39.9901 44.6004 39.741 41.8337 39.3666L39.0201 31.517C38.3285 29.5875 35.4343 30.6249 36.1259 32.5545Z" fill="#C8C8C8"></path></svg>