<?xml version="1.0" encoding="utf-8"?>
<!-- Generator: Adobe Illustrator 26.0.1, SVG Export Plug-In . SVG Version: 6.00 Build 0)  -->
<svg version="1.1" id="Layer_1" xmlns="http://www.w3.org/2000/svg" xmlns:xlink="http://www.w3.org/1999/xlink" x="0px" y="0px"
	 viewBox="0 0 1080 1080" style="enable-background:new 0 0 1080 1080;" xml:space="preserve">
<style type="text/css">
	.st0{fill:none;stroke:#E59179;stroke-width:13;stroke-miterlimit:10;}
	.st1{fill:#E59179;}
	.st2{fill:#E69179;stroke:#E59179;stroke-width:5;stroke-miterlimit:10;}
	.st3{fill:#E69179;stroke:#E59179;stroke-miterlimit:10;}
</style>
<g>
	
		<rect x="187.22" y="187.22" transform="matrix(0.7343 0.6788 -0.6788 0.7343 510.0359 -223.0872)" class="st0" width="705.57" height="705.57"/>
	<g>
		<g>
			<g>
				<path class="st1" d="M696.25,399.46c-26.95,2.73-35.79,6.63-37.06,24.58c-0.42,12.48-1.26,28.87-1.26,65.15V645.6h-16
					L461.7,441.59v97.52c0,35.11,1.26,52.66,2.11,63.98c0.84,19.89,11.37,25.75,41.69,28.09v10.92H403.17v-10.92
					c26.11-1.95,36.21-7.8,37.9-26.92c1.26-12.48,2.11-30.04,2.11-65.54v-99.47c0-10.92-0.84-17.16-8.42-25.75
					c-8-9.75-16.84-12.09-37.48-14.04v-10.92h63.16l178.54,196.22v-95.57c0-36.28-0.84-53.05-2.11-64.76
					c-1.26-17.55-10.95-23.02-44.64-24.97v-10.92h104.01V399.46z"/>
			</g>
		</g>
	</g>
	<line class="st2" x1="354.7" y1="755.93" x2="738.84" y2="755.93"/>
	<rect x="533.27" y="738.57" class="st3" width="27" height="34.71"/>
</g>
</svg>
