<svg xmlns="http://www.w3.org/2000/svg" width="50" height="64" viewBox="0 0 50 64" fill="none"><path d="M9.14581 35.7108C9.5196 36.0435 9.55261 36.6163 9.21977 36.99C9.13638 37.0835 9.03818 37.1557 8.93173 37.2061C8.61268 37.3574 8.22061 37.3137 7.94033 37.0642C4.15337 33.6922 3.05669 28.1506 5.27317 23.588C7.53361 18.9352 12.6565 16.3873 17.7309 17.3925C18.2219 17.4897 18.5409 17.9665 18.4434 18.4573C18.3459 18.9481 17.8691 19.2671 17.3783 19.1699C13.1115 18.3249 8.80413 20.467 6.90335 24.3795C5.03957 28.2161 5.96169 32.8757 9.14581 35.7108ZM44.6991 22.4732C44.2014 22.4216 43.756 22.7837 43.7047 23.2815C43.2812 27.3768 43.5421 31.4856 44.4801 35.4935C44.7213 36.5247 45.0697 37.8177 45.4386 39.1867C46.2192 42.0836 47.1038 45.3672 47.5391 48.1324C48.1888 52.2609 47.4072 52.8268 47.316 52.8777C47.1589 52.9687 45.6048 53.5313 39.1757 46.7046C37.1946 44.0507 35.4733 42.0896 34.0591 40.8751C32.3954 39.4462 31.0777 38.9929 30.031 39.4891C28.9842 39.9854 28.5014 41.2925 28.5546 43.485C28.5998 45.3486 29.0287 47.9223 29.8296 51.1358C31.0482 60.4527 29.6292 61.2942 29.4633 61.3644C29.3668 61.4025 28.4408 61.6478 25.6665 58.545C23.8038 56.4616 21.8091 53.6844 20.0493 51.2342C19.0102 49.7875 18.1128 48.5381 17.3743 47.6135C14.4726 43.9805 10.9584 40.9642 6.92759 38.6467C2.32752 34.7309 0.958243 28.217 3.60141 22.7766C6.23093 17.3641 12.1898 14.4005 18.0924 15.5696C18.4842 15.6472 18.8807 15.4593 19.0684 15.1068C19.7565 13.8161 20.6449 12.6571 21.7093 11.6623C22.0749 11.3205 22.0943 10.7472 21.7525 10.3817C21.4107 10.0162 20.8371 9.9971 20.4717 10.3387C19.4222 11.3196 18.5232 12.4406 17.7929 13.6777C11.3 12.6844 4.86344 16.0315 1.97119 21.9851C-1.04678 28.1971 0.536503 35.6402 5.82166 40.085C5.86323 40.1201 5.90792 40.1511 5.95504 40.178C9.81665 42.387 13.1823 45.2691 15.9581 48.7445C16.6677 49.6327 17.5525 50.8647 18.5772 52.2913C23.5973 59.2808 27.3645 64.1437 30.1301 63.0493C30.1764 63.031 30.2215 63.0114 30.2661 62.9902C32.2103 62.0683 32.614 58.4115 31.6201 50.8483C31.6156 50.8141 31.6092 50.7802 31.6007 50.7467C29.3928 41.9114 30.793 41.1332 30.8075 41.1264C30.8219 41.1195 32.3106 40.528 37.7538 47.8293C37.7744 47.857 37.7966 47.8835 37.8202 47.9086C43.1569 53.5824 46.2643 55.541 48.1991 54.46C50.8072 53.0047 49.4255 47.0162 47.1888 38.7151C46.8239 37.361 46.4794 36.0822 46.2449 35.0804C45.3531 31.2691 45.105 27.3619 45.5075 23.4675C45.5588 22.9696 45.1971 22.5245 44.6991 22.4732ZM26.1498 20.6053L25.2162 14.1956C25.1589 13.8019 25.3652 13.4168 25.7248 13.2463C26.0843 13.0758 26.5131 13.1598 26.7816 13.4533L31.1534 18.2329L37.5642 17.2982C37.958 17.2409 38.3431 17.4471 38.5136 17.8066C38.684 18.1661 38.5999 18.5947 38.3063 18.8633L33.5251 23.2351L34.4586 29.6449C34.5159 30.0385 34.3096 30.4237 33.95 30.5942C33.5904 30.7647 33.1617 30.6807 32.8931 30.3872L28.5215 25.6075L22.1107 26.5422C21.7168 26.5996 21.3317 26.3934 21.1613 26.0339C20.9908 25.6744 21.0749 25.2457 21.3687 24.9771L26.1498 20.6053ZM27.7273 21.6182L24.7688 24.3234L28.7357 23.7451C29.0329 23.7018 29.3324 23.8086 29.535 24.0301L32.2402 26.9878L31.6626 23.0214C31.6194 22.7243 31.7262 22.4248 31.9479 22.2221L34.9063 19.5169L30.9395 20.0952C30.6422 20.1385 30.3427 20.0317 30.14 19.8102L27.4348 16.8526L28.0125 20.819C28.0557 21.1162 27.9488 21.4155 27.7273 21.6182ZM23.6763 9.2616C23.5058 8.90201 23.5899 8.47344 23.8837 8.20482L26.9011 5.44572L26.3119 1.40057C26.2546 1.00675 26.4609 0.621658 26.8205 0.451166C27.1801 0.280676 27.6088 0.364676 27.8774 0.658325L30.6364 3.6747L34.6824 3.08479C35.0763 3.02737 35.4614 3.23357 35.6318 3.59307C35.8023 3.95256 35.7182 4.38123 35.4245 4.6498L32.407 7.4091L32.9961 11.4543C33.0535 11.8481 32.8471 12.2332 32.4876 12.4037C32.128 12.5741 31.6993 12.4901 31.4306 12.1965L28.6717 9.18012L24.6256 9.76993C24.2319 9.8274 23.8468 9.6212 23.6763 9.2616ZM27.2837 7.5512L28.8858 7.3176C29.183 7.27434 29.4825 7.38114 29.6852 7.60274L30.7776 8.79706L30.5442 7.19546C30.501 6.89825 30.6078 6.59878 30.8294 6.39609L32.0243 5.30351L30.4223 5.53716C30.125 5.58047 29.8255 5.47368 29.6228 5.25208L28.5305 4.05776L28.7638 5.65935C28.8071 5.95657 28.7002 6.25604 28.4785 6.45878L27.2837 7.5512ZM49.3627 8.43756C49.5332 8.79715 49.449 9.22572 49.1553 9.49434L45.2305 13.083L45.9969 18.3447C46.0542 18.7384 45.8479 19.1235 45.4883 19.294C45.1287 19.4645 44.7 19.3805 44.4314 19.0869L40.8428 15.1634L35.5803 15.9308C35.1864 15.9882 34.8013 15.782 34.6309 15.4225C34.4604 15.063 34.5445 14.6344 34.8382 14.3658L38.763 10.777L37.9967 5.51537C37.9394 5.12165 38.1457 4.73656 38.5053 4.56607C38.8649 4.39558 39.2936 4.47958 39.5621 4.77313L43.1507 8.69663L48.4134 7.92933C48.8071 7.87186 49.1922 8.07796 49.3627 8.43756ZM45.7551 10.148L42.9365 10.5589C42.6393 10.6022 42.3398 10.4954 42.1371 10.2739L40.215 8.1724L40.6255 10.9906C40.6687 11.2877 40.5619 11.5872 40.3403 11.7899L38.2381 13.7121L41.0567 13.3011C41.3539 13.2578 41.6534 13.3646 41.8561 13.5861L43.7782 15.6876L43.3677 12.8694C43.3245 12.5722 43.4314 12.2728 43.6531 12.07L45.7551 10.148Z" fill="#C8C8C8"></path></svg>