<svg xmlns="http://www.w3.org/2000/svg" width="69" height="85" viewBox="0 0 69 85" fill="none"><path d="M36.367 0.966802C34.5383 5.8603 32.7204 10.6737 30.8895 15.4653C26.7306 26.3768 22.5602 37.2854 18.3783 48.191C18.0865 48.9546 17.8098 49.6945 17.4769 50.4384C17.144 51.1823 16.5864 51.795 15.6288 51.5409C15.4047 51.4946 15.1933 51.3996 15.0094 51.2626C14.8255 51.1256 14.6736 50.9501 14.5643 50.7482C14.4551 50.5464 14.3912 50.3232 14.3772 50.0944C14.3632 49.8656 14.3993 49.6368 14.4832 49.424C14.8333 47.9476 15.19 46.482 15.592 45.0189C17.9674 36.7885 20.9433 28.7471 24.4956 20.9598C27.3446 14.5586 30.28 8.25322 33.1635 1.93456C33.7796 0.682734 34.3827 -0.517143 36.367 0.966802Z" fill="#FF3C48"></path><path d="M65.3081 35.6261C65.0965 36.055 64.8523 36.4668 64.5775 36.8579C57.8808 45.3983 50.6396 53.4941 42.8991 61.0948C41.8356 62.1124 40.7894 63.0608 38.8786 61.7246C39.3571 60.7191 39.9288 59.7612 40.5862 58.8636C43.433 55.603 46.3295 52.4012 49.2757 49.2582C53.4288 44.7565 57.6079 40.2983 61.8129 35.8836C63.2979 34.2461 63.3627 34.2811 65.3081 35.6261Z" fill="#FF3C48"></path><path d="M40.0221 33.8938C37.1537 39.0833 34.4625 44.226 31.5055 49.2915C30.2518 51.5133 29.8432 51.418 27.5196 50.8145C27.5563 50.2344 27.6802 49.6636 27.887 49.1214C30.7706 44.1292 33.6736 39.1697 36.5636 34.1884C37.2639 32.9305 38.1351 32.1308 40.0221 33.8938Z" fill="#FF3C48"></path><path d="M0.519443 41.689C0.396241 38.1662 0.413542 34.6334 0.506497 31.1291C0.579993 30.8226 0.731822 30.5409 0.947075 30.3117C1.16233 30.0825 1.4336 29.9137 1.73427 29.8218C2.27034 29.8116 3.24737 30.3931 3.31653 30.8529C3.85692 34.9521 4.70857 39.2047 3.109 43.254C1.56131 43.5583 0.569156 43.0005 0.519443 41.689Z" fill="#FF3C48"></path><path d="M62.5391 67.5365C59.6037 69.7887 56.7612 72.0003 53.8928 74.1684C53.1529 74.6859 52.3339 75.0798 51.4675 75.3351C50.3089 75.702 50.1338 75.5559 48.5278 74.1411C51.9513 71.386 55.6022 68.927 59.4416 66.7903C60.4272 66.1581 61.4778 66.2978 62.5391 67.5365Z" fill="#FF3C48"></path><path d="M68.3818 79.9835C63.5312 83.9383 54.9433 86.1727 51.6188 84.0881C52.2332 83.6314 52.8922 83.2383 53.5858 82.9146C57.561 81.6192 61.5772 80.4171 65.5566 79.1043C66.0503 78.8722 66.6136 78.8337 67.1362 78.9963C67.6587 79.1589 68.1029 79.511 68.3818 79.9835Z" fill="#FF3C48"></path></svg>