<svg width="18" height="18" viewBox="0 0 18 18" fill="none" xmlns="http://www.w3.org/2000/svg">
<path d="M6.37497 14.25H5.99997C2.99997 14.25 1.49997 13.5 1.49997 9.75V6C1.49997 3 2.99997 1.5 5.99997 1.5H12C15 1.5 16.5 3 16.5 6V9.75C16.5 12.75 15 14.25 12 14.25H11.625C11.3925 14.25 11.1675 14.3625 11.025 14.55L9.89997 16.05C9.40497 16.71 8.59497 16.71 8.09997 16.05L6.97497 14.55C6.85497 14.385 6.57747 14.25 6.37497 14.25Z" stroke="#838383" stroke-width="1.40625" stroke-miterlimit="10" stroke-linecap="round" stroke-linejoin="round"/>
<path d="M13.1223 8.25H13.1291" stroke="#838383" stroke-width="2.25" stroke-linecap="round" stroke-linejoin="round"/>
<path d="M8.99661 8.25H9.00335" stroke="#838383" stroke-width="2.25" stroke-linecap="round" stroke-linejoin="round"/>
<path d="M4.87088 8.25H4.87762" stroke="#838383" stroke-width="2.25" stroke-linecap="round" stroke-linejoin="round"/>
</svg>
