<svg class="hero-input__icon" width="16" height="18" viewBox="0 0 16 18" fill="none" xmlns="http://www.w3.org/2000/svg">
                      <path d="M14.5 7.81065C14.5 12.8485 8.02274 17.1667 8.02274 17.1667C8.02274 17.1667 1.54547 12.8485 1.54547 7.81065C1.54547 6.09277 2.2279 4.44525 3.44262 3.23052C4.65734 2.0158 6.30486 1.33337 8.02274 1.33337C9.74062 1.33337 11.3881 2.0158 12.6029 3.23052C13.8176 4.44525 14.5 6.09277 14.5 7.81065Z" stroke="#B9B9B9" stroke-width="1.5" stroke-linecap="round" stroke-linejoin="round" />
                      <path d="M8.02274 9.96979C9.21517 9.96979 10.1818 9.00313 10.1818 7.8107C10.1818 6.61827 9.21517 5.65161 8.02274 5.65161C6.83031 5.65161 5.86365 6.61827 5.86365 7.8107C5.86365 9.00313 6.83031 9.96979 8.02274 9.96979Z" stroke="#B9B9B9" stroke-width="1.5" stroke-linecap="round" stroke-linejoin="round" />
                    </svg>
