<svg width="26" height="26" viewBox="0 0 26 26" fill="none" xmlns="http://www.w3.org/2000/svg">
<path d="M3.4873 4.63771C3.41176 4.56217 3.35183 4.47248 3.31095 4.37378C3.27007 4.27508 3.24902 4.16929 3.24902 4.06246C3.24902 3.95562 3.27007 3.84984 3.31095 3.75114C3.35183 3.65243 3.41176 3.56275 3.4873 3.48721C3.56284 3.41167 3.65253 3.35174 3.75123 3.31086C3.84993 3.26997 3.95572 3.24893 4.06255 3.24893C4.16938 3.24893 4.27517 3.26997 4.37387 3.31086C4.47257 3.35174 4.56226 3.41167 4.6378 3.48721L13 11.8511L21.3623 3.48721C21.4378 3.41167 21.5275 3.35174 21.6262 3.31086C21.7249 3.26997 21.8307 3.24893 21.9375 3.24893C22.0444 3.24893 22.1502 3.26997 22.2489 3.31086C22.3476 3.35174 22.4373 3.41167 22.5128 3.48721C22.5883 3.56275 22.6483 3.65243 22.6891 3.75114C22.73 3.84984 22.7511 3.95562 22.7511 4.06246C22.7511 4.16929 22.73 4.27508 22.6891 4.37378C22.6483 4.47248 22.5883 4.56217 22.5128 4.63771L14.1489 13L22.5128 21.3622C22.5883 21.4377 22.6483 21.5274 22.6891 21.6261C22.73 21.7248 22.7511 21.8306 22.7511 21.9375C22.7511 22.0443 22.73 22.1501 22.6891 22.2488C22.6483 22.3475 22.5883 22.4372 22.5128 22.5127C22.4373 22.5883 22.3476 22.6482 22.2489 22.6891C22.1502 22.7299 22.0444 22.751 21.9375 22.751C21.8307 22.751 21.7249 22.7299 21.6262 22.6891C21.5275 22.6482 21.4378 22.5883 21.3623 22.5127L13 14.1488L4.6378 22.5127C4.56226 22.5883 4.47257 22.6482 4.37387 22.6891C4.27517 22.7299 4.16938 22.751 4.06255 22.751C3.95572 22.751 3.84993 22.7299 3.75123 22.6891C3.65253 22.6482 3.56284 22.5883 3.4873 22.5127C3.41176 22.4372 3.35183 22.3475 3.31095 22.2488C3.27007 22.1501 3.24902 22.0443 3.24902 21.9375C3.24902 21.8306 3.27007 21.7248 3.31095 21.6261C3.35183 21.5274 3.41176 21.4377 3.4873 21.3622L11.8512 13L3.4873 4.63771Z" fill="#646464"/>
</svg>
