<svg width="19" height="17" viewBox="0 0 19 17" fill="none" xmlns="http://www.w3.org/2000/svg">
<path d="M18.8137 0.5H5.21569C5.11324 0.5 5.02941 0.59 5.02941 0.7V2.1C5.02941 2.21 5.11324 2.3 5.21569 2.3H18.8137C18.9162 2.3 19 2.21 19 2.1V0.7C19 0.59 18.9162 0.5 18.8137 0.5ZM18.8137 7.6H5.21569C5.11324 7.6 5.02941 7.69 5.02941 7.8V9.2C5.02941 9.31 5.11324 9.4 5.21569 9.4H18.8137C18.9162 9.4 19 9.31 19 9.2V7.8C19 7.69 18.9162 7.6 18.8137 7.6ZM18.8137 14.7H5.21569C5.11324 14.7 5.02941 14.79 5.02941 14.9V16.3C5.02941 16.41 5.11324 16.5 5.21569 16.5H18.8137C18.9162 16.5 19 16.41 19 16.3V14.9C19 14.79 18.9162 14.7 18.8137 14.7ZM0 1.4C-2.55158e-09 1.58385 0.033727 1.7659 0.0992552 1.93576C0.164783 2.10561 0.26083 2.25995 0.38191 2.38995C0.50299 2.51995 0.646733 2.62307 0.804933 2.69343C0.963132 2.76379 1.13269 2.8 1.30392 2.8C1.47515 2.8 1.64471 2.76379 1.80291 2.69343C1.96111 2.62307 2.10485 2.51995 2.22593 2.38995C2.34701 2.25995 2.44306 2.10561 2.50859 1.93576C2.57412 1.7659 2.60784 1.58385 2.60784 1.4C2.60784 1.21615 2.57412 1.0341 2.50859 0.864243C2.44306 0.694387 2.34701 0.540053 2.22593 0.410051C2.10485 0.280049 1.96111 0.176925 1.80291 0.106569C1.64471 0.0362119 1.47515 0 1.30392 0C1.13269 0 0.963132 0.0362119 0.804933 0.106569C0.646733 0.176925 0.50299 0.280049 0.38191 0.410051C0.26083 0.540053 0.164783 0.694387 0.0992552 0.864243C0.033727 1.0341 -2.55158e-09 1.21615 0 1.4ZM0 8.5C-2.55158e-09 8.68385 0.033727 8.8659 0.0992552 9.03576C0.164783 9.20561 0.26083 9.35995 0.38191 9.48995C0.50299 9.61995 0.646733 9.72307 0.804933 9.79343C0.963132 9.86379 1.13269 9.9 1.30392 9.9C1.47515 9.9 1.64471 9.86379 1.80291 9.79343C1.96111 9.72307 2.10485 9.61995 2.22593 9.48995C2.34701 9.35995 2.44306 9.20561 2.50859 9.03576C2.57412 8.8659 2.60784 8.68385 2.60784 8.5C2.60784 8.31615 2.57412 8.1341 2.50859 7.96424C2.44306 7.79439 2.34701 7.64005 2.22593 7.51005C2.10485 7.38005 1.96111 7.27693 1.80291 7.20657C1.64471 7.13621 1.47515 7.1 1.30392 7.1C1.13269 7.1 0.963132 7.13621 0.804933 7.20657C0.646733 7.27693 0.50299 7.38005 0.38191 7.51005C0.26083 7.64005 0.164783 7.79439 0.0992552 7.96424C0.033727 8.1341 -2.55158e-09 8.31615 0 8.5ZM0 15.6C-2.55158e-09 15.7839 0.033727 15.9659 0.0992552 16.1358C0.164783 16.3056 0.26083 16.4599 0.38191 16.5899C0.50299 16.72 0.646733 16.8231 0.804933 16.8934C0.963132 16.9638 1.13269 17 1.30392 17C1.47515 17 1.64471 16.9638 1.80291 16.8934C1.96111 16.8231 2.10485 16.72 2.22593 16.5899C2.34701 16.4599 2.44306 16.3056 2.50859 16.1358C2.57412 15.9659 2.60784 15.7839 2.60784 15.6C2.60784 15.4161 2.57412 15.2341 2.50859 15.0642C2.44306 14.8944 2.34701 14.7401 2.22593 14.6101C2.10485 14.48 1.96111 14.3769 1.80291 14.3066C1.64471 14.2362 1.47515 14.2 1.30392 14.2C1.13269 14.2 0.963132 14.2362 0.804933 14.3066C0.646733 14.3769 0.50299 14.48 0.38191 14.6101C0.26083 14.7401 0.164783 14.8944 0.0992552 15.0642C0.033727 15.2341 -2.55158e-09 15.4161 0 15.6Z" fill="#646464"/>
</svg>
